<?xml version="1.0" encoding="utf-8" ?><svg xmlns="http://www.w3.org/2000/svg" xmlns:xlink="http://www.w3.org/1999/xlink" width="1024" height="1024" viewBox="0 0 1024 1024"><path fill="#090909" transform="scale(2 2)" d="M400.137 18.7536C426.078 17.126 442.271 35.7963 442.467 60.8777L442.493 438.483C442.491 454.761 443.015 467.78 430.303 480.052C418.869 491.089 409.841 492.846 395.16 492.766L112.208 492.748L111.755 492.753C89.0567 492.865 70.1214 472.155 70.0677 449.79L70.068 65.9074C70.0656 61.2865 69.7487 54.9979 70.4934 50.5232C74.4508 26.7445 93.9895 18.6867 115.19 18.7377L400.137 18.7536ZM404.296 478.248C429.532 468.402 427.877 458.598 427.869 434.969L427.87 85.7391C427.88 66.775 432.02 43.6148 410.371 34.9124C404.284 32.4656 397.948 33.1964 391.523 33.234L108.974 33.2534C98.1529 34.5896 84.4045 42.6658 84.5957 54.7854C84.719 62.5963 84.7526 70.5249 84.7537 78.3238L84.7425 437.424C84.7284 442.28 84.2247 448.801 84.9196 453.414C88.1843 475.087 105.369 478.304 122.997 478.265L339.705 478.25C361.057 478.25 382.986 478.506 404.296 478.248Z"/><path fill="#090909" transform="scale(2 2)" d="M218.998 329.658C224.055 334.208 228.911 339.179 233.761 343.953C231.659 346.366 227.367 350.2 224.89 352.673L205.699 372.087C203.048 374.776 198.492 379.202 196.307 382.049L196.318 403.5C196.387 421.161 195.767 419.421 176.501 419.367L143.342 419.36C135.186 419.23 127.735 420.382 127.755 409.704C127.772 400.367 127.676 391.112 127.739 381.77C127.897 376.22 125.371 358.884 134.333 358.503C152.914 357.714 171.991 358.638 190.556 358.252C194.074 355.543 217.079 332.614 218.998 329.658ZM193.596 384.973C187.813 390.276 173.114 406.657 167.644 410.07C160.027 412.551 157.505 407.605 152.693 402.768C147.691 397.739 136.251 384.783 130.961 382.049C136.175 377.138 140.533 371.878 145.4 367.299C149.692 371.59 159.304 382.203 164.175 384.973C171.026 379.798 181.668 367.701 187.88 361.16L148.146 361.16C126.281 361.079 131.405 361.703 131.074 383.241L130.935 401.953C130.932 406.187 129.322 414.313 134.449 416.184C136.495 416.93 182.66 416.931 187.521 416.648C189.734 416.519 192.324 415.785 193.049 413.428C194.064 410.129 193.799 389.389 193.596 384.973Z"/><path fill="#090909" transform="scale(2 2)" d="M219.906 148.254C222.651 149.414 231.647 159.124 234.519 161.834C222.838 174.458 207.89 189.278 195.24 200.648L195.266 224.124C195.332 245.187 194.204 242.36 175.79 242.362L143.342 242.371C135.508 242.292 127.762 243.053 127.753 232.779C127.746 224.039 127.716 215.363 127.739 206.618C127.871 199.824 124.963 185.705 134.74 184.511C140.58 183.797 146.676 184.038 152.567 184.038L184.357 184.042C187.4 179.046 212.808 154.737 219.906 148.254ZM188.782 239.594C191.655 236.787 192.565 235.752 192.489 231.392C192.357 223.742 191.316 211.613 192.204 204.277C186.583 209.939 180.673 215.296 175.063 220.948C171.939 224.242 165.486 231.635 161.999 233.855C156.503 227.294 136.439 206.735 130.961 202.948C135.066 199.18 141.442 192.377 145.4 189.374C150.525 195.71 156.195 200.737 161.999 206.239C166.7 202.709 175.874 192.109 180.513 187.423L156 187.423C150.976 187.405 140.907 186.887 136.453 187.558C129.628 188.587 131.244 195.446 131.122 200.779C130.959 207.894 127.889 235.992 134.219 239.034C136.541 240.151 182.232 239.622 188.782 239.594Z"/><path fill="#090909" transform="scale(2 2)" d="M220.645 62.66C224.287 65.2381 229.322 72.3167 233.761 75.8199C222.711 88.892 206.806 101.235 195.24 114.351L195.252 133.063C195.257 154.974 192.596 151.642 172.885 151.644L140.767 151.632C133.948 151.9 127.971 150.695 127.788 142.29C127.499 129.071 127.144 113.36 127.826 100.138C128.504 91.9899 144.591 94.1865 149.892 94.1489C162.549 94.0589 175.224 94.2867 187.88 94.1632C189.822 92.6707 193.407 88.9693 195.341 87.0897L211.869 70.7197C214.199 68.3951 218.083 64.2538 220.645 62.66ZM192.204 119.267C191.963 115.316 187.79 121.417 185.817 123.369C181.539 127.601 166.67 143.475 161.999 146.12C159.999 143.148 156.693 140.127 154.1 137.527L138.854 122.253C137.99 121.387 131.484 114.653 130.961 114.351C130.797 123.667 130.879 133.383 131.159 142.706C131.276 146.596 133.788 148.241 137.54 148.261L181.703 148.255C193.775 148.219 192.239 145.771 192.221 134.566L192.204 119.267ZM134.704 97.325C129.37 100.922 130.962 107.434 130.961 113.116C134.738 110.656 137.531 107.219 140.767 104.119C141.663 103.221 142.871 101.925 143.837 101.164C150.09 106.365 155.782 114.244 161.999 119.267C166.144 116.965 182.793 100.416 184.709 97.3336C184.592 97.3307 184.474 97.3278 184.357 97.325L153.247 97.3198C147.506 97.3153 140.35 97.1093 134.704 97.325Z"/><path fill="#090909" transform="scale(2 2)" d="M134.704 269.753L170.909 269.77C178.471 269.768 193.093 266.774 195.864 275.537C196.69 278.146 196.531 321.059 196.243 326.005C195.975 330.609 194.191 332.976 189.576 334.243L155.284 334.256C145.446 334.258 127.879 337.833 127.8 324.339C127.711 309.204 127.649 293.964 127.82 278.823C127.873 274.124 130.26 271.239 134.704 269.753Z"/><path fill="#090909" transform="scale(2 2)" d="M218.998 376.272L384.9 376.272L384.9 384.973L274.057 384.973C256.061 384.973 236.889 385.313 218.998 384.973C218.802 381.616 218.787 379.655 218.998 376.272Z"/><path fill="#090909" transform="scale(2 2)" d="M218.998 199.161L384.9 199.161L384.9 207.719L218.998 207.719L218.998 199.161Z"/><path fill="#090909" transform="scale(2 2)" d="M344.623 223.167L384.9 223.167L384.9 231.718L259.563 231.718L218.998 231.718L218.998 223.167L344.623 223.167Z"/><path fill="#090909" transform="scale(2 2)" d="M353.186 400.391L384.9 400.391C385.144 403.543 385.032 405.727 384.9 408.869L252.188 408.869L218.998 408.869L218.998 400.391L353.186 400.391Z"/><path fill="#090909" transform="scale(2 2)" d="M219.906 287.539L384.9 287.539C384.9 288.961 385.219 295.203 384.9 295.965L218.998 295.965C218.975 293.941 218.802 289.502 219.393 287.772L219.906 287.539Z"/><path fill="#090909" transform="scale(2 2)" d="M218.998 108.502L384.9 108.502C385.005 111.033 385.18 114.313 384.9 116.775L218.998 116.775L218.998 108.502Z"/><path fill="#090909" transform="scale(2 2)" d="M309.936 310.934L384.9 310.934L384.9 319.109L294.625 319.109L218.998 319.109L218.998 310.934L309.936 310.934Z"/><path fill="#090909" transform="scale(2 2)" d="M218.998 131.793L365.829 131.79C371.777 131.788 379.062 131.563 384.9 131.793C384.725 134.771 384.786 137.015 384.9 139.975L274.162 139.975C255.998 139.975 237.074 140.262 218.998 139.975C219.083 137.116 219.07 134.651 218.998 131.793Z"/><path fill="#090909" transform="scale(2 2)" d="M92.75 187.423C93.637 189.068 93.2491 190.76 93.8667 192.993C94.2308 192.442 94.3988 190.195 94.5023 189.374L94.4947 414.682C94.491 429.974 92.0049 447.167 103.77 458.996C114.618 469.902 125.674 468.522 139.699 468.512L354.971 468.472C356.382 468.47 359.75 468.374 360.995 468.499C364.533 468.915 386.595 467.911 387.827 469.088L387.814 470.173C385.583 470.922 383.136 470.398 381.35 471.019L130.99 471.04C102.82 471.078 91.6198 456.819 91.6317 430.316L91.6454 194.134C92.7865 192.662 92.5511 189.65 92.75 187.423Z"/><path fill="#090909" transform="scale(2 2)" d="M370.247 39.2539L383.699 39.23C411.897 39.2305 421.325 53.6443 421.412 81.721L421.41 425.625C421.407 429.875 421.583 434.948 421.084 439.127C418.491 460.834 401.813 471.448 381.35 471.019C383.136 470.398 385.583 470.922 387.814 470.173L387.827 469.088C386.595 467.911 364.533 468.915 360.995 468.499C377.535 466.537 393.86 473.462 408.415 459.003C415.698 451.768 418.205 442.783 418.247 432.877L418.253 81.061C418.246 47.7628 406.244 41.7005 375.27 41.8564C373.234 41.0123 369.254 41.6349 368.306 40.6229L368.54 40.0374C369.218 39.6099 369.514 39.5247 370.247 39.2539Z"/><path fill="#090909" transform="scale(2 2)" d="M94.5023 60.2969C96.4484 46.5035 114.745 39.2571 127.198 39.2434L370.247 39.2539C369.514 39.5247 369.218 39.6099 368.54 40.0374L368.306 40.6229C369.254 41.6349 373.234 41.0123 375.27 41.8564L132.136 41.8312C117.139 41.805 102.285 45.4052 96.3865 61.5006L95.4913 61.3376C94.6097 61.9246 94.1951 63.9982 93.8871 65.143C93.8175 63.1185 94.8705 61.4568 94.5023 60.2969Z"/><path fill="#090909" transform="scale(2 2)" d="M94.5023 60.2969C94.8705 61.4568 93.8175 63.1185 93.8871 65.143C94.1951 63.9982 94.6097 61.9246 95.4913 61.3376L96.3865 61.5006C92.7896 71.3217 94.7681 100.525 94.5023 112.209L94.5023 189.374C94.3988 190.195 94.2308 192.442 93.8667 192.993C93.2491 190.76 93.637 189.068 92.75 187.423C92.5511 189.65 92.7865 192.662 91.6454 194.134L91.6496 148.746C91.645 141.007 91.4793 132.759 91.6454 125.054L91.634 89.5679C91.6377 80.5818 90.6304 68.3045 94.5023 60.2969Z"/></svg>