<?xml version="1.0" encoding="utf-8" ?><svg xmlns="http://www.w3.org/2000/svg" xmlns:xlink="http://www.w3.org/1999/xlink" width="1024" height="1280" viewBox="0 0 1024 1280"><path fill="#090909" transform="scale(2 2)" d="M105.181 113.796C121.936 112.385 126.031 123.15 126.533 137.583L386.071 137.583C386.425 135.281 386.545 132.87 386.838 130.558C389.564 109.064 424.45 104.727 424.456 137.583L452.942 137.564C479.109 137.562 492.423 138.796 492.632 167.915L492.658 484.864C492.781 515.632 482.994 518.738 454.43 518.729L431.121 518.706L55.8662 518.722C34.6471 518.723 18.8554 515.573 18.7231 490.646L18.7333 171.51C18.739 138.283 29.3664 137.571 56.3295 137.569L90.0063 137.583C89.7304 125.021 91.5857 116.856 105.181 113.796ZM35.3473 164.767L35.0339 164.661C33.7398 167.154 34.4674 174.823 35.3473 177.546C34.9942 172.52 34.9447 169.785 35.3473 164.767Z"/><path fill="white" transform="scale(2 2)" d="M94.6343 142.882C94.7231 136.19 93.5678 126.967 98.7375 121.973C104.187 116.709 112.798 117.516 117.818 122.925C123.158 128.531 121.092 135.831 121.258 142.882C128.254 143.096 136.031 142.886 143.106 142.884L361.372 142.887C365.458 142.888 384.242 142.284 386.818 143.902L386.529 144.495C379.946 145.483 364.766 145.092 357.414 145.091L121.258 145.082C121.244 149.175 120.997 163.469 121.398 166.724C122.418 174.99 128.037 174.471 125.661 187.034C118.498 217.854 70.6115 194.441 92.707 169.386L94.6343 167.134C94.4641 159.874 94.5917 152.361 94.6343 145.082L69.2619 145.059C63.0551 145.054 56.2085 144.635 50.2266 145.876C41.9212 150.359 37.3824 155.464 35.3473 164.767L35.0339 164.661C33.7398 167.154 34.4674 174.823 35.3473 177.546C35.6409 181.338 35.3685 187.938 35.3573 191.981L35.3473 220.342L104.181 220.344C115.257 220.343 127.586 220.053 138.576 220.342L463.801 220.319C466.726 220.314 472.44 220.12 475.102 220.342L475.75 219.969C476.758 217.565 476.587 210.596 477.023 207.417L477.076 207.05C475.84 192.307 478.453 176.407 476.239 161.236C475.921 159.058 475.085 156.555 475.102 154.414C469.363 148.462 466.614 145.66 458.31 145.082C454.496 145.083 426.604 145.389 424.995 144.702C423.785 141.235 433.599 142.894 436.566 142.894L458.228 142.859C461.1 142.842 467.046 142.596 469.629 142.882C489.98 144.032 487.7 164.757 487.665 178.759L487.688 495.934C487.523 518.21 459.076 513.989 444.401 513.986L67.6718 513.98C52.0033 513.98 24.604 517.452 23.6604 494.35C23.4568 489.367 23.7572 483.856 23.7621 478.8L23.7577 181.824C23.7518 169.613 20.5229 146.892 38.0361 143.009C44.2867 141.624 87.6182 142.569 94.6343 142.882Z"/><path fill="white" transform="scale(2 2)" d="M94.6343 142.882C94.7231 136.19 93.5678 126.967 98.7375 121.973C104.187 116.709 112.798 117.516 117.818 122.925C123.158 128.531 121.092 135.831 121.258 142.882C128.254 143.096 136.031 142.886 143.106 142.884L361.372 142.887C365.458 142.888 384.242 142.284 386.818 143.902L386.529 144.495C379.946 145.483 364.766 145.092 357.414 145.091L121.258 145.082C121.244 149.175 120.997 163.469 121.398 166.724C122.418 174.99 128.037 174.471 125.661 187.034C118.498 217.854 70.6115 194.441 92.707 169.386L94.6343 167.134C94.4641 159.874 94.5917 152.361 94.6343 145.082L69.2619 145.059C63.0551 145.054 56.2085 144.635 50.2266 145.876C41.9212 150.359 37.3824 155.464 35.3473 164.767L35.0339 164.661C33.7398 167.154 34.4674 174.823 35.3473 177.546C35.6409 181.338 35.3685 187.938 35.3573 191.981L35.3473 220.342L104.181 220.344C115.257 220.343 127.586 220.053 138.576 220.342C134.855 220.57 129.907 220.388 126.112 220.366L37.2155 220.342L37.2207 456.065C37.2199 465.186 36.9497 474.666 37.519 483.674C38.7238 502.743 65.7087 498.95 78.5666 498.947L149.794 498.924C152.04 498.924 156.378 498.788 158.391 498.939L453.636 498.939C477.596 498.742 475.109 485.385 475.109 465.98L475.101 240.057C475.098 235.849 474.716 223.802 475.102 220.342L475.75 219.969C476.758 217.565 476.587 210.596 477.023 207.417L477.076 207.05C475.84 192.307 478.453 176.407 476.239 161.236C475.921 159.058 475.085 156.555 475.102 154.414C469.363 148.462 466.614 145.66 458.31 145.082C454.496 145.083 426.604 145.389 424.995 144.702C423.785 141.235 433.599 142.894 436.566 142.894L458.228 142.859C461.1 142.842 467.046 142.596 469.629 142.882C489.98 144.032 487.7 164.757 487.665 178.759L487.688 495.934C487.523 518.21 459.076 513.989 444.401 513.986L67.6718 513.98C52.0033 513.98 24.604 517.452 23.6604 494.35C23.4568 489.367 23.7572 483.856 23.7621 478.8L23.7577 181.824C23.7518 169.613 20.5229 146.892 38.0361 143.009C44.2867 141.624 87.6182 142.569 94.6343 142.882Z"/><path fill="white" transform="scale(2 2)" d="M479.89 232.344L479.89 454.279C479.9 471.015 484.328 502.258 459.63 503.322C450.753 503.52 441.811 503.438 432.917 503.437L72.888 503.447C61.8028 503.456 48.5314 505.745 39.6583 497.686C29.5913 488.542 32.2581 465.368 32.262 452.24L32.2676 181.46C32.2461 167.816 30.9815 146.384 50.2266 145.876C41.9212 150.359 37.3824 155.464 35.3473 164.767L35.0339 164.661C33.7398 167.154 34.4674 174.823 35.3473 177.546C35.6409 181.338 35.3685 187.938 35.3573 191.981L35.3473 220.342L104.181 220.344C115.257 220.343 127.586 220.053 138.576 220.342C134.855 220.57 129.907 220.388 126.112 220.366L37.2155 220.342L37.2207 456.065C37.2199 465.186 36.9497 474.666 37.519 483.674C38.7238 502.743 65.7087 498.95 78.5666 498.947L149.794 498.924C152.04 498.924 156.378 498.788 158.391 498.939L453.636 498.939C477.596 498.742 475.109 485.385 475.109 465.98L475.101 240.057C475.098 235.849 474.716 223.802 475.102 220.342L475.75 219.969C476.758 217.565 476.587 210.596 477.023 207.417L477.076 207.05C475.84 192.307 478.453 176.407 476.239 161.236C475.921 159.058 475.085 156.555 475.102 154.414C480.064 161.262 480.279 169.29 479.89 177.546C481.319 192.798 480.155 216.734 479.89 232.344Z"/><path fill="white" transform="scale(2 2)" d="M158.391 498.939L453.636 498.939C454.617 499.617 455.709 498.936 456.173 499.353C435.764 499.61 414.971 498.388 394.477 498.93L373.765 499.487C352.661 497.989 328.886 499.886 307.633 499.91L220.793 499.501C197.866 499.364 173.91 498.099 151.111 499.417C141.245 499.988 130.842 499.262 120.98 498.948C113.566 498.712 105.658 500.282 98.0955 499.262C99.6082 498.847 109.184 498.927 111.354 498.925L147.438 498.949C149.19 498.954 157.699 499.298 158.391 498.939Z"/><path fill="white" transform="scale(2 2)" d="M479.89 177.546C481.319 192.798 480.155 216.734 479.89 232.344C479.382 229.401 479.762 207.317 479.89 207.05C480.754 200.461 477.212 182.717 479.89 177.546Z"/><path fill="#090909" transform="scale(2 2)" d="M96.4633 154.414C96.5355 148.248 95.6848 138.09 96.644 132.642C98.5012 122.092 116.692 121.015 118.881 132.373C119.588 136.042 119.272 141.399 119.264 145.123L119.218 168.653C119.212 171.595 119.035 177.59 119.245 180.307C118.383 185.028 124.699 184.532 122.029 190.084C122.788 190.168 125.093 187.713 125.661 187.034C118.498 217.854 70.6115 194.441 92.707 169.386C92.258 171.22 93.2242 172.318 95.2069 172.219C97.7273 170.197 95.6279 156.004 96.4633 154.414Z"/><path fill="white" transform="scale(2 2)" d="M92.707 169.386C92.258 171.22 93.2242 172.318 95.2069 172.219C97.7273 170.197 95.6279 156.004 96.4633 154.414C96.4415 161.029 94.6498 179.354 99.5987 184.096C105.691 189.934 114.93 186.334 119.245 180.307C118.383 185.028 124.699 184.532 122.029 190.084C122.788 190.168 125.093 187.713 125.661 187.034C118.498 217.854 70.6115 194.441 92.707 169.386Z"/><path fill="#090909" transform="scale(2 2)" d="M248.52 414.723L270.264 414.688C280.765 414.68 289.013 412.288 289.122 426.159L289.158 455.031C289.182 480.226 290.293 478.55 263.033 478.423L241.198 478.452C231.017 478.463 222.085 480.538 222.231 466.78C222.194 452.199 222.063 437.582 222.467 423.019C222.771 412.067 240.604 414.692 248.52 414.723Z"/><path fill="white" transform="scale(2 2)" d="M231.627 417.521L265.884 417.516C272.928 417.509 282.176 415.251 286.263 420.708L286.275 452.9C286.272 461.246 289.525 474.732 279.894 475.431C274.145 475.467 229.941 476.086 227.77 474.665C223.149 471.64 225.223 454.128 225.22 449.172C225.215 440.44 221.069 418.603 231.627 417.521Z"/><path fill="#090909" transform="scale(2 2)" d="M276.135 420.034C279.159 419.884 280.899 419.75 283.938 420.034L283.944 452.2C283.951 476.2 287.983 472.876 265.292 472.882L234.19 472.871C231.932 472.901 229.388 473.273 227.789 471.475C226.819 468.118 226.394 426.124 228.217 421.063C230.08 419.534 243.758 420.017 246.939 420.017L276.135 420.034Z"/><path fill="#090909" transform="scale(2 2)" d="M229.323 339.955L261.26 339.94C268.125 339.942 286.134 337.286 288.513 345.193C289.58 348.738 289.462 389.369 289.046 395.168C288.718 399.749 286.816 401.933 282.26 403.164C265.625 403.478 248.906 403.304 232.27 403.146C225.078 403.078 221.957 397.867 222.23 390.998C222.37 376.238 221.841 361.43 222.504 346.696C222.688 342.604 225.623 340.653 229.323 339.955Z"/><path fill="white" transform="scale(2 2)" d="M229.323 342.861C239.77 342.697 250.245 342.85 260.695 342.85C265.765 342.85 283.24 340.614 285.581 345.777C286.717 348.284 286.809 395.161 285.639 397.625C284.961 399.052 283.67 399.507 282.26 399.967C270.123 401.216 245.027 400.472 232.56 400.029C229.125 399.907 226.811 399.841 225.79 396.069C224.644 391.839 224.995 355.184 225.428 349.117C225.658 345.896 225.821 343.718 229.323 342.861Z"/><path fill="#090909" transform="scale(2 2)" d="M227.272 345.355L263.06 345.351C269.893 345.352 277.158 345.179 283.938 345.355C284.256 347.814 283.97 352.537 283.954 355.304L283.931 375.024C283.931 380.295 284.839 393.146 283.938 397.753L247.708 397.757C244.045 397.763 231.104 398.066 228.368 397.393C226.353 394.374 227.118 350.853 227.272 345.355Z"/><path fill="#090909" transform="scale(2 2)" d="M314.476 414.723C329.29 414.709 344.18 414.674 358.991 414.732C362.841 414.748 368.381 416.017 368.557 420.858C369.141 436.861 368.738 452.954 368.797 468.975C368.822 475.863 365.232 478.738 358.603 478.423L326.967 478.449C320.64 478.454 303.279 481.029 303.221 471.435C303.122 455.162 302.908 438.761 303.359 422.495C303.555 415.419 308.881 415.1 314.476 414.723Z"/><path fill="white" transform="scale(2 2)" d="M310.872 417.521C313.773 417.355 318.178 417.501 321.199 417.504L341.252 417.516C348.814 417.516 361.361 415.055 365.663 420.708L365.675 453.867C365.676 460.423 368.398 474.207 361.045 475.431C347.617 476.751 326.381 475.59 312.392 475.334C307.273 475.24 306.141 473.521 306.053 468.514C305.788 453.497 305.679 438.184 306.175 423.18C306.332 419.359 307.372 418.366 310.872 417.521Z"/><path fill="#090909" transform="scale(2 2)" d="M353.629 420.034L355.195 419.954C362.164 419.618 363.587 419.173 363.658 426.372C363.712 431.893 364.861 470.344 363.014 472.335C359.843 473.602 324.944 472.875 318.359 472.871C316.653 472.864 308.385 473.432 308.403 471.27C308.452 465.279 307.402 422.384 308.756 420.501C311.604 419.399 347.339 420.031 353.629 420.034Z"/><path fill="white" transform="scale(2 2)" d="M207.547 475.431C203.66 481.022 161.196 478.426 152.848 478.377C146.5 478.339 143.554 473.357 143.83 467.507C143.901 452.561 143.464 437.532 144.063 422.593C144.515 411.31 162.955 414.699 171.014 414.705L190.411 414.715C194.039 414.712 202.958 414.151 205.784 416.001C210.722 418.981 209.708 425.106 209.673 430.141C209.623 437.338 211.499 471.813 207.547 475.431Z"/><path fill="#090909" transform="scale(2 2)" d="M207.547 475.431C203.66 481.022 161.196 478.426 152.848 478.377C146.5 478.339 143.554 473.357 143.83 467.507C143.901 452.561 143.464 437.532 144.063 422.593C144.515 411.31 162.955 414.699 171.014 414.705L190.411 414.715C194.039 414.712 202.958 414.151 205.784 416.001C210.341 424.937 209.768 421.394 208.144 429.993L207.785 429.992C206.822 425.907 207.704 419.341 204.523 417.521C190.593 416.451 171.112 417.263 157.061 417.66C151.147 418.126 147.002 417.495 146.913 425.003C146.737 439.977 146.498 455.048 147.017 470.007C147.178 474.664 150.953 475.375 154.686 475.385C162.841 475.406 201.506 477.074 205.784 473.62C205.356 475.49 206.039 475.112 207.547 475.431Z"/><path fill="#090909" transform="scale(2 2)" d="M205.784 416.001C210.722 418.981 209.708 425.106 209.673 430.141C209.623 437.338 211.499 471.813 207.547 475.431C206.039 475.112 205.356 475.49 205.784 473.62C207.853 460.344 206.529 435.044 206.362 420.708C205.577 419.543 205.053 418.847 204.523 417.521C207.704 419.341 206.822 425.907 207.785 429.992L208.144 429.993C209.768 421.394 210.341 424.937 205.784 416.001Z"/><path fill="#090909" transform="scale(2 2)" d="M167.151 420.034L190.363 420.025C193.249 420.012 202.359 418.823 204.145 420.95C205.233 426.323 204.693 470.62 203.904 472.284C201.445 473.26 189.541 472.882 186.255 472.871L166.063 472.881C162.588 472.901 152.851 473.292 149.955 472.449C148.567 470.005 147.975 422.981 149.926 421.376C152.17 419.531 163.428 420.03 167.151 420.034Z"/><path fill="#090909" transform="scale(2 2)" d="M388.202 339.955L420.745 339.945C427.385 339.945 444.431 337.31 446.885 345.534C447.675 348.181 447.533 390.232 447.244 394.979C446.997 399.034 444 402.165 440.071 403.164L407.06 403.181C400.365 403.179 382.564 405.81 381.551 396.557C380.119 383.473 380.881 361.263 381.303 347.742C381.446 343.154 383.708 340.7 388.202 339.955Z"/><path fill="white" transform="scale(2 2)" d="M388.202 342.861L423.148 342.843C437.489 342.844 444.334 338.675 444.249 353.769C444.196 362.998 447.643 396.075 440.071 399.967C434.606 400.284 388.832 400.342 386.642 399.357C381.47 397.032 383.582 356.15 383.996 349.582C384.218 346.058 384.458 343.938 388.202 342.861Z"/><path fill="#090909" transform="scale(2 2)" d="M386.071 345.355L422.537 345.356C427.221 345.354 437.266 344.92 441.294 345.755C442.583 347.119 443.683 391.862 441.175 397.753C431.251 398.396 392.033 398.808 387.135 397.015C386.064 394.952 385.322 353.702 386.071 345.355Z"/><path fill="#090909" transform="scale(2 2)" d="M75.4303 414.723L107.096 414.7C134.589 414.682 131.854 413.55 131.863 443.297L131.856 460.305C131.848 467.874 133.528 476.791 123.706 478.423L90.6845 478.442C72.1088 478.446 66.204 482.542 66.3369 461.08L66.4168 445.235C66.4132 434.231 61.8767 416.083 75.4303 414.723Z"/><path fill="white" transform="scale(2 2)" d="M76.2068 417.521C88.6829 418.71 122.264 413.838 128.72 420.708C129.978 433.437 129.174 459.833 128.72 472.871C127.074 474.127 125.715 474.961 123.706 475.431C115.905 475.435 75.9997 476.246 72.0888 474.457C67.1655 472.205 69.3104 454.656 69.3116 450.006C69.3138 441.547 68.8997 432.861 69.3856 424.425C69.673 419.436 71.1601 418.232 76.2068 417.521Z"/><path fill="#090909" transform="scale(2 2)" d="M73.2752 420.034L104.786 420.027C109.019 420.024 122.868 419.543 126.003 421.24C126.864 422.916 128.427 470.225 124.841 472.871C115.937 473.842 76.5416 473.501 72.6254 472.176C71.227 469.825 69.6773 422.857 73.2752 420.034Z"/><path fill="white" transform="scale(2 2)" d="M205.784 401.874C202.103 404.492 157.335 403.163 150.627 402.869C139.42 402.377 143.771 362.067 143.794 353.499C143.781 338.65 148.99 339.911 161.309 339.92L178.618 339.955C185.606 339.931 208.645 337.501 209.208 345.989C209.741 354.016 212.731 397.779 205.784 401.874Z"/><path fill="#090909" transform="scale(2 2)" d="M205.784 401.874C202.103 404.492 157.335 403.163 150.627 402.869C139.42 402.377 143.771 362.067 143.794 353.499C143.781 338.65 148.99 339.911 161.309 339.92L178.618 339.955C176.634 341.016 176.087 342.155 178.618 342.861C173.514 342.883 151.357 342.142 148.355 343.997C145.013 349.781 147.55 379.565 146.766 388.01C146.203 394.069 147.155 400.606 154.3 399.866C165.515 400.032 194.225 401.51 204.523 399.967L204.604 400.57C203.645 401.082 199.994 400.092 203.111 402.174C204.111 402.268 205.114 401.005 205.784 401.874Z"/><path fill="#090909" transform="scale(2 2)" d="M178.618 339.955C185.606 339.931 208.645 337.501 209.208 345.989C209.741 354.016 212.731 397.779 205.784 401.874C205.114 401.005 204.111 402.268 203.111 402.174C199.994 400.092 203.645 401.082 204.604 400.57L204.523 399.967C207.126 395.447 206.356 390.929 206.363 385.821L206.378 368.705C206.382 350.727 211.737 342.799 193.552 342.845L178.618 342.861C176.087 342.155 176.634 341.016 178.618 339.955Z"/><path fill="#090909" transform="scale(2 2)" d="M150.026 345.355L185.568 345.331C188.187 345.332 202.961 344.132 204.029 346.203C204.629 347.368 206.122 396.338 203.116 397.753C196.27 397.819 154.175 398.453 149.997 396.716C148.065 393.449 147.663 346.813 150.026 345.355Z"/><path fill="#090909" transform="scale(2 2)" d="M310.872 339.955C318.52 340.054 360.603 338.92 364.345 340.886C371.774 344.79 368.752 363.687 368.784 371.391C368.82 379.961 372.492 400.588 361.991 403.164L328.808 403.188C301.052 403.21 303.113 405.353 303.124 376.437L303.139 359.298C303.147 351.802 301.242 341.267 310.872 339.955Z"/><path fill="white" transform="scale(2 2)" d="M309.997 342.861C317.044 342.831 359.765 342.179 362.853 343.375C367.964 345.355 365.603 365.89 365.617 371.104C365.635 377.333 368.425 397.441 361.991 399.967C348.166 401.465 327.829 399.854 313.088 400.109C305.812 400.234 306.083 396.168 306.078 390.227C306.07 382.087 302.703 345.099 309.997 342.861Z"/><path fill="#090909" transform="scale(2 2)" d="M310.872 345.355L343.061 345.339C346.82 345.338 360.329 345.067 362.902 345.862C364.495 349.288 365.595 396.301 361.991 397.753L329.505 397.766C325.809 397.775 311.481 398.089 308.741 397.276C307.45 394.19 308.098 347.865 308.615 346.119C309.53 345.31 309.413 345.561 310.872 345.355Z"/><path fill="#090909" transform="scale(2 2)" d="M74.2338 339.955C75.8348 339.793 79.2481 339.927 80.9679 339.933L123.055 339.871C129.481 339.825 131.536 343.688 131.658 349.568C131.967 364.454 131.933 379.383 131.759 394.27C131.697 399.576 128.478 402.012 123.706 403.164L91.4729 403.183C83.2658 403.181 66.6269 406.126 66.489 394.455C66.3045 378.839 66.1851 363.078 66.5309 347.465C66.6415 342.47 69.3559 340.291 74.2338 339.955Z"/><path fill="white" transform="scale(2 2)" d="M76.2068 342.861L106.373 342.852C110.453 342.853 128.135 340.729 128.402 346.731C129.093 362.194 128.549 377.859 128.725 393.356C128.775 397.73 126.353 399.469 122.281 399.967L92.3372 399.974C85.6782 399.975 69.4228 402.755 69.3817 393.842C69.3114 378.607 69.1123 363.267 69.4774 348.038C69.5908 343.308 72.2594 343.125 76.2068 342.861Z"/><path fill="#090909" transform="scale(2 2)" d="M75.4303 345.355L126.533 345.355C126.539 353.342 129.416 395.974 123.706 397.753C115.782 397.512 77.4514 398.505 72.7281 396.846C69.9737 394.506 71.8033 346.717 72.3889 346.019C73.3614 345.379 74.2417 345.447 75.4303 345.355Z"/><path fill="#090909" transform="scale(2 2)" d="M229.323 267.535C245.476 266.754 264.024 267.39 280.342 267.574C287.337 267.653 289.165 271.828 289.131 278.393C289.036 292.271 289.414 306.134 288.922 319.991C288.766 324.379 286.493 326.969 282.26 327.9C280.135 328.127 276.414 327.934 274.152 327.922L240.817 327.918C215.053 328.097 222.93 320.99 222.267 297.766C222.383 288.692 218.342 269.418 229.323 267.535Z"/><path fill="white" transform="scale(2 2)" d="M229.323 270.305C236.275 270.27 280.096 269.657 283.125 270.671C288.439 272.449 286.215 293.114 286.225 297.62C286.238 303.581 288.788 322.824 282.26 325.16C275.834 325.358 226.645 326.817 225.842 322.497C223.897 312.023 225.319 288.605 225.246 276.743C225.31 273.033 225.861 271.744 229.323 270.305Z"/><path fill="#090909" transform="scale(2 2)" d="M230.2 272.692L264.531 272.688C270.766 272.686 277.795 272.46 283.938 272.692C284.193 279.172 286.021 321.694 282.26 322.825L247.974 322.828C241.284 322.828 233.872 323.044 227.272 322.825C226.539 315.551 227.502 274.018 227.835 273.415C228.843 272.641 228.731 272.88 230.2 272.692Z"/><path fill="#090909" transform="scale(2 2)" d="M388.202 267.535L421.01 267.519C426.623 267.519 446.579 265.086 446.903 273.732C447.495 289.537 447.473 305.699 446.956 321.513C446.838 325.15 443.376 327.371 440.071 327.9C437.937 328.136 434.351 327.944 432.078 327.927L400.804 327.932C384.371 328.056 380.91 329.916 381.151 310.888C381.294 299.563 380.925 287.385 381.238 275.957C381.381 270.754 382.975 268.598 388.202 267.535Z"/><path fill="white" transform="scale(2 2)" d="M388.202 270.305C398.574 269.937 410.028 270.509 420.568 270.284C427.04 270.445 444.118 267.241 444.096 275.49C444.073 283.775 446.81 321.792 441.175 325.16C437.03 325.563 388.554 325.322 386.832 324.726C380.829 322.648 383.84 274.014 384.569 272.485C385.132 271.305 387.057 270.733 388.202 270.305Z"/><path fill="#090909" transform="scale(2 2)" d="M386.071 272.692L442.153 272.692C442.417 278.396 443.13 319.828 441.175 322.825C437.186 323.786 420.982 322.818 415.998 322.816L397.622 322.843C393.744 322.887 389.925 323.171 386.071 322.825C385.853 320.467 386.042 316.592 386.051 314.073L386.042 282.107C386.011 279.304 385.806 275.341 386.071 272.692Z"/><path fill="white" transform="scale(2 2)" d="M206.362 326.214C203.016 329.575 159.183 327.946 152.092 327.837C142.817 327.694 143.777 318.63 143.772 312.167L143.767 297.526C143.767 277.939 137.934 267.553 159.354 267.526L192.812 267.524C196.035 267.525 203.352 266.913 205.784 268.855C209.803 271.588 209.725 274.229 209.698 278.749C209.65 286.724 212.364 322.88 206.362 326.214Z"/><path fill="#090909" transform="scale(2 2)" d="M206.362 326.214C203.016 329.575 159.183 327.946 152.092 327.837C142.817 327.694 143.777 318.63 143.772 312.167L143.767 297.526C143.767 277.939 137.934 267.553 159.354 267.526L192.812 267.524C196.035 267.525 203.352 266.913 205.784 268.855C206.172 271.042 210.951 273.47 208.577 278.188L208.023 278.57L207.267 278.372C206.448 275.677 207.591 271.796 204.523 270.305C188.859 269.119 168.302 270.177 152.358 270.37C147.476 270.43 147.149 273.198 146.779 277.56C146.887 291.38 146.549 305.42 146.911 319.237C147.161 328.751 168.838 325.173 176.602 325.172L195.623 325.169C198.375 325.17 201.842 325.379 204.523 325.16C207.287 323.763 206.343 319.247 207.317 316.875L207.877 316.553C212.131 317.958 206.749 323.968 206.362 326.214Z"/><path fill="#090909" transform="scale(2 2)" d="M205.784 268.855C209.803 271.588 209.725 274.229 209.698 278.749C209.65 286.724 212.364 322.88 206.362 326.214C206.749 323.968 212.131 317.958 207.877 316.553L207.317 316.875C206.343 319.247 207.287 323.763 204.523 325.16C208.221 314.091 206.375 286.769 206.199 273.853C206.189 273.126 204.868 270.911 204.523 270.305C207.591 271.796 206.448 275.677 207.267 278.372L208.023 278.57L208.577 278.188C210.951 273.47 206.172 271.042 205.784 268.855Z"/><path fill="#090909" transform="scale(2 2)" d="M194.716 272.692C197.274 272.61 201.954 272.135 204.086 273.233C205.093 275.024 205.208 316.62 203.758 322.143C202.502 323.238 163.421 322.828 158.391 322.825C156.19 322.77 151.139 322.906 149.411 321.877C148.427 319.214 148.563 278.811 148.844 272.692C153.47 272.484 159.604 272.673 164.377 272.676L194.716 272.692Z"/><path fill="#090909" transform="scale(2 2)" d="M309.997 267.535C317.86 267.314 367.764 263.606 368.354 272.837C369.354 288.502 368.699 304.632 368.714 320.362C368.718 324.163 365.306 327.045 361.991 327.9L328.315 327.906C314.724 327.92 303.054 332.342 303.153 315.992C303.236 302.422 302.981 288.875 303.185 275.316C303.258 270.459 305.272 268.436 309.997 267.535Z"/><path fill="white" transform="scale(2 2)" d="M308.201 270.305C325.547 269.475 344.394 270.812 361.855 270.432C368.596 270.286 365.639 315.613 365.394 320.809C365.3 322.794 363.947 324.076 362.473 325.16C360.088 325.377 356.534 325.196 354.007 325.181L320.32 325.167C315.508 325.172 306.587 327.291 306.29 320.316C306.049 314.669 304.189 273.165 308.201 270.305Z"/><path fill="#090909" transform="scale(2 2)" d="M340.592 272.692C344.521 272.695 360.417 272.239 362.941 273.166C365.175 277.258 363.789 321.147 362.785 322.266C360.257 323.257 336.647 322.834 332.283 322.825C328.618 322.834 310.603 323.28 308.726 322.233C307.94 319.463 307.883 275.214 308.654 273.164C309.958 272.342 336.892 272.687 340.592 272.692Z"/><path fill="#090909" transform="scale(2 2)" d="M73.2752 267.535C80.3728 267.501 123.45 266.765 126.744 268.222C135.699 272.183 132.287 309.696 131.675 318.825C131.337 323.871 129.838 326.178 124.841 327.9C109.343 328.079 93.7996 327.825 78.2985 327.894C69.7248 327.932 66.5543 326.464 66.4802 317.292C66.3663 303.178 66.143 289.014 66.5491 274.907C66.6712 270.663 69.3168 268.37 73.2752 267.535Z"/><path fill="white" transform="scale(2 2)" d="M74.2338 270.305C81.1953 270.302 122.826 269.568 126.117 270.9C131.163 272.943 129.017 312.304 128.632 318.655C128.394 322.567 127.76 324.16 123.706 325.16C116.23 325.166 75.5595 326.051 71.7287 324.157C67.1506 321.894 69.0525 283.359 69.415 277.078C69.6419 273.148 70.1029 271.324 74.2338 270.305Z"/><path fill="#090909" transform="scale(2 2)" d="M117.412 272.692C125.693 272.468 126.618 270.934 126.532 279.243C126.383 293.748 126.749 308.328 126.533 322.825C122.637 322.566 115.676 322.804 111.484 322.807L80.4884 322.825C78.7332 322.763 73.0832 322.859 72.0171 321.828C71.2778 317.569 71.1657 275.472 72.352 273.129C74.7643 272.475 84.884 272.683 88.0226 272.682L117.412 272.692Z"/><path fill="white" transform="scale(2 2)" d="M404.372 118.849C425.376 118.212 419.727 152.584 419.752 167.134C430.513 180.886 425.531 197.913 408.184 200.909C398.038 201.222 389.324 196.724 386.846 186.164C384.349 175.526 390.374 173.433 391.196 166.718C393.255 149.891 383.682 123.494 404.372 118.849Z"/><path fill="#090909" transform="scale(2 2)" d="M403.197 124.446C408.138 123.974 414.952 125.807 416.598 131.184C417.99 135.732 417.579 168.354 417.064 174.563C416.544 180.819 414.517 184.844 408.184 187.034C399.066 187.998 393.739 184.006 393.849 174.574C394.004 161.319 393.629 147.967 393.769 134.709C393.832 128.759 397.989 125.792 403.197 124.446Z"/></svg>