<?xml version="1.0" encoding="utf-8" ?><svg xmlns="http://www.w3.org/2000/svg" xmlns:xlink="http://www.w3.org/1999/xlink" width="1024" height="1536" viewBox="0 0 1024 1536"><path fill="#090909" transform="scale(2 2)" d="M254.854 18.2832L368.815 18.2832L368.815 745.014L269.024 745.048C243.14 745.074 249.422 737.934 249.483 713.555L249.483 662.5L249.483 261.109C214.094 261.489 177.55 261.786 142.137 261.109C159.864 231.4 177.516 200.636 195.597 171.239C212.532 198.114 230.859 234.452 249.483 259.047L249.53 40.2624C249.514 31.8774 246.703 23.4887 254.854 18.2832ZM252.573 49.9805C252.35 57.937 252.563 66.6025 252.567 74.6393L252.573 711.981C257.995 716.785 264.079 719.757 269.342 724.175L269.342 730.123L338.051 730.123L342.242 730.123C346.869 725.725 351.34 723.77 355.088 720.242C355.421 712.796 355.097 703.367 355.093 695.707L355.088 44.022C350.915 40.3605 346.457 35.1175 342.242 32.1817L270.601 32.1817C268.344 43.6097 264.157 47.3444 252.573 49.9805Z"/><path fill="#090909" transform="scale(2 2)" d="M289.345 38.4987C306.084 38.5029 323.737 38.1871 340.416 38.4987C343.238 41.6332 346.63 43.821 349.349 47.2624L349.349 716.772C347.954 718.31 342.326 722.626 340.416 724.175L275.53 724.175C272.858 719.33 270.506 717.332 265.752 714.79C272.898 714.611 280.724 714.78 287.922 714.79C287.567 706.575 287.916 695.61 287.922 687.173L256.362 687.173C256.043 681.44 256.336 672.644 256.362 666.679L287.922 666.679C288.414 660.322 287.936 645.734 287.922 638.715L256.362 638.715C256.335 631.966 256.238 625.047 256.362 618.314L287.922 618.314C287.906 610.214 288.436 597.871 287.922 590.254L256.362 590.254C256.332 583.344 256.212 576.179 256.362 569.293L287.922 569.293L287.922 541.877L264.533 541.877L256.362 541.877L256.362 521.341L287.922 521.341C288.001 519.371 287.94 517.229 287.922 515.244L256.362 515.244L256.362 498.375L287.922 498.375L287.922 470.904L256.362 470.904L256.362 449.066L287.922 449.066L287.922 421.463L256.362 421.463C256.336 414.749 256.264 407.967 256.362 401.261L287.922 401.261L287.922 372.459C277.447 372.475 266.819 372.292 256.362 372.459C256.247 365.86 256.36 358.911 256.362 352.283L287.922 352.283C287.899 343.046 288.303 332.24 287.922 323.249L256.362 323.249L256.362 304.522L287.922 304.522L287.922 298.32C277.496 298.168 266.807 298.303 256.362 298.32L256.362 280.624L287.922 280.624L287.922 252.708L256.362 252.708C256.261 246.559 256.36 240.129 256.362 233.957C266.691 233.977 277.708 233.649 287.922 233.957L287.922 205.981L256.362 205.981C256.157 199.2 256.356 191.374 256.362 184.509L287.922 184.509L287.922 156.02C277.46 156.032 266.8 155.861 256.362 156.02L256.362 139.779L287.922 139.779L287.922 133.425L256.362 133.425L256.362 112.509L287.922 112.509C287.794 103.681 287.921 94.5277 287.922 85.6722C277.679 85.9634 266.753 85.4841 256.362 85.6722L256.362 66.3727L287.922 66.3727C287.91 62.8488 287.498 40.292 288.394 38.7025L289.345 38.4987Z"/><path fill="#090909" transform="scale(2 2)" d="M269.342 329.817L282.242 329.817C282.269 335.257 282.326 340.719 282.242 346.156L270.601 346.156L256.362 346.156L256.362 329.817L269.342 329.817Z"/><path fill="#090909" transform="scale(2 2)" d="M256.362 162.35L282.242 162.35C282.277 167.696 282.36 173.106 282.242 178.446L256.362 178.446L256.362 162.35Z"/><path fill="#090909" transform="scale(2 2)" d="M279.923 379.073C284.629 378.449 282.27 390.187 282.242 394.798L259.095 394.798C254.129 394.949 256.341 383.962 256.362 379.073L279.923 379.073Z"/><path fill="#090909" transform="scale(2 2)" d="M256.362 211.869L282.242 211.869C282.39 216.787 282.247 222.656 282.242 227.641C280.274 227.814 275.682 227.669 273.562 227.666L256.362 227.641L256.362 211.869Z"/><path fill="#090909" transform="scale(2 2)" d="M272.688 693.634C275.818 693.511 279.1 693.601 282.242 693.634L282.242 708.932L265.752 708.932L256.362 708.932C256.223 703.983 256.344 698.613 256.362 693.634L272.688 693.634Z"/><path fill="#090909" transform="scale(2 2)" d="M256.362 259.047L282.242 259.047C282.224 264.171 282.463 269.427 282.242 274.532C274.114 274.778 264.629 274.491 256.362 274.532C256.133 270.103 256.344 263.628 256.362 259.047Z"/><path fill="#090909" transform="scale(2 2)" d="M256.362 645.352L282.242 645.352C282.284 650.411 282.4 655.663 282.242 660.705L256.362 660.705L256.362 645.352Z"/><path fill="#090909" transform="scale(2 2)" d="M256.362 596.583L282.242 596.583L282.242 611.894C273.635 611.876 264.963 611.804 256.362 611.894C256.25 606.987 256.357 601.527 256.362 596.583Z"/><path fill="#090909" transform="scale(2 2)" d="M256.362 477.26L282.242 477.26L282.242 492.235L256.362 492.235L256.362 477.26Z"/><path fill="#090909" transform="scale(2 2)" d="M256.362 548.251L282.242 548.251C282.227 553.228 282.434 558.25 282.242 563.222L256.362 563.222C256.05 558.857 256.263 552.732 256.362 548.251Z"/><path fill="#090909" transform="scale(2 2)" d="M256.362 427.857L282.242 427.857C282.259 432.77 282.294 437.694 282.242 442.607C274.434 442.92 264.378 442.566 256.362 442.607L256.362 427.857Z"/><path fill="#090909" transform="scale(2 2)" d="M256.362 92.2819L282.242 92.2819L282.242 106.575L256.362 106.575L256.362 92.2819Z"/><path fill="#090909" transform="scale(2 2)" d="M275.53 38.4987C277.592 38.4065 280.142 38.4886 282.242 38.4987C282.264 45.7272 282.332 53.0204 282.242 60.2421L264.533 60.2421L256.362 60.2421C256.259 58.4428 256.332 56.4677 256.362 54.6515C266.44 52.7461 271.207 47.2005 275.53 38.4987Z"/><path fill="#090909" transform="scale(2 2)" d="M173.813 266.92C189.784 266.557 207.145 266.909 223.223 266.92L223.222 608.463C223.222 614.823 223.438 683.286 223.223 683.79L173.813 683.79L173.813 266.92Z"/></svg>