<?xml version="1.0" encoding="utf-8" ?><svg xmlns="http://www.w3.org/2000/svg" xmlns:xlink="http://www.w3.org/1999/xlink" width="1024" height="1024" viewBox="0 0 1024 1024"><path fill="#090909" transform="scale(2 2)" d="M127.477 100.36C139.836 93.6554 156.48 88.5477 169.854 84.1864C281.062 47.922 400.92 88.7321 479.249 173.541C482.789 177.374 486.723 181.173 489.373 185.663C497.307 203.638 464.8 230.213 456.89 219.932C391.079 134.4 268.282 90.957 167.197 135.588L164.058 136.988C155.304 127.721 140.159 115.37 133.195 106.231C155.834 90.4227 222.992 78.3986 249.147 78.795C248.376 78.1499 246.399 78.8604 244.908 78.4099C250.704 77.8759 253.189 77.4346 245.908 76.8313C212.896 76.051 168.92 87.9513 139.233 100.496C136.756 101.542 133.423 103.286 130.94 104.048C129.301 102.825 128.552 102.186 127.477 100.36ZM270.027 78.795C349.468 82.576 429.277 126.341 480.97 186.462C485.43 191.649 483.544 194.999 480.64 200.314L481.739 200.314C485.987 193.78 485.916 190.506 480.754 184.671C427.129 124.065 351.557 82.0589 270.027 76.8313L269.956 77.1156L270.265 77.3763L270.369 78.5242L270.027 78.795Z"/><path fill="#EDECEE" transform="scale(2 2)" d="M245.908 76.8313C248.662 76.3267 268.381 76.0229 270.027 76.8313L269.956 77.1156L270.265 77.3763L270.369 78.5242L270.027 78.795L249.147 78.795C248.376 78.1499 246.399 78.8604 244.908 78.4099C250.704 77.8759 253.189 77.4346 245.908 76.8313Z"/><path fill="#EDECEE" transform="scale(2 2)" d="M480.64 200.314L481.739 200.314C476.969 208.131 466.096 219.506 455.938 214.448C469.06 215.81 472.423 208.92 480.64 200.314Z"/><path fill="#090909" transform="scale(2 2)" d="M30.2068 19.3311C37.2761 20.1503 40.6433 25.3448 45.42 30.1298L442.674 425.95C457.563 441.3 473.558 455.662 487.946 471.493C494.945 479.194 488.964 489.362 479.22 490.558C473.657 490.072 465.156 479.738 461.177 475.688L50.4039 66.2335C40.8912 56.6809 31.0613 47.4343 21.6492 37.79C14.3056 30.2653 20.7036 20.7852 30.2068 19.3311Z"/><path fill="#090909" transform="scale(2 2)" d="M251.015 332.624C280.897 330.109 307.128 352.366 309.514 382.258C311.899 412.15 289.53 438.285 259.628 440.541C229.908 442.784 203.966 420.58 201.595 390.87C199.224 361.16 221.316 335.123 251.015 332.624ZM206.19 381.214C206.696 378.851 207.227 376.417 207.964 374.118C219.777 337.305 268.889 327.309 293.958 355.759L294.763 355.759C277.495 333.488 245.196 331.794 223.362 348.673C214.743 355.336 205.547 369.951 206.19 381.214L206.19 381.214Z"/><defs><linearGradient id="gradient_0" gradientUnits="userSpaceOnUse" x1="304.98694" y1="370.56766" x2="300.30832" y2="369.69083"><stop offset="0" stop-color="#6A6A68"/><stop offset="1" stop-color="#93969B"/></linearGradient></defs><path fill="url(#gradient_0)" transform="scale(2 2)" d="M301.473 364.828C303.672 369.827 304.735 371.762 304.851 377.267C304.148 375.461 301.715 368.215 301.473 366.495C301.521 366.048 301.481 365.302 301.473 364.828Z"/><defs><linearGradient id="gradient_1" gradientUnits="userSpaceOnUse" x1="301.90994" y1="364.55453" x2="296.64395" y2="360.5462"><stop offset="0" stop-color="#939392"/><stop offset="1" stop-color="#C8CACB"/></linearGradient></defs><path fill="url(#gradient_1)" transform="scale(2 2)" d="M297.437 359.201C298.942 360.426 300.533 363.055 301.473 364.828C301.481 365.302 301.521 366.048 301.473 366.495C299.541 363.973 298.296 361.893 296.639 359.201L297.437 359.201Z"/><path fill="white" transform="scale(2 2)" d="M294.763 355.759C296 356.602 296.672 357.906 297.437 359.201L296.639 359.201C295.762 358.05 294.849 356.901 293.958 355.759L294.763 355.759Z"/><path fill="#A1A5AC" transform="scale(2 2)" d="M206.19 381.214L206.19 381.214C205.903 383.164 205.215 386.103 204.609 387.953C204.826 384.762 204.965 384.159 206.19 381.214Z"/><path fill="#090909" transform="scale(2 2)" d="M252.487 126.878C324.838 124.603 394.146 160.398 441.723 213.545C444.958 217.158 448.85 221.317 451.101 225.536C450.295 237.214 436.514 238.564 435.86 240.504L436.443 240.83C443.327 240.969 451.208 232.513 452.593 225.536C465.3 232.133 447.043 247.834 435.521 247.12C428.772 246.702 424.986 241.175 421.166 236.667L414.609 229.046C363.009 171.811 285.898 144.781 209.77 161.919C206.851 162.576 196.558 165.075 194.201 166.372C188.369 161.295 175.139 148.941 171.097 143.377C191.066 132.266 230.255 127.806 252.487 126.878Z"/><path fill="#090909" transform="scale(2 2)" d="M219.429 191.092C276.19 182.397 328.314 193.044 374.55 227.698C386.244 236.462 399.774 250.473 407.647 262.362C416.557 275.828 399.294 292.077 387.746 293.628C377.981 294.939 373.844 285.373 367.914 279.66C340.101 250.275 298.927 230.131 258.091 230.184C247.345 219.934 235.916 208.847 225.795 198.073C232.528 195.276 255.118 194.481 262.889 194.937C303.255 197.305 342.914 212.036 374.799 236.971C378.943 240.211 382.616 244.215 386.927 247.499C387.104 246.871 387.076 247.127 386.927 246.45C347.471 206.538 277.707 184.453 222.29 194.927C221.151 193.575 220.432 192.553 219.429 191.092Z"/><path fill="white" transform="scale(2 2)" d="M403.619 266.814C403.964 267.432 403.949 267.467 404.187 268.147L403.792 268.257L404.014 268.47L404.256 268.423L404.499 268.003L403.975 267.758L404.493 267.692L404.033 267.791C403.965 267.012 403.812 266.52 403.678 265.756L403.619 265.409C410.65 274.175 390.619 287.096 387.088 286.055L387.078 285.711C394.181 280.228 403.436 280.279 403.619 266.814Z"/><path fill="white" transform="scale(2 2)" d="M386.927 246.45C390.681 250.289 392.997 252.942 396.357 257.109L396.357 258.747C394.585 256.554 387.665 248.917 386.927 247.499C387.104 246.871 387.076 247.127 386.927 246.45Z"/><path fill="#EDECEE" transform="scale(2 2)" d="M396.357 257.109C397.817 258.788 403.105 264.038 403.619 265.409L403.678 265.756C403.812 266.52 403.965 267.012 404.033 267.791L404.493 267.692L403.975 267.758L404.499 268.003L404.256 268.423L404.014 268.47L403.792 268.257L404.187 268.147C403.949 267.467 403.964 267.432 403.619 266.814C401.161 264.403 399.23 261.341 396.357 258.747L396.357 257.109Z"/><path fill="#090909" transform="scale(2 2)" d="M175.512 205.752C177.02 206.303 177.566 207.421 178.449 208.726C152.467 222.511 137.024 231.688 116.738 254.131C106.831 265.091 101.431 270.787 114.937 283.09C119.335 287.095 119.611 287.897 125.521 290.263C120.114 286.311 105.045 273.222 111.365 265.522C124.618 249.375 160.918 215.211 182.116 211.018C185.03 213.897 187.874 216.489 190.258 219.828C193.664 222.083 206.279 235.064 208.843 238.608C180.199 248.319 156.342 265.947 136.691 288.433C126.98 299.545 116.363 291.579 108.617 283.266C96.5766 270.345 102.901 262.068 113.148 251C131.223 231.479 150.771 215.987 175.512 205.752Z"/><path fill="#090909" transform="scale(2 2)" d="M228.329 260.389C229.087 260.163 229.661 260.317 230.497 260.389C231.674 261.476 232.18 262.186 233.153 263.456L227.501 264.629C200.675 270.464 174.108 284.221 157.69 306.802C149.78 317.68 168.783 332.825 174.115 331.421C173.286 330.593 171.017 329.987 170.003 329.002C161.678 320.91 152.79 315.237 161.815 304.91C178.394 285.937 208.958 267.631 234.84 265.409C238.601 267.055 244.106 273.74 248.187 276.763C251.614 281.862 264.873 293.89 270.027 299.105C264.943 297.308 257.016 297.198 251.533 297.41C223.805 298.482 201.06 310.631 183.28 331.229C176.818 338.714 167.422 337.052 161.067 330.405C146.18 314.832 147.511 308.642 162.679 293.914C177.707 279.323 206.195 260.089 228.329 260.389Z"/><path fill="#090909" transform="scale(2 2)" d="M93.1631 123.971C93.9807 124.332 96.4695 126.268 97.27 126.878C92.3979 130.811 86.0703 133.783 80.7936 137.727C66.1417 148.679 39.518 170.669 29.1495 186.337C21.3099 198.183 44.8526 214.797 52.5791 222.671C56.9354 227.11 69.7365 244.253 75.5978 243.95L75.8667 243.647C71.0196 239.925 63.5219 231.56 59.162 226.788C60.6855 222.951 65.2579 218.358 68.1075 215.156C84.1317 197.151 110.871 173.465 133.195 162.685C134.824 164.47 137.031 166.395 138.838 168.056C144.75 173.659 150.217 179.796 156.003 185.285C151.509 188.443 146.387 190.884 141.713 193.811C125.357 204.054 110.339 215.802 97.2625 229.997C90.9606 236.838 82.1346 251.706 70.8636 247.868C65.8836 246.172 54.2385 231.348 49.7414 226.683C42.1662 218.826 28.3991 208.787 24.0905 199.503C17.8517 186.061 32.0806 175.059 40.5954 166.5C50.5767 156.468 79.8956 130.171 93.1631 123.971Z"/><path fill="#090909" transform="scale(2 2)" d="M99.1078 129.433C101.701 130.159 124.275 153.948 126.61 156.749C105.567 164.851 69.2212 200.242 55.3229 216.759C54.4626 217.801 53.5551 218.813 52.6624 219.828L40.7746 207.92C36.8562 204.058 25.2004 194.233 31.2467 187.652C53.5653 163.36 73.9241 148.767 99.1078 129.433Z"/><path fill="#090909" transform="scale(2 2)" d="M253.681 307.459C261.026 307.046 274.525 307.771 280.792 310.79C285.079 312.855 312.268 340.207 317.093 345.798C314.989 348.009 312.064 349.984 309.865 352.359C294.618 327.256 274.17 323.727 248.187 322.994C231.202 326.207 219.132 331.218 206.428 343.761C203.197 346.951 200.704 352.038 197.705 354.782C194.004 350.808 190.293 347.367 186.457 343.548C199.94 321.172 228.302 308.389 253.681 307.459Z"/><path fill="#090909" transform="scale(2 2)" d="M288.481 258.747C291.346 258.743 296.628 260.845 299.432 261.904C314.912 267.748 375.492 296.205 359.173 320.132C357.648 322.106 357.468 322.41 355.079 322.994C349.166 318.956 340.626 309.49 335.077 303.944C330.44 299.309 290.103 261.634 288.481 258.747Z"/><path fill="white" transform="scale(2 2)" d="M299.457 267.779C313.385 271.418 338.76 288.76 348.624 298.137C353.223 302.51 358.544 306.128 356.261 313.202L355.961 313.224C355.223 312.671 355.958 308.076 354.853 306.681C344.308 293.366 329.427 284.107 314.802 275.906C310.578 273.538 302.549 270.799 299.457 267.779Z"/></svg>