<?xml version="1.0" encoding="utf-8" ?><svg xmlns="http://www.w3.org/2000/svg" xmlns:xlink="http://www.w3.org/1999/xlink" width="1024" height="1024" viewBox="0 0 1024 1024"><path transform="scale(2 2)" d="M248.888 30.526C354.953 29.5518 441.69 93.5647 470.396 196.885C471.736 201.709 473.22 207.425 468.302 210.804L435.117 233.202C427.804 238.068 412.944 251.934 406.303 237.069C404.648 233.366 404.578 229.38 403.995 225.453C391.445 140.903 304.486 89.283 222.411 106.829C212.111 109.093 204.001 111.899 194.305 115.797C169.925 126.116 149.57 141.702 134.385 163.626C131.762 167.414 128.703 170.956 127.071 175.299C136.155 177.57 166.944 184.352 153.443 199.35C151.979 200.976 144.825 205.368 142.814 206.727L87.4432 244.164C77.8902 250.629 68.3909 257.109 58.7372 263.431C43.5121 273.403 40.9032 242.217 39.1604 234.391L23.0403 164.114C21.7442 158.406 18.7756 149.556 20.1343 143.912C24.0604 128.628 50.8281 144.009 59.9043 147.237C99.1927 72.9372 166.823 35.4063 248.888 30.526ZM63.1863 155.078C57.8572 153.023 33.3964 143.228 28.7847 142.767C22.6284 145.906 29.0221 163.64 30.1733 168.628L48.4804 248.953C49.3164 252.828 49.4475 256.866 50.3294 260.577C51.3251 261.611 51.8158 262.179 53.0314 262.991C58.6747 262.706 62.4566 259.049 67.0031 255.993L135.001 210.057C140.1 206.584 162.374 195.573 152.135 186.755C150.475 185.325 124.02 176.726 119.653 175.299C130.224 151.795 160.124 124.254 182.853 113.778C189.066 110.336 195.728 107.978 202.441 105.688C289.495 75.9986 391.206 124.781 409.407 218.019C410.84 225.362 409.342 235.915 416.83 237.336C420.593 236.318 427.139 231.269 430.575 228.893L444.432 219.463C450.011 215.687 460.746 208.936 465.481 205.015C445.312 116.067 368.497 46.1329 276.658 38.3809C269.711 37.784 259.924 37.009 253 37.4896C175.856 38.5459 103.733 79.5607 67.258 147.816C66.0092 150.153 64.7763 152.993 63.1863 155.078Z"/><path transform="scale(2 2)" d="M253 39.875C257.279 39.4052 265.332 39.865 269.763 40.1114C362.603 45.2745 437.91 109.975 461.867 198.798C459.818 200.972 454.82 204.115 452.133 205.899L424.153 224.608C420.666 226.938 417.431 229.227 413.687 231.132C412.161 225.471 411.401 217.402 409.946 211.387C384.593 111.639 277.489 61.5326 182.853 105.258C156.694 117.372 121.285 147.705 112.915 176.955C124.178 181.045 136.195 185.489 147.565 189.246C145.546 191.278 142.368 193.24 139.953 194.905L62.4948 247.601C58.9004 250.059 54.9849 252.222 51.7727 255.163C49.7312 248.594 48.9371 243.465 47.3963 236.832L31.0492 165.152C27.0236 147.63 22.332 142.159 40.0294 148.754L53.7739 153.835C57.5339 155.256 61.7609 156.971 65.5533 158.089C101.258 84.4903 172.449 42.0326 253 39.875Z"/><path transform="scale(2 2)" d="M434.222 261.586C439.42 257.103 445.559 253.379 450.978 248.821C454.776 245.625 460.647 240.794 465.161 246.337C468.07 249.91 473.311 280.074 474.909 286.77L492.366 361.999C493.946 370.213 488.285 378.269 480.002 375.391C470.769 372.184 461.54 368.422 452.259 365.219C395.451 472.837 256.733 511.945 150.8 454.663C99.2271 427.233 61.5016 378.436 44.1196 323.111C37.0079 300.475 45.3201 300.798 62.1271 289.259L76.4778 279.356C88.5047 270.978 99.6666 265.118 103.916 284.14C129.849 417.336 312.245 453.308 386.378 337.662L386.567 337.364C380.172 335.237 361.341 329.85 358.359 324.4C354.199 316.794 361.147 310.358 367.759 307.627L420.911 271.215C425.371 268.136 429.8 264.535 434.222 261.586ZM368.538 309.405C366.678 312.538 358.646 312.336 362.258 320.407C364.246 324.851 390.336 332.056 395.925 334.504C385.84 345.963 380.522 358.332 367.48 370.303C276.971 453.385 131.959 412.064 99.6506 294.947C98.1936 289.665 98.0875 274.58 90.1127 278.361C86.5057 280.071 82.9525 282.913 79.5623 285.26L62.3056 297.163C43.5242 310.013 44.8373 307.903 53.7815 332.33C78.5613 399.908 135.366 452.038 205.343 468.926C288.251 488.934 383.109 456.586 431.747 385.588C438.068 376.362 444.049 367.642 448.849 357.48C454.876 360.124 481.852 369.673 484.332 369.597C489.149 367.013 482.978 351.057 481.904 346.306L468.997 289.866C467.715 284.174 460.894 250.541 458.759 249.579C455.281 249.733 439.805 260.582 436.302 262.991L385.331 297.737C380.188 301.222 373.851 306.676 368.538 309.405Z"/><path transform="scale(2 2)" d="M458.835 256.412C460.524 258.441 467.786 291.592 468.925 296.375L477.395 333.372C479.598 343.025 481.787 351.92 483.735 361.732C480.916 361.064 477.453 359.727 474.679 358.732L461.58 354.033C457.764 352.668 448.408 349.678 445.206 348.128C424.101 395.624 383.772 432.077 336.018 451.328C226.823 495.346 99.0461 444.959 56.6537 334.504C53.6724 327.396 49.3353 316.334 50.3294 308.644C52.8995 304.721 64.8369 298.14 69.1741 295.205C72.805 292.748 90.1426 278.712 93.809 280.686C95.0082 282.691 97.6432 294.466 98.5309 297.578C134.981 427.821 314.133 461.25 391.149 345.415C394.365 340.578 397.25 335.302 400.091 330.163C391.486 325.552 378.182 323.309 370.895 318.865C374.283 317.149 378.629 313.775 381.871 311.506L437.548 272.042C443.541 267.775 453.539 261.024 458.835 256.412Z"/><path transform="scale(2 2)" d="M367.759 307.627L420.911 271.215C425.371 268.136 429.8 264.535 434.222 261.586L434.587 262.016L434.209 262.689C435.215 262.582 435.43 262.478 436.302 262.991L385.331 297.737C380.188 301.222 373.851 306.676 368.538 309.405C368.685 308.153 369.11 308.426 367.759 307.627Z"/></svg>