<?xml version="1.0" encoding="utf-8" ?><svg xmlns="http://www.w3.org/2000/svg" xmlns:xlink="http://www.w3.org/1999/xlink" width="1024" height="1024" viewBox="0 0 1024 1024"><path transform="scale(2 2)" d="M220.928 81.7218C220.302 86.0505 219.966 92.1906 219.625 96.6173L215.873 140.451C215.266 146.572 214.478 153.086 214.729 159.195L301.551 159.187C316.689 159.188 329.274 159.4 344.065 163.49C391.788 176.687 434.106 210.305 459.894 252.264C495.565 310.3 483.923 369.221 437.07 415.97C433.259 419.787 427.241 426.015 422.712 428.686C447.673 375.799 426.628 320.702 381.84 286.582C364.153 272.527 338.583 257.099 315.315 257.131L216.377 257.147C215.794 268.842 218.827 289.152 219.735 301.556C220.203 307.952 221.397 316.194 220.928 322.453C217.376 319.71 214.183 317.943 210.385 315.605L40.9535 211.752C37.9851 209.927 35.12 208.027 32.0243 206.422C44.002 198.652 55.4519 190.524 67.3071 182.628L170.657 114.347C186.754 103.899 204.223 90.7118 220.928 81.7218Z"/><path transform="scale(2 2)" d="M230.75 269.966L230.743 270.396C230.699 274.293 231.56 281.828 231.925 286.021L234.019 311.485C234.64 318.884 236.796 328.186 230.782 333.849C222.983 341.194 214.909 333.705 208.038 329.452L31.8191 221.572C15.4198 211.363 12.4608 203.408 29.7254 192.005L209.361 73.148C216.117 68.7896 223.918 61.5642 231.249 70.3753C236.3 76.4462 233.303 90.3621 232.652 97.6463L229.694 130.69C229.262 135.709 228.687 141.002 228.425 146.011L287.383 146.006C305.599 146.006 323.479 145.076 341.313 149.604C407.621 166.439 465.197 217.899 487.247 282.933C504.046 335.852 482.679 388.781 444.36 426.712C411.478 459.262 409.127 432.799 414.291 429.913C416.455 429.565 417.11 429.537 417.208 431.836C418.224 433.368 418.586 433.713 420.079 434.81C425.541 433.081 433.635 425.286 437.901 421.119C471.206 388.681 492.929 340.96 481.612 294.189C465.323 226.87 394.179 163.996 325.277 156.244C311.356 154.678 294.776 155.316 280.523 155.315L218.582 155.323C219.27 146.818 226.709 79.9666 224.389 75.6465C223.525 74.0359 218.073 78.0109 215.922 79.4331L40.8953 195.339C38.77 196.778 24.8414 204.39 27.342 207.669C30.043 211.211 61.7658 229.216 68.652 233.447L215.878 323.712C217.995 325.007 222.871 329.472 225.184 327.437C226.685 323.542 224.305 304.205 223.798 298.731L220.357 261.258L314.593 261.235C317.065 261.218 323.915 260.863 325.944 261.478C377.431 277.112 428.736 322.609 429.661 379.774C429.725 383.69 429.356 387.405 429.543 391.365L429.171 391.022C426.356 392.942 427.124 388.435 426.603 391.365C425.831 331.418 377.134 288.869 323.722 270.144C322.553 269.734 316.46 269.944 314.9 269.949L230.75 269.966Z"/><path transform="scale(2 2)" d="M414.291 429.913C419.866 425.24 423.344 412.402 425.547 405.256L426.603 405.256C425.744 416.561 419.378 422.993 417.208 431.836C417.11 429.537 416.455 429.565 414.291 429.913Z"/><path transform="scale(2 2)" d="M426.603 391.365C427.124 388.435 426.356 392.942 429.171 391.022L429.543 391.365C428.739 395.825 427.936 401.004 426.603 405.256L425.547 405.256C426.588 401.044 426.665 395.728 426.603 391.365Z"/></svg>