<?xml version="1.0" encoding="utf-8" ?><svg xmlns="http://www.w3.org/2000/svg" xmlns:xlink="http://www.w3.org/1999/xlink" width="1024" height="1024" viewBox="0 0 1024 1024"><path fill="#090909" transform="scale(2 2)" d="M248.266 18.738C274.841 18.9306 294.621 20.9137 319.974 30.8778C389.062 58.0303 435.98 130.702 429.689 204.965C428.76 212.187 426.005 219.319 424.173 226.265C401.681 311.79 333.133 404.636 279.164 473.265C274.356 479.379 269.643 487.872 262.315 491.141C247.133 496.761 241.154 483.308 233.308 473.405C172.722 396.945 115.616 314.941 86.5098 220.81C80.7254 202.103 82.6463 205.933 82.2341 187.623C85.9458 106.613 138.664 40.5993 218.348 22.5348C228.522 20.2282 237.991 19.6831 248.266 18.738Z"/><path fill="#EDECEE" transform="scale(2 2)" d="M136.268 314.828C125.003 295.886 110.72 266.006 103.888 245.83C101.891 240.018 101.129 233.899 99.7894 227.942C84.2969 159.056 112.025 90.4102 173.171 54.2159C298.984 -20.2564 449.496 95.4632 410.72 233.543C407.348 245.552 404.422 257.514 399.661 269.133C383.624 307.917 360.35 343.528 337.504 378.578C336.159 380.641 333.737 384.524 332.118 386.246C331.655 387.543 327.552 393.052 326.378 394.705C309.561 418.388 291.993 441.862 272.868 463.736C266.271 470.544 258.924 485.782 248.487 474.367C212.946 435.495 173.795 381.059 147.909 334.91C144.125 328.166 139.789 321.76 136.268 314.828Z"/><path fill="#090909" transform="scale(2 2)" d="M190.678 331.522C115.366 296.525 81.01 208.397 112.763 131.661C144.517 54.9255 231.1 16.8423 309.12 45.2946C387.14 73.7469 428.881 158.627 403.781 237.79C378.682 316.952 295.658 362.274 215.498 340.573C206.982 338.268 198.679 335.24 190.678 331.522Z"/><path fill="#090909" transform="scale(2 2)" d="M147.909 157.413C162.479 110.53 205.573 78.3549 254.663 77.7068C303.754 77.0588 347.682 108.085 363.484 154.567C378.466 198.634 364.989 247.38 329.499 277.492C292.877 308.564 240.649 313.186 199.14 289.028C185.908 281.327 174.374 271.026 165.232 258.745C158.123 249.197 152.563 238.588 148.756 227.31C141.118 204.682 140.821 180.219 147.909 157.413Z"/><path fill="#EDECEE" transform="scale(2 2)" d="M147.909 157.413C162.479 110.53 205.573 78.3549 254.663 77.7068C303.754 77.0588 347.682 108.085 363.484 154.567C362.746 155.173 362.864 154.846 362.645 155.564L362.786 156.192L362.398 156.701L361.518 156.708C361.256 157.175 361.225 157.223 361.022 157.728C354.598 134.142 332.047 107.133 310.791 95.2459C255.929 64.5657 192.007 83.5865 160.137 137.164C156.732 142.889 151.653 155.006 150.595 161.297L150.204 161.155C150.049 161.297 147.992 161.919 147.182 162.505C146.632 161.445 148.321 159.322 147.909 157.413Z"/><path fill="#EDECEE" transform="scale(2 2)" d="M148.756 227.31C149.763 225.718 148.878 225.009 149.606 222.885L149.887 222.849L150.215 223.718L150.595 223.687C152.771 228.863 154.034 233.684 156.635 239.166C157.991 242.024 161.356 247.507 162.15 249.411C175.581 269.216 182.072 274.306 201.247 287.402C203.376 288.115 207.747 290.857 210.255 291.977C243.324 306.752 282.564 304.921 313.426 285.619C319.211 282.001 323.185 278.645 328.583 274.641L329.056 274.728C329.608 274.291 329.869 273.981 330.509 273.769L330.16 273.94C329.962 274.623 329.02 275.587 328.535 276.183L328.606 276.514L329.661 276.805C329.61 277.083 329.605 277.234 329.499 277.492C292.877 308.564 240.649 313.186 199.14 289.028C185.908 281.327 174.374 271.026 165.232 258.745C158.123 249.197 152.563 238.588 148.756 227.31Z"/><path fill="white" transform="scale(2 2)" d="M361.022 157.728C361.225 157.223 361.256 157.175 361.518 156.708L362.398 156.701L362.786 156.192L362.645 155.564C362.864 154.846 362.746 155.173 363.484 154.567C378.466 198.634 364.989 247.38 329.499 277.492C329.605 277.234 329.61 277.083 329.661 276.805L328.606 276.514L328.535 276.183C329.02 275.587 329.962 274.623 330.16 273.94L330.509 273.769C329.869 273.981 329.608 274.291 329.056 274.728L328.583 274.641C330.839 272.049 334.164 269.23 336.68 266.593C363.918 238.04 373.185 195.416 361.022 157.728Z"/><path fill="white" transform="scale(2 2)" d="M147.909 157.413C148.321 159.322 146.632 161.445 147.182 162.505C147.992 161.919 150.049 161.297 150.204 161.155L150.595 161.297C142.756 182.179 146.084 202.857 150.595 223.687L150.215 223.718L149.887 222.849L149.606 222.885C148.878 225.009 149.763 225.718 148.756 227.31C141.118 204.682 140.821 180.219 147.909 157.413Z"/><path fill="white" transform="scale(2 2)" d="M252.525 84.2126C311.714 82.252 361.268 128.683 363.159 187.875C365.051 247.066 318.562 296.566 259.368 298.388C200.272 300.207 150.872 253.812 148.984 194.718C147.096 135.624 193.433 86.1699 252.525 84.2126Z"/><path fill="#090909" transform="scale(2 2)" d="M256.658 113.892C261.033 116.558 299.734 185.972 304.355 200.507C314.369 232.002 289.36 264.833 256.658 265.861C221.537 266.305 196.732 230.797 209.332 198.004C215.044 183.14 244.277 125.512 256.658 113.892Z"/><path fill="white" transform="scale(2 2)" d="M216.76 208.708C220.327 209.015 219.331 211.302 219.512 214.055C220.331 231.242 229.869 246.003 247.077 250.964C249.738 251.731 253.599 254.746 250.022 256.817C231.874 256.744 214.995 233.633 214.652 216.131C214.592 213.068 213.395 210.285 216.76 208.708Z"/><path fill="#090909" transform="scale(2 2)" d="M398.225 264.228C398.543 264.779 398.85 265.291 399.137 265.861C384.886 303.015 359.29 340.728 338.131 374.122C336.434 376.833 333.531 380.481 332.118 383.214L332.287 383.549C331.29 385.218 327.128 390.079 327.588 391.473C329.047 390.871 330.915 386.829 331.974 385.879L332.118 386.246C331.655 387.543 327.552 393.052 326.378 394.705C309.561 418.388 291.993 441.862 272.868 463.736C266.271 470.544 258.924 485.782 248.487 474.367C212.946 435.495 173.795 381.059 147.909 334.91C144.125 328.166 139.789 321.76 136.268 314.828C136.973 314.456 136.599 314.591 137.512 314.655L137.683 314.459C137.017 313.238 135.931 311.418 135.838 310.083L136.268 309.965C129.337 297.388 122.559 284.512 116.827 271.315C117.007 271.088 117.093 271.078 117.355 270.912L118.225 271.315C131.601 293.23 162.58 326.817 188.242 334.898C198.379 339.73 206.315 342.018 216.76 345.297C222.485 346.162 228.23 347.671 234.045 348.53C302.741 358.68 365.146 323.552 398.225 264.228Z"/><path fill="white" transform="scale(2 2)" d="M136.268 314.828C136.973 314.456 136.599 314.591 137.512 314.655L137.683 314.459C137.017 313.238 135.931 311.418 135.838 310.083L136.268 309.965C138.36 316.096 146.037 328.055 149.504 334.087C173.622 376.019 206.899 424.355 239.296 461.108C242.072 464.258 252.754 479.695 257.888 476.648C266.32 471.643 295.727 432.938 302.437 424.309C305.123 420.854 331.986 383.306 332.118 383.214L332.287 383.549C331.29 385.218 327.128 390.079 327.588 391.473C329.047 390.871 330.915 386.829 331.974 385.879L332.118 386.246C331.655 387.543 327.552 393.052 326.378 394.705C309.561 418.388 291.993 441.862 272.868 463.736C266.271 470.544 258.924 485.782 248.487 474.367C212.946 435.495 173.795 381.059 147.909 334.91C144.125 328.166 139.789 321.76 136.268 314.828Z"/><path fill="white" transform="scale(2 2)" d="M190.678 331.522C198.679 335.24 206.982 338.268 215.498 340.573L215.21 340.878C212.957 340.197 199.637 335.19 198.396 335.143C198.223 336.999 205.79 338.265 207.151 339.552L207.248 340.054C206.092 340.626 201.475 338.485 200.23 339.496C201.232 340.341 214.132 343.636 216.657 344.874L216.76 345.297C206.315 342.018 198.379 339.73 188.242 334.898C193.214 335.057 188.749 335.031 192.957 333.026L192.783 333.072L193.161 333L192.75 333.112C192.307 332.62 191.489 332.236 190.862 331.685L190.678 331.522Z"/><path fill="#383838" transform="scale(2 2)" d="M116.827 271.315C115.844 270.246 112.849 262.12 112.494 260.439C114.264 264.153 116.164 267.756 118.225 271.315L117.355 270.912C117.093 271.078 117.007 271.088 116.827 271.315Z"/><path fill="#383838" transform="scale(2 2)" d="M402.401 255.402C401.509 259.557 400.908 261.906 399.137 265.861C398.85 265.291 398.543 264.779 398.225 264.228C400.028 261.037 401.018 258.842 402.401 255.402Z"/><path fill="white" transform="scale(2 2)" d="M207.269 340.136C210.702 341.063 220.201 341.401 220.937 344.423C217.918 343.158 207.898 343.263 207.269 340.136Z"/></svg>