<?xml version="1.0" encoding="utf-8" ?><svg xmlns="http://www.w3.org/2000/svg" xmlns:xlink="http://www.w3.org/1999/xlink" width="1024" height="1024" viewBox="0 0 1024 1024"><path transform="scale(2 2)" d="M256.064 19.2417C257.882 20.1644 264.296 26.0461 266.371 27.7388C312.577 65.4204 392 92.4529 452.715 91.7224C452.694 96.9579 453.618 103.638 453.939 109.033C458.401 183.977 456.171 260.357 424.809 329.948C394.35 397.537 337.562 451.742 272.48 485.978C267.953 488.357 260.958 492.041 256.064 493.416C192.241 467.799 134.596 415.785 100.997 356.146C59.8222 283.063 49.146 189.588 59.0581 107.208C59.6197 102.541 60.237 96.7905 61.5533 92.2991C73.2593 92.127 90.6455 90.0099 102.138 88.2402C159.888 79.3478 211.827 57.2747 256.064 19.2417ZM256.575 480.146C260.72 478.941 264.921 476.505 268.811 474.526C335.41 440.651 388.059 384.431 416.445 315.377C435.714 268.501 443.65 207.555 442.4 156.982C442.049 142.794 446.804 110.352 425.958 108.349C414.819 107.279 402.878 107.158 391.727 105.451C346.022 99.0852 301.54 81.8292 265.749 52.3007C264.197 51.0206 256.922 43.9776 256.064 43.7008C252.829 46.0503 249.875 49.3926 246.694 52.0936C208.205 84.7342 159.699 101.237 109.991 106.444C96.8556 107.82 74.6384 106.498 72.5325 124.494C63.9679 197.685 75.9879 286.384 112.774 350.795C141.47 401.041 184.106 443.276 235.12 470.653C238.343 472.381 253.302 480.79 256.575 480.146Z"/><path transform="scale(2 2)" d="M255.538 58.7547C259.544 58.2302 264.46 64.2709 267.436 66.4199C311.009 97.879 356.458 112.559 409.193 117.694C414.842 118.244 426.564 116.651 429.31 123.462C432.411 131.153 430.909 178.996 430.474 189.132C425.076 314.739 377.607 400.111 266.561 462.084C263.306 463.901 260.049 465.868 256.575 467.235C253.282 467.595 247.276 463.647 244.38 462.187C223.269 451.54 203.79 438.162 185.747 422.915C113.294 361.69 84.858 281.078 81.4275 188.486C81.1006 179.664 80.1583 129.094 83.1616 122.483C85.1408 118.127 92.4667 118.34 96.4359 118.005C147.975 113.653 201.164 99.6489 242.879 67.9382C246.898 64.8827 250.851 60.6529 255.538 58.7547ZM87.1275 123.384C85.831 127.107 85.7576 133.497 85.5437 137.589C78.2109 277.805 121.719 398.616 254.66 462.852C255.069 463.05 255.624 463.076 256.064 463.042C259.047 462.002 262.334 459.92 265.12 458.376C388.377 390.063 429.182 290.315 427.628 153.862C427.536 144.619 427.098 134.795 425.842 125.618C425.301 121.668 412.918 122.627 409.941 121.973C356.27 117.677 303.503 99.7562 260.926 66.3027C259.56 65.2295 257.297 62.8412 256.064 61.9999C208.404 99.72 161.851 116.305 100.843 121.86C96.9623 122.214 90.7887 122.48 87.1275 123.384Z"/><path transform="scale(2 2)" d="M255.538 65.4422C257.436 66.0748 264.709 71.9963 267.022 73.6596C309.984 104.563 360.724 121.09 413.362 124.442C416.01 124.61 421.931 124.884 423.862 126.522C425.2 129.79 425.022 144.87 425.096 148.893C428.051 282.997 389.789 388.387 265.652 456.131C262.637 457.777 259.694 459.705 256.575 461.174C254.422 461.749 242.125 454.615 239.569 453.228C152.658 406.072 100.196 320.2 90.0515 222.223C86.5964 189.481 85.9427 158.406 88.6265 125.402C93.1672 124.383 98.3568 124.006 102.992 123.592C152.759 119.152 201.411 104.337 242.654 75.5965C247.26 72.3868 251.128 68.7153 255.538 65.4422ZM276.994 327.847C317.002 314.287 340.093 279.396 334.572 237.315C334.251 234.87 332.053 227.434 332.451 225.414C333.626 219.453 354.002 208.084 351.572 201.702C350.512 198.92 328.08 174.891 321.48 174.329C315.522 178.746 311.211 185.405 305.338 189.622C291.36 176.631 269.09 170.261 250.466 170.994L250.128 171.008C212.653 173.744 179.072 200.627 173.601 238.5C173.163 241.529 172.355 249.472 171.508 251.533C168.787 258.159 156.311 261.067 164.565 269.67C169.08 274.377 173.834 278.978 178.435 283.598L222.647 327.826C225.243 330.405 227.003 328.875 230.017 328.665C248.875 331.11 256.504 333.826 276.994 327.847Z"/><path transform="scale(2 2)" d="M322.679 179.194C327.845 182.992 342.721 197.97 346.809 203.014C340.485 210.201 331.001 219.222 324.192 226.089L241.202 309.933C238.432 312.71 228.891 322.809 226.386 324.399C223.709 323.368 194.54 293.378 191.332 289.998C185.571 284.178 170.061 270.764 166.377 264.655C168.102 261.033 187.289 242.323 190.734 240.301C192.283 242.258 194.563 244.26 196.364 246.069L207.778 257.468C211.106 260.746 222.057 272.689 225.511 274.23C229.994 274.332 248.355 253.45 252.654 249.209L311.771 190.386C314.947 187.225 319.392 181.7 322.679 179.194Z"/><path transform="scale(2 2)" d="M250.128 175.524C271.521 174.874 285.865 180.281 302.215 192.837C302.289 192.875 302.362 192.913 302.436 192.951C295.919 199.87 288.518 206.937 281.727 213.667L234.285 260.857C232.233 262.917 228.183 267.191 226.033 268.851C224.277 267.854 222.753 266.115 221.329 264.655C216.258 259.356 196.076 237.483 190.734 235.818C185.535 236.972 180.088 243.763 176.252 247.785C178.981 207.535 210.692 179.349 250.128 175.524Z"/><path transform="scale(2 2)" d="M328.177 229.217C329.749 230.791 330.833 242.564 330.936 245.478C332.768 297.212 288.201 333.633 238.445 325.795C236.825 325.454 235.211 325.017 233.607 324.603C237.154 320.277 243.298 314.565 247.4 310.399L314.767 242.853C318.128 239.491 324.982 231.588 328.177 229.217Z"/></svg>