<?xml version="1.0" encoding="utf-8" ?><svg xmlns="http://www.w3.org/2000/svg" xmlns:xlink="http://www.w3.org/1999/xlink" width="1024" height="1536" viewBox="0 0 1024 1536"><path d="M475.025 136.671C498.21 135.673 526.479 136.475 550.106 136.474L693.846 136.465L803.309 136.515C820.544 136.529 838.226 136.139 855.434 136.587C860.55 136.72 865.987 138.498 870.284 141.353C876.879 145.768 881.434 152.637 882.934 160.43C885.861 175.017 877.555 184.172 870.08 195.608C865.876 202.039 861.485 208.381 857.191 214.754L814.013 279.457L632.763 551.975C716.184 540.401 799.593 528.08 882.994 516.334C890.9 515.309 903.14 513.649 909.52 519.934C927.199 537.35 913.518 557.898 899.542 572.043C895.366 576.271 890.976 581.925 887.289 586.199L841.378 639.528L715.284 789.419L299.104 1289.22L192.999 1416.04C175.415 1437.03 157.847 1458.03 139.983 1478.78C131.849 1488.23 120.776 1492.72 108.747 1487.6C101.943 1484.63 96.6268 1479.04 94.0044 1472.1C91.4944 1465.42 91.6746 1457.59 94.4799 1451.15C103.594 1430.23 114.536 1408.92 124.662 1388.45L185.933 1265.47L329.226 977.551L393.777 848.003C401.367 832.563 409.812 816.684 416.981 801.154L247.408 836.576L203.989 845.597C189.544 848.632 169.614 855.254 156.568 846.626C143.951 838.283 142.145 823.63 148.109 810.501C155.505 794.219 162.9 778.01 170.288 761.763L215.847 661.723L356.261 355.267L420.954 214.639L438.883 175.814C447.949 156.225 451.525 140.966 475.025 136.671ZM450.435 775.194C441.966 793.794 431.533 813.579 422.374 832.011L365.119 946.669L192.106 1293.82L138.751 1401.24C129.407 1419.98 118.693 1438.98 110.66 1458.29C109.735 1460.52 109.252 1462.38 110.073 1464.71C110.991 1467.32 112.771 1469.84 115.428 1470.87C117.782 1471.79 120.515 1471.48 122.752 1470.38C129.053 1467.28 277.918 1286.63 296.785 1264.19L749.261 721.066C797.93 662.833 847.066 605.078 896.798 547.756C900.003 544.062 903.314 539.47 899.417 535.057C889.601 533.541 859.699 538.779 848.038 540.442L787.949 548.954L595.016 576.326L776.102 303.671L832.874 218.294C843.122 202.88 853.355 187.449 863.308 171.847C866.512 166.824 865.268 159.94 859.926 156.991C857.493 155.648 854.427 155.716 851.719 155.59C829.645 155.242 807.461 155.31 785.384 155.31L668.684 155.328L543.151 155.322C521.248 155.323 497.304 154.845 475.526 155.464C469.241 157.443 466.841 160.098 463.829 166.092C459.418 174.875 455.78 184.572 451.557 193.481L417.301 267.317L321.366 476.017L215.45 707.234L180.559 783.936C175.005 796.229 169.331 808.485 163.928 820.852C160.919 827.74 166.917 833.677 174.358 832.269C266.495 814.835 358.334 792.509 450.435 775.194Z"/><path d="M480.12 173.45C527.143 174.024 575.353 173.417 622.468 173.395L842.085 173.265C834.22 186.381 823.541 201.198 814.874 214.275L759.623 297.549C693.409 396.962 623.919 498.573 559.77 599.121C573.346 597.608 587.267 595.001 600.879 593.195C690.129 581.355 779.442 566.532 868.725 555.178C863.214 562.64 852.662 573.824 846.31 581.005C836.144 592.632 826.074 604.343 816.103 616.138L702.154 751.372L313.895 1217.49C282.421 1255.79 250.755 1293.94 218.897 1331.92C196.401 1359 174.129 1387.15 151.007 1413.58C159.79 1394.21 171.819 1371.77 181.537 1352.6L222.945 1269.53L401.501 911L451.673 811.677C461.78 791.858 473.384 770.147 482.637 750.15C384.136 771.674 285.456 792.372 186.608 812.243C196.727 787.748 211.228 758.716 222.481 734.036L296.358 572.342L480.12 173.45Z"/></svg>