<?xml version="1.0" encoding="utf-8" ?><svg xmlns="http://www.w3.org/2000/svg" xmlns:xlink="http://www.w3.org/1999/xlink" width="1024" height="1024" viewBox="0 0 1024 1024"><path transform="scale(0.5 0.5)" d="M846.463 277.979C848.575 277.993 850.808 278.24 852.672 279.336C866.043 287.195 899.204 424.068 905.41 447.377C989.447 433.606 1059.27 434.591 1143.4 446.857C1149.44 419.831 1178.24 299.343 1193.86 281.991C1195.85 279.782 1197.99 278.441 1201.03 278.384C1202.78 279.102 1203.46 279.613 1204.6 281.206C1215.57 296.442 1194.48 430.352 1189.73 457.025C1258 468.923 1346.57 510.684 1405.27 546.419C1413.37 537.555 1426.4 518.823 1434.21 508.655C1452.6 484.377 1470.91 459.648 1491.67 437.3C1499.06 429.35 1513.35 409.905 1524.78 412.815C1526.17 414.107 1527.52 415.21 1528.11 417.097C1532.74 431.945 1457.36 554.447 1444.77 574.081C1510.57 619.369 1563.04 674.518 1610.71 738.412C1639.76 726.719 1752.54 650.24 1775.35 660.647C1779.22 666.091 1773.32 675.219 1769.07 678.736C1727.39 713.22 1682.3 750.208 1637.14 779.882C1670.64 827.753 1693.38 888.804 1712.75 943.575C1719.93 963.886 1722.89 988.878 1730.08 1008.32C1732.41 1010.11 1734.43 1009.72 1737.35 1009.59C1748.09 1009.13 1759.17 1007.39 1769.89 1006.32C1802.34 1003.08 1834.82 998.919 1867.42 997.761C1877.5 997.403 1888.69 996.426 1898.62 998.249C1901.81 998.836 1905.26 999.8 1906.8 1003C1907.83 1005.14 1907.7 1007.12 1906.58 1009.2C1898.49 1024.38 1764.86 1051.13 1739.02 1060.37L1737.73 1060.84C1745.96 1115.56 1747.36 1171.09 1741.89 1226.16C1740.54 1239.82 1738.84 1253.44 1736.79 1267.02C1735.37 1276.27 1732.34 1292.21 1732.16 1300.78C1735.87 1305.61 1845.71 1335.31 1860.03 1343.68C1868.28 1348.51 1894.04 1352.72 1896.58 1364.49C1894.85 1374.49 1884.18 1374.88 1875.94 1374.05C1823.56 1368.73 1770.45 1359.2 1718.75 1349.58C1716.47 1361.49 1710.04 1383.57 1706.09 1394.68C1649.9 1555.19 1539.16 1690.87 1393.18 1778.1C1368.07 1793.16 1345.14 1804.38 1318.83 1816.89C1163.15 1884.4 1001.94 1898.35 837.781 1854.92C693.928 1816.61 565.561 1734.49 470.483 1619.94C439.677 1583.81 412.818 1544.49 390.362 1502.66C373.608 1470.62 358.793 1437.6 345.995 1403.79C341.79 1392.59 331.776 1358.34 327.733 1351.38C321.123 1349.44 301.62 1355.31 293.851 1356.03C272.773 1357.98 162.026 1384.35 151.719 1367.75C151.721 1365.39 151.689 1364.47 153.012 1362.4C163.351 1346.19 290.194 1309.42 316.874 1302.84C315.954 1286.66 309.226 1253.05 307.112 1234.07C300.898 1175.69 301.851 1116.77 309.949 1058.61C279.881 1054.05 242.061 1042.12 212.155 1034.83C194.994 1029.79 177.205 1026.26 160.199 1020.79C151.944 1018.13 140.486 1013.39 140.4 1003.49C141.062 1001.69 141.513 1000.73 143.023 999.452C154.097 990.101 293.276 1009.07 319.032 1010.57C332.757 926.956 368.644 853.807 409.12 780.61C385.532 759.626 281.53 691.785 273 669.57C271.906 666.721 272.062 664.287 273.22 661.471C274.577 660.001 275.336 659.369 277.316 658.779C294.463 653.661 416.221 728.35 437.124 739.969C486.531 672.688 533.558 623.217 601.277 573.586C587.505 548.307 518.988 440.081 519.043 419.007C519.05 416.085 519.7 414.055 521.915 412.096C523.751 410.473 526.066 410.285 528.412 410.69C546.011 413.728 626.192 525.958 641.081 545.977C701.612 509.993 786.938 470.75 856.458 457.203C855.69 444.888 852.57 425.652 850.881 412.819C847.959 390.227 845.442 367.586 843.329 344.904C841.943 330.995 840.164 315.748 839.761 301.885C839.476 292.067 839.6 285.078 846.463 277.979ZM1042.49 1799.36C1397.14 1789.29 1676.51 1493.7 1666.58 1139.04C1656.64 784.392 1361.15 504.905 1006.5 514.708C651.65 524.516 371.981 820.196 381.923 1175.04C391.865 1529.88 687.65 1809.44 1042.49 1799.36Z"/><path transform="scale(0.5 0.5)" d="M1012.79 540.977C1353.52 534.982 1634.46 806.635 1639.91 1147.38C1645.36 1488.13 1373.26 1768.63 1032.5 1773.53C692.517 1778.43 412.789 1507.07 407.351 1167.1C401.913 827.119 672.819 546.958 1012.79 540.977ZM1037.5 1736.81C1357.46 1729.15 1610.77 1463.81 1603.59 1143.84C1596.41 823.872 1331.46 570.162 1011.48 576.857C690.81 583.568 436.44 849.212 443.634 1169.87C450.828 1490.52 716.856 1744.49 1037.5 1736.81Z"/><path transform="scale(0.5 0.5)" d="M1002.2 633.006C1291.62 620.784 1536.08 845.637 1548.05 1135.07C1560.02 1424.5 1334.95 1668.76 1045.5 1680.47C756.424 1692.17 512.533 1467.44 500.582 1178.37C488.632 889.304 713.142 645.213 1002.2 633.006ZM1006.07 778.01C900.02 783.592 822.712 820.495 751.532 898.845C610.566 1054.01 620.503 1292.47 778.262 1432.26C848.683 1494.32 939.807 1527.72 1033.65 1525.87C1134.66 1521.21 1229.52 1482.85 1298.42 1407.38C1365.73 1335.1 1400.69 1238.52 1395.23 1139.89C1390.26 1035.72 1343.42 937.968 1265.35 868.81C1213.13 821.726 1146.72 790.21 1076.57 781.387C1064.32 779.846 1052.05 779.573 1039.71 779.265C1040.12 755.088 1049.56 698.228 1013.69 699.896C1008.63 710.729 1006.97 763.203 1006.07 778.01ZM1020.22 1546.24C1007.68 1557.99 1009.55 1612.44 1016.31 1628.21C1017.39 1630.71 1022.86 1631.05 1025.34 1631.09C1026.11 1631.1 1026.88 1631.11 1027.64 1631.1C1039.99 1620.39 1037.53 1560.92 1030.29 1547.45C1026.9 1545.14 1024.76 1545.61 1020.22 1546.24ZM705.112 917.386C684.924 903.669 664.495 889.481 642.916 878.033C636.356 883.631 630.144 888.735 624.602 895.381C647.249 911.132 665.86 922.478 688.942 937.277C695.482 939.698 702.389 922.597 705.112 917.386ZM633.908 1434.79C642.156 1429.4 701.101 1393.11 702.421 1389.86C701.781 1385.79 695.976 1377.31 692.779 1374.98L691.5 1374.72C664.128 1386 643.823 1399.76 620.955 1418.35C623.561 1422.95 627.432 1431.46 630.238 1434.6C632.547 1435.12 631.714 1435.2 633.908 1434.79ZM1425.69 1414.77C1415.81 1407.32 1368.2 1372.46 1357.34 1371.45C1354.15 1377.17 1350.49 1383.33 1347.98 1389.29C1355.9 1395.8 1407.03 1431.73 1413.39 1428.38L1425.69 1414.77ZM1478.93 1128.49C1460.1 1128.53 1439.15 1128.2 1420.47 1129.5L1421.3 1152.22C1433.38 1152.42 1444.41 1152.51 1456.5 1152.13C1476.43 1151.3 1492.36 1151.51 1512.04 1151.53L1511.78 1128.61L1478.93 1128.49ZM1406.78 869.965C1389.23 879.936 1356.15 905.802 1340.49 918.975C1343.65 924.13 1349.14 934.933 1353.95 936.825L1355.48 936.525L1422.67 889.948C1419.87 885.371 1411.17 870.339 1406.78 869.965ZM531.946 1128.24C530.491 1134.57 530.989 1146.52 531.134 1153.47C562.795 1153.83 588.477 1153.45 620.008 1152.28C623.146 1148.37 621.495 1135.38 621.225 1129.65C592.094 1128.11 561.297 1128.47 531.946 1128.24Z"/><path transform="scale(0.5 0.5)" d="M1024.07 779.348L1027.37 781.124C1032.95 788.259 1035.23 843.119 1036.26 855.648C1040.05 905.702 1044.51 955.703 1049.66 1005.64C1051.77 1024.9 1054.2 1051.35 1058.09 1069.74C1061.32 1071.96 1064.53 1074.22 1067.72 1076.5C1101.18 1100.49 1105.43 1112.94 1112.01 1153.32C1135.29 1151.39 1188.33 1152.28 1211.74 1152.44C1231.87 1152.58 1366.58 1150.66 1373.13 1155.05C1376.1 1170.6 1371.97 1204.39 1369.72 1220.79C1343.84 1409.25 1151.1 1529.81 969.063 1498.93C905.461 1488.13 855.427 1466.54 803.975 1427.78C726.281 1367.02 683.384 1277.54 675.383 1179.87C674.646 1170.87 674.16 1162.5 674.469 1153.44L827.804 1155.36C848.736 1155.49 921.02 1156.36 936.993 1151.38L937.595 1148.5C932.443 1130.13 763.1 1028.2 736.165 989.35L735.238 988C773.512 998.754 791.526 1009.89 826.334 1025.28L965.34 1087.02C973.808 1079.14 978.698 1077.44 989.131 1072.63C994.344 1056.81 998.524 995.178 1000.57 975.047C1005.22 929.167 1010.32 882.292 1015.67 836.359C1017.19 823.272 1018.9 789.584 1024.07 779.348ZM1032.44 1218.9C1068.76 1214.31 1094.53 1181.23 1090.1 1144.89C1085.67 1108.56 1052.7 1082.64 1016.35 1086.91C979.767 1091.21 953.651 1124.43 958.11 1160.99C962.569 1197.55 995.902 1223.52 1032.44 1218.9Z"/><path transform="scale(0.5 0.5)" d="M327.82 463.999C347.495 471.233 431.601 535.903 444.096 558.192C448.075 565.291 449.172 568.26 447.306 575.918C418.949 587.192 351.588 494.061 334.501 474.54C331.921 471.592 328.353 467.861 327.82 463.999Z"/><path transform="scale(0.5 0.5)" d="M1410.52 246.732C1410.67 247.533 1410.82 249.428 1410.59 250.104C1394.47 296.517 1382.47 347.38 1354.28 388.251C1349.79 394.757 1345.95 395.087 1338.56 393.332C1325.93 370.448 1393.17 261.617 1410.52 246.732Z"/><path transform="scale(0.5 0.5)" d="M118.367 797.322C165.192 805.514 212.979 819.402 258.321 833.891C271.556 838.12 280.391 844.436 271.782 858.869C270.259 859.658 269.064 860.162 267.327 860.331C250.973 861.921 133.192 813.46 120.294 801.884C118.383 800.169 118.512 799.763 118.367 797.322Z"/><path transform="scale(0.5 0.5)" d="M638.888 242.436C650.073 249.469 709.808 366.504 717.582 386.855C718.831 390.125 716.954 393.507 715.223 396.386C702.848 407.992 695.168 395.507 690.094 384.5C673.163 347.775 661.17 308.597 647.391 270.597C644.359 262.235 640.317 250.843 638.888 242.436Z"/><path transform="scale(0.5 0.5)" d="M1023.83 166.335L1026.24 167.791C1029.02 172.929 1028.75 182.443 1029.24 188.335C1030.85 207.545 1040 320.38 1031.42 328.772C1029.17 330.963 1025.81 330.905 1022.88 331.11C999.928 316.872 1017.14 210.446 1019.62 186.11C1020.1 181.394 1022.24 170.571 1023.83 166.335Z"/><path transform="scale(0.5 0.5)" d="M1724.84 463.841C1726.18 464.058 1725.45 463.797 1726.87 464.981C1724.93 473.985 1651.61 546.241 1639.88 557.7C1634.22 563.221 1622.57 575.695 1616.19 581.141C1613.74 583.227 1608.34 581.879 1605.01 581.066C1603.97 580.011 1602.69 578.711 1601.8 577.545C1599.93 575.112 1599.12 572.023 1599.56 568.985C1602.25 551.293 1706.19 477.294 1724.84 463.841Z"/><path transform="scale(0.5 0.5)" d="M1759.26 1491.98C1775.69 1491.08 1812.79 1515.95 1829.32 1524.29C1838.17 1528.76 1894.63 1561.46 1897.54 1567.74L1896.52 1568.8L1892.9 1568.36C1858.69 1553.41 1817.93 1544.04 1783.93 1526.69C1771.39 1520.28 1735.49 1509.74 1759.26 1491.98Z"/><path transform="scale(0.5 0.5)" d="M281.448 1492.23C284.063 1492.03 287.553 1491.76 290.001 1492.83C292.115 1493.76 293.437 1494.75 294.316 1496.93C295.804 1500.63 296.42 1505.94 294.403 1509.54C286.716 1523.26 183.053 1560.04 164.657 1566C160.238 1567.88 152.328 1570.23 147.525 1571.82C163.688 1555.96 260.354 1499.41 281.448 1492.23Z"/><path transform="scale(0.5 0.5)" d="M1922.55 798.339C1925.24 797.907 1925.37 797.974 1928.11 798.214L1928.79 799.697C1922.46 807.792 1855.46 831.888 1842.17 838.675C1830.89 844.433 1793.22 856.615 1780.26 858.582C1778.89 858.233 1778.61 858.207 1777.19 857.601C1774.76 856.56 1772.65 854.383 1771.96 851.812C1771.25 849.177 1771.58 847.369 1772.93 845.045C1782.13 829.235 1900.16 802.895 1922.55 798.339Z"/><path transform="scale(0.5 0.5)" d="M1832.87 1170.52C1865.72 1169.69 1896.79 1172.82 1929.39 1176.78C1946.35 1178.84 1964.76 1180.66 1981.45 1183.97C1974.14 1186.18 1960.46 1187.61 1952.75 1188.33C1935.36 1190.58 1836.54 1198.43 1825.12 1193.25C1822.16 1191.91 1819.88 1188.62 1819.06 1185.53C1818.28 1182.58 1818.66 1179.62 1820.29 1177C1823.29 1172.2 1827.67 1171.22 1832.87 1170.52Z"/><path transform="scale(0.5 0.5)" d="M206.25 1170.48C207.844 1170.43 209.438 1170.4 211.033 1170.41C222.709 1170.47 240.354 1178.97 226.128 1191.65C220.729 1196.47 198.077 1195.8 190.276 1195.15C163.987 1192.95 134.778 1193.96 108.678 1190.6C103.168 1190.32 81.3345 1189.14 77.9049 1186.53C87.406 1179.15 187.454 1172.2 206.25 1170.48Z"/></svg>