<?xml version="1.0" encoding="utf-8" ?><svg xmlns="http://www.w3.org/2000/svg" xmlns:xlink="http://www.w3.org/1999/xlink" width="1024" height="1024" viewBox="0 0 1024 1024"><path fill="#FAFAF9" fill-opacity="0.0078431377" transform="scale(0.5 0.5)" d="M0 0L2048 0L2048 2048L0 2048L0 0ZM941.099 525.41C944.211 473.284 981.836 446.543 1032.18 448.543C1078.09 454.617 1103.86 478.357 1106.77 525.482C1119.54 525.918 1128.55 526.302 1137.99 536.343C1139.84 538.331 1141.61 540.399 1143.27 542.544L1145.43 561.381C1153.73 558.634 1159.7 555.715 1163.95 547.653C1181.66 514.042 1159.54 386.611 1146.71 348.778C1133.29 309.202 1107.64 267.378 1068.76 248.676C1051.78 240.509 1033.12 238.172 1014.46 239.457C912.589 249.818 884.812 382.649 879.7 466.496C878.521 485.831 869.595 559.569 899.017 560.441C911.942 552.106 890.8 529.648 941.099 525.41ZM1223.25 717.521C1127.16 718.148 1031.07 718.29 934.977 717.946L853.13 717.649C841.879 717.625 817.85 716.467 808.009 718.766C757.648 730.528 755.483 776.118 745.836 817.322L714.37 958.005L677.551 1123.03C656.424 1216.01 631.86 1312.21 635.812 1408.19C641.42 1544.4 685.663 1736.71 832.241 1785.31C861.478 1793.76 914.144 1791.67 946.301 1791.6L1059.27 1791.2L1136.87 1791.16C1154.46 1791.14 1175.9 1791.62 1193.08 1789.47C1214.04 1786.74 1234.3 1780.07 1252.78 1769.81C1324.46 1730.09 1366.41 1645.55 1387.91 1569.37C1407.74 1497.87 1415.82 1423.61 1411.84 1349.52C1407.55 1269.41 1385.66 1190.22 1369.19 1111.94C1361.74 1076.56 1352.21 1041.26 1344.47 1005.87L1314.64 868.941L1299.91 803.041C1296.23 787.041 1293.11 767.168 1285.21 752.909C1276.32 736.795 1261.35 724.913 1243.63 719.914C1235.36 717.582 1231.67 717.62 1223.25 717.521Z"/><path transform="scale(0.5 0.5)" d="M1223.25 717.521C1231.67 717.62 1235.36 717.582 1243.63 719.914C1261.35 724.913 1276.32 736.795 1285.21 752.909C1293.11 767.168 1296.23 787.041 1299.91 803.041L1314.64 868.941L1344.47 1005.87C1352.21 1041.26 1361.74 1076.56 1369.19 1111.94C1385.66 1190.22 1407.55 1269.41 1411.84 1349.52C1415.82 1423.61 1407.74 1497.87 1387.91 1569.37C1366.41 1645.55 1324.46 1730.09 1252.78 1769.81C1234.3 1780.07 1214.04 1786.74 1193.08 1789.47C1175.9 1791.62 1154.46 1791.14 1136.87 1791.16L1059.27 1791.2L946.301 1791.6C914.144 1791.67 861.478 1793.76 832.241 1785.31C685.663 1736.71 641.42 1544.4 635.812 1408.19C631.86 1312.21 656.424 1216.01 677.551 1123.03L714.37 958.005L745.836 817.322C755.483 776.118 757.648 730.528 808.009 718.766C817.85 716.467 841.879 717.625 853.13 717.649L934.977 717.946C1031.07 718.29 1127.16 718.148 1223.25 717.521ZM1008.98 1738.14L1082.75 1738.2L1146.24 1738.33C1165.37 1738.33 1184.88 1739.24 1203.43 1733.98C1247.89 1721.26 1275.71 1687.82 1297.93 1649.15C1344.77 1567.62 1357.09 1475.49 1358.4 1383.14C1359.46 1307.78 1346.13 1250.99 1329.39 1178.95C1320.49 1140.59 1311.94 1102.16 1303.75 1063.66C1294.48 1020.33 1284.9 977.066 1275.01 933.874C1270.02 911.469 1265.8 887.72 1259.21 865.829C1248.08 828.828 1220.39 823.225 1187.52 823.498L1114 823.738C1092.17 823.755 1061.28 820.267 1043.76 836.654C1035.45 844.43 1028.03 859.158 1028.56 870.598C1030.39 894.084 1037.56 920.909 1042.9 944.042C1049.65 973.393 1056.15 1002.8 1062.41 1032.26L1091.64 1163.3C1120.76 1290.07 1138.88 1376.02 1115.49 1506.82C1107.02 1556.83 1091.44 1605.38 1069.22 1650.98C1058.64 1672.3 1047.36 1690.59 1032.79 1709.44C1027.07 1716.85 1013.22 1730.79 1008.98 1738.14ZM859.274 1454.87C870.389 1453.45 880.197 1449.19 888.469 1441.52C913.872 1417.95 924.03 1378.44 919.401 1344.83C914.314 1307.89 893.465 1263.21 849.848 1264.39C762.299 1284.79 772.736 1455.12 859.274 1454.87Z"/><path transform="scale(0.5 0.5)" d="M1116.77 1024.37C1124.65 1023.47 1132.61 1023.32 1140.53 1023.93C1181.21 1027.26 1209.99 1048.84 1235.34 1079.3C1307.3 1165.75 1329.13 1304.34 1319.56 1413.4C1312.94 1488.85 1285.9 1582.7 1226.36 1632.79C1191.08 1657.53 1151.91 1669.77 1111.28 1647.57C1105.3 1644.31 1111.89 1633.97 1114.18 1628.53C1135.68 1577.28 1148.06 1521.39 1154.26 1466.26C1169.59 1343.75 1139.35 1226.97 1112.49 1108.56C1106.53 1082.27 1100.31 1055.62 1093.99 1029.18C1101.34 1027.39 1109.15 1026.24 1116.77 1024.37Z"/><path transform="scale(0.5 0.5)" d="M1002.75 144.421C1198.04 131.985 1260.93 330.193 1263.24 488.255C1263.56 510.666 1264.55 531.194 1260.64 553.634C1252.55 600.186 1218.71 640.107 1172.52 652.173C1162.92 654.677 1153.79 655.87 1144.27 658.117C1144.61 666.891 1144.83 675.668 1144.94 684.447C1112.79 684.812 1080.65 684.956 1048.5 684.878C999.867 685.243 951.233 685.271 902.6 684.962C903.199 676.039 903.591 667.104 903.776 658.164C877.247 654.529 860.999 651.363 838.641 635.453C782.137 595.244 780.754 534.338 785.34 471.177C791.47 386.739 808.168 298.897 858.973 228.946C894.967 179.387 942.525 153.246 1002.75 144.421ZM941.099 525.41C944.211 473.284 981.836 446.543 1032.18 448.543C1078.09 454.617 1103.86 478.357 1106.77 525.482C1119.54 525.918 1128.55 526.302 1137.99 536.343C1139.84 538.331 1141.61 540.399 1143.27 542.544L1145.43 561.381C1153.73 558.634 1159.7 555.715 1163.95 547.653C1181.66 514.042 1159.54 386.611 1146.71 348.778C1133.29 309.202 1107.64 267.378 1068.76 248.676C1051.78 240.509 1033.12 238.172 1014.46 239.457C912.589 249.818 884.812 382.649 879.7 466.496C878.521 485.831 869.595 559.569 899.017 560.441C911.942 552.106 890.8 529.648 941.099 525.41Z"/></svg>