<?xml version="1.0" encoding="utf-8" ?><svg xmlns="http://www.w3.org/2000/svg" xmlns:xlink="http://www.w3.org/1999/xlink" width="1024" height="1024" viewBox="0 0 1024 1024"><path transform="scale(0.5 0.5)" d="M1554.7 1150.79C1527.64 1165.55 1502.17 1180.04 1474.22 1193.57C1359.03 1249.36 1237.03 1286.47 1112.54 1314.95C1092.36 1319.57 1072.34 1324.92 1052.07 1329.15C930.284 1353.52 806.884 1368.97 682.852 1375.37C626.813 1378.36 614.114 1382.39 560.037 1363.81C478.138 1335.68 392.533 1301.92 319.98 1253.9C213.794 1183.63 122.678 1073.95 95.2469 947.516C88.4796 915.195 88.8312 887.848 86.7282 855.925C81.2347 772.537 81.9278 714.712 129.667 641.557C198.432 536.183 346.662 458.012 462.45 417.687C506.542 402.608 551.585 390.466 597.283 381.34C649.237 370.755 697.615 366.33 750.156 361.833C949.233 344.554 1149.76 355.674 1345.7 394.859C1403.46 406.213 1463.89 418.684 1519.79 437.308C1626.89 472.997 1731.51 518.482 1825.93 580.721C1887.35 621.215 1929.81 666.424 1958.45 734.749C1968.61 759.002 1979.49 781.429 1983.75 808.026C1998.36 889.76 1985.77 996.97 1958.52 1075.25C1949.41 1101.41 1922.4 1148.71 1907.07 1171.51C1883.07 1207.6 1854.92 1240.74 1823.18 1270.25C1742.13 1345.04 1665.68 1390.98 1577.73 1454.46C1554.26 1471.34 1530.9 1488.38 1507.66 1505.56C1474.56 1530.39 1451.55 1551.04 1412.82 1567.82C1375.4 1584.03 1339.21 1594.43 1300.5 1606.67C1205.86 1637.13 1109.6 1662.3 1012.16 1682.04C919.432 1700.03 810.623 1711.38 715.967 1711.54C690.064 1711.59 641.648 1707.3 615.284 1703.46C526.931 1690.74 440.069 1668.42 353.902 1645.49C301.872 1631.65 249.091 1616.93 199.415 1595.92C186.051 1590.53 173.76 1583.56 161.659 1576.14C132.335 1559.63 133.51 1529.94 132.05 1500.09C130.917 1476.93 119.453 1418.92 134.751 1401.46C169.648 1361.64 258.022 1378.59 304.428 1382.91C365.916 1388.63 422.851 1398.18 483.889 1403.49C524.189 1406.82 564.072 1406.54 603.597 1406.07C713.456 1404.35 823.084 1395.45 931.779 1379.41C1004.72 1368.49 1077.09 1354.09 1148.65 1336.25C1383.82 1278.97 1642.02 1181.45 1793.46 981.294C1911.83 824.84 1828.25 680.488 1687.89 579.667C1530.71 466.77 1343.79 426.245 1153 421.522C1082.01 419.18 1010.96 423.54 940.793 434.545C850.962 448.536 768.996 477.806 687.885 518.081C678.891 521.53 667.003 530.461 658.069 532.851C575.406 554.966 465.584 585.293 411.721 658.907C439.24 707.59 552.786 737.003 604.71 723.238C603.76 708.129 603.985 693.963 603.748 679.233C603.201 645.337 603.882 625.272 627.468 598.886C651.112 572.435 678.528 556.623 709.509 540.647C814.036 486.747 931.179 458.939 1048.26 452.179C1078.2 450.45 1110.27 448.147 1140.52 449.317C1248.71 453.503 1358.63 466.81 1462.36 498.809C1491.44 507.779 1514.61 519.438 1541.58 531.047C1606.83 559.135 1667.33 595.68 1720.62 643.038C1765.44 682.862 1817 750.893 1820.27 812.576C1824.67 895.457 1782.6 952.582 1731.31 1010.67C1725.41 1013.91 1715.6 1025.79 1709.64 1030.98C1712.14 1028.15 1722.43 1017.39 1722.41 1014.73C1748.01 985.749 1774.26 950.746 1789.53 915.053C1779.85 890.005 1776.27 873.559 1763.17 848.891C1712.34 754.42 1614.74 689.067 1518.63 647.129C1428.64 607.863 1329.37 586.674 1231.87 578.335C1186.52 574.457 1143.59 572.199 1098.07 574.059C1085.41 574.576 1072.29 573.647 1059.58 574.224C1025.03 576.979 984.297 579.534 950.301 585.48C902.937 593.764 850.984 607.948 805.981 625.043C761.055 642.109 718.623 661.844 679.099 689.394C686.092 716.346 683.146 747.468 684.006 775.235C685.18 813.146 687.997 843.801 641.925 852.384C569.543 865.869 490.112 853.25 427.315 814.121C402.218 798.142 374.052 767.805 369.077 738.507C362.358 698.934 364.074 654.532 360.463 614.466C267.474 665.354 181.01 742.911 152.143 847.584C150.917 852.028 148.296 861.229 148.637 865.563C150.013 883.046 164.059 910.695 172.365 925.993C260.1 1087.59 455.962 1183.45 626.17 1232.84C878.235 1305.98 1189.84 1304.08 1434.01 1203.5C1445.54 1203.33 1519.13 1167.69 1532.89 1159.75C1540.56 1155.31 1561.36 1142.98 1569.31 1139.93C1564.46 1143.02 1558.23 1146.33 1554.7 1150.79ZM1497.73 1357.58C1504.42 1355.44 1535.37 1330.25 1541.95 1323.93C1524.11 1333.7 1506.07 1343.11 1487.85 1352.15L1486.91 1352.69C1475.17 1359.21 1461.39 1364.17 1449.12 1369.68C1318.72 1428.3 1180.82 1455.65 1040.29 1477.61C951.941 1491.8 863.178 1503.25 774.125 1511.96C685.773 1521.18 594.606 1528.83 505.38 1526.19C492.713 1525.81 467.347 1518.35 454.506 1515.23C420.637 1507.32 386.98 1498.52 353.569 1488.85C328.482 1481.52 284.463 1467.45 259.743 1457.83C248.721 1453.53 237.742 1449.12 226.807 1444.6C220.177 1441.81 175.008 1418.88 183.983 1453.31C190.404 1463.08 218.295 1472.71 226.995 1476.23C328.839 1517.37 433.246 1543.7 540.967 1563.44C663.961 1585.98 770.029 1582.69 893.348 1564.72C1031.37 1544.85 1166.78 1509.8 1297.12 1460.22C1370.61 1432.29 1432.49 1405.62 1496.7 1358.4C1497.05 1358.13 1497.39 1357.85 1497.73 1357.58ZM1805.5 1079.9L1789.91 1104.36C1797.23 1099.17 1803.25 1094.17 1810.13 1088.46C1862.95 1043.83 1901.3 999.053 1932.08 937.195C1924.34 883.64 1892.75 815.941 1852.03 779.689C1856.59 822.488 1853.33 866.031 1850.46 908.879C1848.35 940.327 1847.48 976.469 1839.42 1006.96C1832.83 1031.92 1818.58 1057.53 1805.5 1079.9Z"/><path transform="scale(0.5 0.5)" d="M1541.95 1323.93C1535.37 1330.25 1504.42 1355.44 1497.73 1357.58C1495.22 1352.93 1497.99 1358.68 1491.87 1353.86L1493.95 1353.96L1492.54 1352.39L1487.85 1352.15C1506.07 1343.11 1524.11 1333.7 1541.95 1323.93Z"/><path transform="scale(0.5 0.5)" d="M1805.5 1079.9C1805.31 1082.67 1805.15 1084.43 1805.35 1087.25C1807.89 1089.06 1806.48 1088.36 1810.13 1088.46C1803.25 1094.17 1797.23 1099.17 1789.91 1104.36L1805.5 1079.9Z"/><path transform="scale(0.5 0.5)" d="M1722.41 1014.73C1722.43 1017.39 1712.14 1028.15 1709.64 1030.98C1715.6 1025.79 1725.41 1013.91 1731.31 1010.67C1728.79 1015.51 1720.43 1023.55 1715.39 1028.78C1668.9 1076.93 1613.9 1117.61 1555.74 1150.49C1555.39 1150.59 1555.05 1150.69 1554.7 1150.79C1558.23 1146.33 1564.46 1143.02 1569.31 1139.93C1561.36 1142.98 1540.56 1155.31 1532.89 1159.75C1519.13 1167.69 1445.54 1203.33 1434.01 1203.5C1433.97 1203.54 1498.5 1175.47 1506.49 1171.36C1534.23 1157.08 1560.66 1143 1587.51 1125.87C1621.35 1104.29 1653.29 1079.82 1683.57 1053.47C1696.53 1042.2 1708.78 1027.5 1721.23 1015.66C1721.63 1015.35 1722.02 1015.04 1722.41 1014.73Z"/></svg>