<?xml version="1.0" encoding="utf-8" ?><svg xmlns="http://www.w3.org/2000/svg" xmlns:xlink="http://www.w3.org/1999/xlink" width="1024" height="1024" viewBox="0 0 1024 1024"><path transform="scale(0.5 0.5)" d="M1010.51 130.368C1070.17 126.152 1124.36 154.686 1150.66 209.372C1162.45 233.876 1164.14 256.621 1163.52 283.398C1147.4 284.617 1124.52 284.175 1107.97 283.943C1108.04 273.596 1108.08 264.188 1106.13 253.966C1102.03 231.961 1089.22 212.544 1070.6 200.125C1049.87 186.292 1033.05 182.848 1008.24 187.273C986.107 191.744 967.21 204.471 954.635 222.895C938.083 247.143 939.984 271.492 940.165 299.513L940.488 357.354C940.599 378.993 940.591 400.632 940.466 422.27C940.205 476.311 936.58 508.593 987.004 541.138C986.603 529.221 983.906 503.484 996.382 497.503C1008.87 491.518 1038.99 493.727 1052.16 496.884C1066.51 508.958 1062.56 523.725 1061.82 540.82C1094.35 522.449 1105.62 498.926 1108.17 462.802C1125.42 461.686 1146.5 462.039 1163.85 462.307C1164.18 509.264 1143.95 549.832 1106.48 577.812C1091.83 588.753 1078.49 594.224 1061.89 601.109C1061.45 609.179 1061.6 617.812 1061.6 625.935C1063.97 626.113 1066.32 626.363 1068.67 626.685C1209.05 644.94 1317.09 771.143 1321.5 911.131C1322.47 941.823 1321.79 973.019 1321.82 1003.77C1321.85 1020.68 1321.98 1037.59 1322.21 1054.5C1322.44 1074.05 1326.75 1087.33 1309.74 1100.2C1296.73 1102.34 1266.41 1101.65 1251.43 1101.54C1223.2 1101.34 1192.33 1102.44 1164.38 1101.39C1161.97 1071.88 1162.52 1021.51 1163.64 991.136C1166.42 915.346 1120.86 848.026 1043.74 839.249C1043.34 829.878 1042.27 760.516 1044.9 756.482C1060.47 755.153 1095.92 772.645 1109.14 781.464C1117.87 787.283 1127.47 796.325 1134.79 803.823C1146.96 818.956 1156.12 831.513 1163.48 849.983C1165.96 856.214 1170.25 871.457 1173.05 876.547C1174.45 879.096 1176.54 881.205 1179.07 882.641C1185.6 886.354 1192.78 882.31 1194.73 875.454C1195.85 870.764 1194.48 864.925 1193.2 860.366C1189.59 847.502 1183.17 833.288 1176.7 821.539C1104.83 690.886 912.115 704.972 860.393 844.748C856.952 854.047 846.959 873.774 857.531 881.755C863.066 885.608 871.592 883.699 874.85 877.475C878.507 870.489 880.49 862.525 883.156 855.095C901.302 798.994 947.329 766.339 1004.15 755.689C1005.14 778.072 1004.62 816.446 1003.99 838.871C955.676 848.173 919.073 871.464 897.271 917.072C880.881 951.357 883.694 982.345 883.878 1019.07L884.472 1101.41C861.78 1102.96 753.448 1103.74 735.94 1099.07C730.451 1093.63 726.754 1091.01 726.069 1083.1C725.175 1072.79 725.529 1062.29 725.566 1051.93L725.69 998.205C725.455 923.72 721.592 872.609 751.318 802.556C761.615 777.721 775.442 754.503 792.372 733.618C840.445 673.495 910.491 635.003 987.017 626.654L986.437 601.505C933.215 581.098 895.627 544.892 885.23 486.244C882.447 470.545 883.407 452.035 883.409 435.961L883.459 368.536L883.366 299.799C883.346 283.082 882.695 263.666 885.56 247.394C889.476 225.057 898.474 203.919 911.859 185.613C937.857 150.514 968.543 136.56 1010.51 130.368Z"/><path transform="scale(0.5 0.5)" d="M1012.28 1192.43C1014.85 1192.34 1017.43 1192.3 1020 1192.28C1091.45 1191.92 1146.83 1244.2 1146.68 1317.13C1146.61 1348.83 1130.75 1382.76 1124.03 1413.71C1120.17 1431.52 1115.12 1450.22 1109.97 1467.66C1108.18 1473.41 1104.8 1477.03 1100.64 1481.17C1087.37 1484.83 1075.39 1483.43 1061.68 1482.91C1060.67 1493.35 1061.17 1508.11 1061.36 1518.82C1123.99 1537.88 1151.86 1588.78 1151.47 1651.93C1136.67 1652.59 1116.37 1651.86 1101.26 1651.74C1100.39 1642.54 1101 1634.41 1098.85 1624.94C1092.96 1598.95 1082.16 1587.21 1060.88 1573.25C1061.32 1589.58 1062.42 1593.15 1058.92 1609.16C1057.18 1611.27 1053.73 1614.91 1051.35 1616.12C1038.95 1622.44 1009.77 1620.95 997.043 1617.17C994.017 1614.39 991.514 1611.3 988.829 1608.19C986.844 1598.33 988.02 1588.55 985.818 1578.97L984.694 1578.5C977.972 1581.44 975.554 1585.49 971.05 1590.68C959.12 1604.4 951.792 1620.18 951.57 1638.79C951.209 1669.04 951.907 1699.79 951.8 1730.22L951.52 1785.85C951.461 1797.12 950.98 1811.93 952.236 1822.83C953.559 1834.08 956.975 1844.98 962.307 1854.97C982.608 1892.3 1028.06 1902.08 1064.4 1881.87C1094.73 1861.01 1097.89 1845.03 1101.79 1811.08C1118.21 1811.27 1134.63 1811.27 1151.06 1811.07C1150.24 1869.77 1123.26 1915.15 1066.87 1936.67C1036.61 1948.22 1002.47 1944.82 973.446 1931.09C943.29 1917.08 920.166 1891.36 909.433 1859.88C900.873 1835.08 901.962 1813.15 902.019 1787.51L902.093 1725.61L901.988 1668.62C901.953 1655.08 901.661 1642.02 902.82 1628.5C907.154 1577.94 938.959 1536.57 987.57 1520.24C987.488 1507.65 987.299 1495.07 987.004 1482.48C970.205 1482.14 965.697 1485.27 947.858 1481.09C945.129 1478.66 940.607 1474.1 939.563 1470.6C926.11 1425.5 912.717 1377.51 902.319 1331.74C896.945 1300.4 905.508 1268.53 923.912 1243.42C947.739 1210.9 973.713 1198.47 1012.28 1192.43ZM1031.45 1352.39C1045.13 1349.68 1056.28 1339.79 1060.6 1326.53C1064.93 1313.27 1061.76 1298.71 1052.31 1288.45C1042.86 1278.19 1028.61 1273.84 1015.04 1277.06C994.595 1281.91 981.798 1302.24 986.272 1322.78C990.745 1343.31 1010.84 1356.48 1031.45 1352.39Z"/><path transform="scale(0.5 0.5)" d="M1020.14 854.222C1088.37 852.142 1145.36 905.789 1147.41 974.023C1149.45 1042.26 1095.78 1099.22 1027.54 1101.23C959.354 1103.24 902.439 1049.61 900.395 981.427C898.351 913.241 951.951 856.3 1020.14 854.222ZM1032.21 1015.55C1052.92 1011.12 1066.2 990.84 1061.98 970.085C1057.76 949.329 1037.6 935.848 1016.81 939.867C995.72 943.942 982.009 964.439 986.291 985.485C990.574 1006.53 1011.2 1020.04 1032.21 1015.55Z"/><path transform="scale(0.5 0.5)" d="M1109.26 301.358C1125.64 300.388 1143.2 301.204 1159.61 301.236C1174.52 301.161 1186.67 309.822 1187.02 325.744C1187.72 357.418 1188.47 390.042 1187.24 421.693C1186.7 435.521 1176.22 442.874 1163.3 444.372C1147.77 444.586 1108.76 446.898 1094.81 439.585C1082.76 432.506 1080.9 407.915 1082.99 395.67C1088.15 365.393 1067.21 306.795 1109.26 301.358Z"/><path transform="scale(0.5 0.5)" d="M1101.75 1668.48C1117.19 1668.22 1132.39 1668.01 1148.05 1667.96C1164.04 1667.9 1168.38 1674.1 1170.46 1689.86C1172.01 1701.65 1170.7 1714.96 1171.02 1727C1171.42 1741.66 1171.4 1756.64 1171.11 1771.31C1170.67 1783.26 1168.34 1785.66 1159.8 1793.15C1155.71 1793.77 1151.38 1794.23 1147.25 1794.74C1133.83 1796.07 1119.36 1794.86 1105.87 1794.93C1073.66 1795.11 1079.77 1760.11 1079.96 1738.1L1079.95 1683.39C1085.06 1673.21 1091.09 1670.34 1101.75 1668.48Z"/><path transform="scale(0.5 0.5)" d="M901.078 1048.35C904.054 1049.36 908.355 1056.13 910.742 1059.06C920.084 1070.73 930.667 1081.36 942.304 1090.76C944.486 1119.76 942.905 1170.52 942.334 1200.34C934.474 1207.37 927.096 1214.86 919.623 1222.29C911.768 1230.49 906.755 1239.26 900.97 1248.88C900.402 1236.13 901.091 1219.86 901.233 1206.88C901.429 1184.65 901.501 1162.42 901.448 1140.2C901.415 1115.53 899.461 1071.27 901.078 1048.35Z"/><path transform="scale(0.5 0.5)" d="M1144.74 1049.68C1146.35 1051.62 1146.42 1052.85 1146.39 1055.43C1145.6 1119.21 1146.96 1183.06 1146.4 1246.83C1139.73 1236.86 1135.95 1230.85 1128.12 1221.59C1124.14 1216.49 1110.1 1204.28 1104.75 1199.54C1103.95 1184.25 1101.59 1099.11 1106.99 1091.78C1110.67 1086.78 1116.37 1082.29 1120.88 1077.97C1130.1 1069.14 1137.89 1060.46 1144.74 1049.68Z"/></svg>