<?xml version="1.0" encoding="utf-8" ?><svg xmlns="http://www.w3.org/2000/svg" xmlns:xlink="http://www.w3.org/1999/xlink" width="1122" height="1402" viewBox="0 0 1122 1402"><path fill="#281E17" d="M0 0L1122 0L1122 1402L0 1402L0 0Z"/><path fill="#F5F1E7" d="M6.81079 6.78304L1115.74 6.73794L1115.77 1176.81L299.347 1176.77C302.681 1148.44 304.2 1119.43 305.468 1090.95C307.518 1052.64 307.794 1014.26 306.295 975.926C305.157 951.475 301.024 926.746 300.102 903.713C304.886 903.255 307.429 902.765 312.141 901.693C313.451 903.867 314.813 906.46 315.932 908.75C323.339 923.899 331.588 937.852 340.621 952.095C345.021 959.234 358.556 982.289 365.47 985.228C372.781 983.094 400.708 955.12 404.089 947.693C414.325 925.205 384.357 942.077 377.618 944.352C373.156 942.988 367.491 940.706 364.599 936.696C352.579 919.859 347.844 896.549 338.034 878.411C332.313 867.834 302.921 865.619 290.702 862.24C286.779 847.724 283.945 816.502 285.051 801.556C296.769 790.387 292.999 787.815 285.363 775.4C286.335 760.724 288.215 741.973 291.521 727.794C296.528 706.32 302.539 689.2 305.68 667.055C310.515 638.056 305.155 609.522 287.49 585.788C283.571 580.523 273.621 572.607 267.283 577.982C267.031 580.857 280.865 593.099 283.589 597.188C312.073 639.46 289.909 687.652 281.239 731.113C274.421 765.293 284.404 791.844 240.107 799.884C229.032 801.894 222.492 803.371 212.372 796.907C216.364 792.37 218.525 790.494 223.466 787.139C222.882 783.492 222.049 778.788 221.692 775.22C221.764 772.692 220.414 765.246 222.035 763.458C224.618 761.153 224.981 757.533 224.326 754.351C218.816 727.78 162.796 737.406 172.492 766.124C175.013 773.589 180.559 777.609 185.159 783.679L185.582 784.246C168.962 809.371 171.503 831.422 183.524 857.814C187.923 869.044 195.219 884.757 192.642 896.975C190.119 908.939 189.337 915.867 189.892 927.89C192.821 921.237 194.136 910.344 195.242 902.981C200.99 918.827 201.365 936.117 205.851 952.304C207.658 958.824 209.696 964.978 212.124 971.293C215.071 950.533 205.68 936.797 203.616 917.313C203.453 915.772 204.8 914.629 205.849 913.786C216.54 912.65 238.098 941.964 244.077 940.122C246.024 933.011 233.344 924.45 228.949 920.082C227.643 918.784 226.061 916.094 225.022 914.513C226.226 913.494 234.698 913.861 237.188 913.766C247.215 913.383 257.984 907.812 268.271 904.757C268.685 917.957 269.817 931.572 269.875 944.721C270.217 1023.01 267.446 1099.54 255.018 1176.79L6.77884 1176.8L6.81079 6.78304Z"/><path fill="#4B261C" d="M311.364 129.09C329.17 127.573 359.643 128.885 378.479 128.661C450.604 127.802 514.206 127.86 580.204 162.299C646.804 197.753 696.843 257.911 719.575 329.854C742.256 404.179 734.895 484.434 699.073 553.393C665.664 617.143 608.777 669.666 539.507 691.339C587.662 753.062 635.463 815.061 682.908 877.332L721.003 927.308C732.554 942.594 749.13 960.054 746.19 980.432C741.209 1014.95 706.24 1031.07 674.248 1026.56C640.659 1021.83 630.228 1003.68 611.401 979.105L577.503 934.891L465.161 789.951L299.343 577.645L402.094 578.65C449.661 578.657 488.58 583.762 530.848 559.714C569.619 537.383 598.043 500.689 609.973 457.566C621.957 414.198 616.096 367.837 593.696 328.816C571.442 290.594 535.007 262.696 492.304 251.179C479.231 247.775 465.881 245.537 452.413 244.491C429.324 242.561 400.684 243.202 376.904 243.221C351.521 243.242 318.922 241.954 294.697 246.024C278.08 248.697 262.079 254.338 247.459 262.677C220.444 278.331 201.961 301.083 193.392 331.221C190.494 341.412 188.87 351.565 186.141 361.781L182.938 361.037C167.592 357.542 151.85 354.906 137.767 363.474C120.642 373.893 125.43 391.372 122.64 408.19C122.152 411.132 121.035 413.168 118.495 414.787C103.281 415.618 93.3949 363.214 92.5654 350.405C89.0078 295.47 118.875 241.884 153.854 201.873C194.139 155.794 251.13 132.357 311.364 129.09Z"/><path fill="#4B261C" d="M806.539 789.947L883.715 790.018C927.147 790.004 1005.54 780.833 1012.36 840.266C1015.91 871.187 1002.09 890.109 974.071 900.763C976.155 901.222 978.212 901.796 980.233 902.481C1016.01 914.285 1028 948.325 1016.42 982.587C1013.79 989.515 1009.72 995.809 1004.48 1001.06C978.209 1027.18 930.068 1022.38 895.866 1022.34L806.241 1022.41C808.467 1005.08 808.199 988.393 808.192 971L808.074 913.167L808.13 847.705C808.145 828.076 808.32 809.532 806.539 789.947Z"/><path fill="#F5F1E7" d="M883.471 926.982C897.699 926.722 927.599 923.965 939.483 933.93C947.474 940.631 945.228 953.174 938.302 960.712C927.448 968.658 898.737 966.605 884.831 966.539C882.234 954.303 882.809 939.551 883.471 926.982Z"/><path fill="#F5F1E7" d="M882.589 844.793C895.706 844.662 910.353 843.812 923.162 846.13C937.001 848.634 940.53 863.358 931.454 873.493C919.75 880.007 896.546 878.245 882.534 878.126C882.453 867.015 882.472 855.904 882.589 844.793Z"/><path fill="#4B261C" d="M871.76 247.267L941.395 247.209C950.055 269.631 960.932 293.718 970.632 315.9L1012.68 412.317C1020.65 430.606 1030.82 452.637 1037.72 471.133L958.123 471.073C954.387 461.322 949.245 447.037 944.575 437.273C943.913 435.89 941.775 436.224 940.077 436.172L864.222 436.304C859.983 447.718 854.975 459.756 850.477 471.147L772.722 471.096L827.323 347.342C841.964 313.908 856.777 280.549 871.76 247.267Z"/><path fill="#F5F1E7" d="M904.495 330.31C907.097 332.552 924.563 379.15 927.228 386.22L906.321 386.347L882.522 386.282C889.553 367.512 896.879 348.852 904.495 330.31Z"/><path fill="#4B261C" d="M807.927 517.05C833.498 517.832 859.086 517.897 884.662 517.244C882.773 540.549 883.812 576.141 883.779 600.585C883.747 624.9 882.474 664.186 885.919 686.709L987.218 686.673C987.2 706.442 987.294 726.212 987.5 745.98C969.22 745.377 947.416 745.987 928.884 745.966L807.579 745.879C808.411 733.612 808.712 721.215 808.479 708.928C807.272 645.319 810.299 580.512 807.927 517.05Z"/><path fill="#4B261C" d="M161.117 369.072C168.165 368.276 185.776 370.62 189.824 377.877C192.106 381.97 194.528 391.202 196.026 396.05L205.782 427.729L236.187 524.378C259.139 540.151 256.277 559.372 255.881 584.488C265.27 594.124 272.856 603.043 278.926 615.273C290.387 638.367 285.226 670.628 276.749 694.402C269.721 692.655 264.642 691.226 257.875 688.689C254.339 687.34 250.869 685.824 247.477 684.147C208.102 664.92 184.976 629.689 174.363 588.182C170.414 572.736 170.713 562.078 177.744 547.755C169.221 514.353 157.706 480.564 148.11 447.381C144.262 434.074 139.792 420.076 135.788 406.804C128.992 384.275 140.656 374.036 161.117 369.072Z"/><path fill="#F5F1E7" d="M211.131 547.194C220.202 545.057 229.307 550.603 231.571 559.643C233.834 568.683 228.416 577.865 219.409 580.255C213.469 581.83 207.141 580.086 202.847 575.69C198.553 571.293 196.959 564.926 198.675 559.025C200.39 553.124 205.15 548.603 211.131 547.194Z"/><path fill="#F5F1E7" d="M273.546 1104.37C276.476 1065.71 278.149 1026.97 278.563 988.205L278.546 941.974C278.493 932.531 276.624 911.322 282.824 904.208C288.194 902.674 291.252 916.013 291.856 919.9C299.257 967.5 298.208 1016.24 297.437 1064.25C297.19 1079.65 295.785 1094.84 295.637 1109.95C292.108 1110.8 275.479 1106.32 273.546 1104.37Z"/><path fill="#4B261C" d="M333.543 1349.64C394.741 1348.69 458.42 1349.47 519.806 1349.47L842.391 1349.77L966.107 1349.93C976.93 1349.95 1010.53 1349.1 1019.25 1350.82L1018.89 1351.26C1008.89 1352.14 997.833 1351.79 987.719 1351.77L944.126 1351.86L790.842 1352L311.342 1351.88L163.873 1351.74L124.649 1351.7C120.718 1351.72 105.254 1352.84 103.548 1350.41C108.418 1349.64 121.55 1349.96 126.904 1349.97L166.658 1349.94L333.543 1349.64Z"/><path fill="#F5F1E7" d="M174.221 1255.61C198.506 1254.12 193.919 1272.89 194.392 1290.42C194.717 1302.46 195.698 1313.21 181.883 1316.95C157.367 1318.52 162.034 1299.42 161.593 1282.21C161.266 1269.44 160.468 1259.82 174.221 1255.61Z"/><path fill="#281E17" d="M175.531 1264.37C178.649 1264.35 180.298 1264.14 182.567 1266.15C185.297 1271.54 183.969 1294.79 183.827 1302.03C183.767 1305.07 182.8 1306.57 180.538 1308.41C177.296 1308.3 175.941 1308.46 173.564 1306.52C170.556 1300.99 172.132 1278.67 172.168 1271.63C172.186 1268.09 172.959 1266.54 175.531 1264.37Z"/><path fill="#F5F1E7" d="M824.088 1256.19C826.341 1256.19 832.737 1256.4 834.715 1256.06C853.761 1252.75 863.77 1271.47 849.337 1284.99C858.666 1290.41 858.386 1299.32 855.751 1308.43C848.268 1319.28 836.055 1316.58 824.157 1316.38L824.088 1256.19Z"/><path fill="#281E17" d="M834.481 1289.62C836.528 1289.57 839.678 1289.42 841.558 1290.07C843.655 1290.77 845.374 1292.3 846.32 1294.3C847.833 1297.5 846.574 1302.51 845.478 1305.71C831.198 1314.25 834.268 1298.53 834.481 1289.62Z"/><path fill="#281E17" d="M834.514 1264.49C844.406 1264.68 849.602 1269.59 843.571 1279.24C840.479 1280.78 837.796 1281.81 835.12 1279.47C833.574 1275.75 834.347 1268.87 834.514 1264.49Z"/><path fill="#F5F1E7" d="M942.247 1255.61C966.551 1254.27 961.478 1274.26 961.972 1291.19C962.331 1303.49 963.025 1313.48 949.171 1316.99C927.362 1318.14 929.147 1303.44 929.607 1287.15C929.999 1273.28 925.461 1260.61 942.247 1255.61Z"/><path fill="#281E17" d="M942.928 1264.41C946.37 1264.34 947.869 1264.19 950.337 1266.45C953.119 1271.57 951.16 1294.78 951.402 1301.63C951.507 1304.61 950.616 1306.22 948.534 1308.3C944.556 1308.37 943.805 1308.44 941.073 1306.2C938.265 1300.68 940.287 1277.95 940.019 1270.83C939.913 1268.01 940.94 1266.35 942.928 1264.41Z"/><path fill="#F5F1E7" d="M730.809 1255.61C752.422 1254.75 750.776 1268.69 750.271 1285.32C749.853 1299.08 754.613 1312.41 737.671 1317C713.18 1318.36 718.585 1298.78 718.037 1281.86C717.628 1269.23 717.098 1259.58 730.809 1255.61Z"/><path fill="#281E17" d="M731.399 1264.44C734.879 1264.36 736.361 1264.15 738.855 1266.4C741.645 1271.89 739.635 1294.6 739.887 1301.68C739.992 1304.63 739.026 1306.26 736.966 1308.31C733.628 1308.32 732.154 1308.51 729.701 1306.4C726.821 1301.48 728.753 1277.64 728.558 1270.88C728.475 1268.02 729.418 1266.43 731.399 1264.44Z"/><path fill="#F5F1E7" d="M889.629 1255.6C913.247 1254.11 908.849 1272.57 909.231 1289.47C909.52 1302.23 911.114 1312.92 896.474 1316.97C872.705 1318.35 877.213 1299.71 876.879 1282.66C876.631 1269.99 875.46 1259.75 889.629 1255.6Z"/><path fill="#281E17" d="M890.265 1264.37C893.604 1264.31 895.059 1264.11 897.514 1266.21C898.519 1267.88 899.093 1271.19 898.889 1273.07C897.988 1281.33 901.382 1302.6 895.857 1308.33C888.079 1308.52 886.391 1305.56 887.063 1297.62C887.748 1289.5 884.712 1269.73 890.265 1264.37Z"/><path fill="#F5F1E7" d="M273.239 1105.64L273.546 1104.37C275.479 1106.32 292.108 1110.8 295.637 1109.95L295.373 1112.33C294.309 1131.13 292.872 1158.51 289.925 1176.81L264.057 1176.75C268.561 1152.85 271.092 1129.81 273.239 1105.64Z"/><path fill="#DCD2C8" d="M273.239 1105.64L273.546 1104.37C275.479 1106.32 292.108 1110.8 295.637 1109.95L295.373 1112.33C293.73 1111.44 277.418 1107.17 273.239 1105.64Z"/><path fill="#F5F1E7" d="M108.941 1256.23C125.898 1255.92 143.907 1252.91 141.076 1277.52C140.412 1283.3 138.421 1285.71 134.024 1289.13L143.069 1316.42L132.539 1316.45L130.705 1310.41C129.505 1306.45 126.217 1291.34 121.615 1290.89C117.94 1293.93 119.136 1311.15 119.214 1316.4L108.922 1316.41L108.941 1256.23Z"/><path fill="#281E17" d="M119.154 1264.79C131.447 1264.81 133.783 1270.23 129.311 1281.3C125.662 1283.07 123.166 1282.81 119.159 1282.85L119.154 1264.79Z"/><path fill="#F5F1E7" d="M214.932 1256.15C221.938 1256.04 236.148 1254.89 242.238 1258.6C249.991 1263.32 250.78 1279.21 245.511 1286.14C240.784 1292.37 232.565 1290.88 225.705 1291.8L225.194 1291.87L225.056 1316.36L214.925 1316.44L214.932 1256.15Z"/><path fill="#281E17" d="M225.691 1264.7C227.906 1264.75 231.984 1264.68 233.933 1265.53C240.844 1268.55 239.207 1276.27 236.337 1281.61C232.506 1283.21 229.233 1282.93 225.125 1282.92C225.122 1278.71 224.826 1268.33 225.691 1264.7Z"/><path fill="#F5F1E7" d="M352.255 1256.15L365.289 1256.13C367.575 1273.41 373.178 1298.81 376.631 1316.43L366.532 1316.44C366.166 1312.27 365.223 1307.05 364.583 1302.84L352.783 1302.93L350.715 1316.43L340.579 1316.41C344.643 1300.22 349.014 1273.09 352.255 1256.15Z"/><path fill="#281E17" d="M358.45 1269.76C359.934 1271.65 362.649 1290.27 362.405 1293.36L360.928 1294.07C358.737 1294.02 356.543 1294.23 354.668 1293.2C354.646 1289.04 357.557 1274.74 358.45 1269.76Z"/><path fill="#F5F1E7" d="M783.575 1255.61C798.607 1254.85 802.399 1261.75 802.494 1275.55C799.155 1275.66 796.479 1275.91 793.181 1275.31C792.21 1270.81 791.905 1265.36 787.41 1263.49C777.334 1264.61 782.155 1282.49 781.176 1289.89C780.443 1295.43 779.961 1305.61 785.509 1308.43C787.924 1308.45 787.848 1308.54 789.947 1307.46C792.812 1304.2 794.426 1297.07 791.202 1293.73C789.183 1293.58 787.594 1293.72 785.98 1292.6C785.087 1290.33 785.598 1289.21 786.088 1286.69L787.401 1285.87L802.866 1285.86C802.873 1290.06 803.23 1313.61 802.388 1315.94C799.343 1316.88 798.529 1315.94 796.602 1314.02C793.729 1313.61 790.098 1316.65 787.131 1317.08C766.016 1320.16 771.354 1289.83 770.791 1277.1C770.298 1265.94 771.828 1258.56 783.575 1255.61Z"/><path fill="#F5F1E7" d="M982.407 1256.14L992.681 1256.12L992.654 1279.3L1004.47 1256.15L1014.82 1256.15L1003.23 1278.27C1007.25 1289.62 1010.96 1301.32 1014.84 1312.76C1015.27 1314.21 1015.26 1314.14 1015.21 1315.64C1013.06 1317.22 1008.59 1316.55 1005.67 1316.44L997.08 1287.93L992.675 1295.54L992.642 1316.38L982.393 1316.44L982.407 1256.14Z"/><path fill="#F5F1E7" d="M405.428 1255.63C406.27 1255.56 407.113 1255.52 407.957 1255.5C422.927 1255.14 425.294 1263.78 425.257 1276.47L415.11 1276.38C415.081 1271.56 415.368 1261.66 407.367 1264.63C405.414 1266.64 404.142 1269.28 404.072 1271.95C403.925 1277.59 402.748 1303.03 405.591 1306.84C414.747 1312.44 415.152 1303.24 415.1 1297.18C415.13 1296.3 415.256 1296.35 415.67 1295.47C418.405 1294.58 422.312 1294.98 425.315 1295.07C425.363 1302.11 425.179 1313.01 417.936 1315.46C399.083 1321.91 391.883 1309.81 393.595 1292.4C395.025 1277.85 387.747 1262.13 405.428 1255.63Z"/><path fill="#F5F1E7" d="M458.229 1255.65C459.142 1255.59 460.056 1255.56 460.971 1255.54C475.445 1255.27 477.973 1264.26 477.767 1276.43L467.547 1276.45C467.708 1271.13 468.03 1264.61 460.784 1264.12C455.413 1266.76 456.386 1274.45 456.537 1280.04C456.716 1286.72 454.373 1305.55 460.422 1309.15C467.457 1308.87 467.731 1302.33 467.583 1297.09L468.055 1295.55C470.773 1294.63 474.813 1295 477.82 1295.06C477.869 1299.64 478.052 1304.84 476.466 1308.85C472.096 1319.88 450.824 1320.72 447.572 1307.85C445.822 1301.42 446.105 1293.87 446.401 1287.14C446.993 1273.67 442.207 1260.62 458.229 1255.65Z"/><path fill="#F5F1E7" d="M271.253 804.145C273.288 804.161 273.319 804.208 275.179 804.71C275.764 806.046 276.191 815.946 276.137 817.648C275.881 825.689 280.839 853.232 274.241 858.553C268.775 854.692 272.365 839.897 258.601 840.903C249.751 842.176 239.268 836.403 231.798 832.004C246.859 825.578 259.815 815.714 271.253 804.145Z"/><path fill="#F5F1E7" d="M499.172 1256.17L527.353 1256.15L527.272 1265.08L509.461 1265.18L509.382 1280.66L522.703 1280.66L522.632 1289.68L509.389 1289.69L509.437 1305.59L509.523 1306.42C511.532 1308.37 524.777 1307.54 528.43 1307.5L528.389 1316.42L499.235 1316.43L499.172 1256.17Z"/><path fill="#F5F1E7" d="M268.301 1256.17L296.418 1256.13L296.377 1265.16L278.359 1265.08L278.429 1280.56L291.614 1280.68L291.598 1289.68L278.459 1289.71L278.304 1304.96C278.322 1305.63 278.606 1306.25 278.827 1306.94C282.119 1308.1 293.018 1307.55 297.198 1307.45L297.154 1316.42L268.308 1316.4L268.301 1256.17Z"/><path fill="#F5F1E7" d="M558.015 1255.67C571.219 1254.99 574.088 1258.01 578.112 1270.12L568.087 1271.2C566.731 1266.66 561.881 1261.19 557.593 1265.86C552.233 1272.85 565.242 1281.75 569.347 1285.88C581.089 1297.7 583.46 1313.33 563.184 1317.14C550.769 1316.79 547.639 1311.73 545.218 1300.56L555.062 1299.46C556.092 1303.96 558.467 1310.2 564.64 1308.03C565.916 1307.57 566.944 1306.6 567.477 1305.36C570.975 1297.16 556.786 1289.11 552.206 1283.37C543.648 1272.65 542.84 1261.08 558.015 1255.67Z"/><path fill="#F5F1E7" d="M608.129 1255.67C620.701 1255.23 623.582 1258.04 626.972 1269.94C624.223 1270.38 620.254 1270.66 617.387 1270.93C613.633 1257.74 600.013 1266.55 608.77 1276.61C614.44 1283.13 625.471 1288.89 626.807 1297.54C628.769 1310.22 623.588 1315.35 611.794 1317.16C599.55 1316.67 596.687 1311.18 594.955 1300.26C598.026 1300.05 601.213 1299.64 604.282 1299.3C604.816 1301.46 606.022 1306.76 607.934 1307.33C620.154 1310.95 619.293 1299.39 612.021 1293.21C603.08 1285.61 591.028 1275.31 597.748 1262.62C600.028 1258.32 603.777 1256.94 608.129 1255.67Z"/><path fill="#4B261C" d="M599.503 1218.88L896.343 1219.19L978.402 1219.25C986.546 1219.25 1011.66 1218.78 1018.08 1219.87L1018.46 1220.47C1014.99 1221.64 1011.21 1221.28 1007.51 1221.21L690.337 1221.52C678.722 1221.52 593.354 1222.58 588.027 1220.5L588.426 1219.71C591.771 1218.45 595.853 1218.83 599.503 1218.88Z"/><path fill="#4B261C" d="M370.174 1218.88L483.395 1218.92C493.792 1218.94 527.417 1217.95 535.827 1220.28L535.858 1220.98C529.609 1221.76 514.24 1221.47 507.459 1221.49L453.854 1221.54L270.916 1221.36L163.611 1221.23C147.613 1221.23 121.697 1222.06 106.321 1220.88L105.793 1219.95L105.421 1219.99L105.311 1220.74L104.719 1220.11L104.681 1220.61L104.189 1220.39L105.352 1219.83L105.374 1220.58L106.019 1219.72C113.26 1218.86 126.935 1219.27 134.81 1219.28L185.366 1219.24L370.174 1218.88Z"/><path fill="#F5F1E7" d="M674.21 1256.17L684.299 1256.16C684.516 1273.14 684.357 1290.47 684.378 1307.47L701.061 1307.39L701.044 1316.41L674.199 1316.42C673.889 1296.69 674.099 1275.92 674.21 1256.17Z"/><path fill="#4B261C" d="M560.984 1208.73C563.024 1209.79 569.993 1217.87 572.262 1220.25L561.637 1231.74C559.648 1230.6 552.149 1222.41 550.184 1220.34L560.984 1208.73Z"/><path fill="#865844" d="M185.879 786.781C191.959 787.714 198.215 787.993 205.006 789.079C207.433 791.17 209.592 792.634 211.097 795.43C203.205 792.42 194.289 790.171 186.07 788.087L185.879 786.781Z"/><path fill="#DCD2C8" d="M205.051 766.381C207.551 768.118 209.12 777.424 209.561 780.604C206.651 778.131 205.489 770.089 205.051 766.381Z"/></svg>