<?xml version="1.0" encoding="utf-8" ?><svg xmlns="http://www.w3.org/2000/svg" xmlns:xlink="http://www.w3.org/1999/xlink" width="2750" height="2750" viewBox="0 0 2750 2750"><path fill="#090909" transform="scale(5.37109 5.37109)" d="M103.118 19.2195L393.407 19.2288C405.051 19.1755 413.589 18.1359 422.08 27.8138C432.311 39.2248 428.71 67.2615 428.7 82.4241L428.7 114.812C428.716 129.863 430.764 152.025 409.509 154.211C404.027 154.775 397.614 154.511 392.03 154.506L120.456 154.498C106.225 154.497 92.0463 157.019 81.6737 145.016C75.9761 138.423 75.2521 131.554 75.4654 123.177C75.7009 113.932 74.7341 102.822 75.4724 93.9256C76.6768 93.8437 77.7605 93.8935 78.9631 93.9256C78.71 97.0547 78.9407 101.366 78.9482 104.646L78.9631 125.812L78.9596 126.054C78.8626 143.085 90.736 150.959 106.11 151.028L397.613 151.058C424.316 151.158 425.54 142.884 425.54 120.125L425.531 101.255C415.073 121.369 397.266 118.335 378.11 118.336L118.902 118.352C85.1395 118.355 78.9083 105.779 78.9649 73.8807L78.839 52.631C78.5992 35.1741 82.3153 19.4243 103.118 19.2195ZM410.041 111.476C411.141 111.513 413.388 111.615 414.388 111.476C415.492 110.486 416.861 109.306 415.368 107.95C392.723 87.3964 381.438 92.9698 355.367 96.3786C320.741 101.504 297.231 100.872 262.741 96.1321C246.599 94.2925 226.186 87.6057 210.324 96.4057C159.563 124.567 154.025 86.071 122.996 91.9975C115.896 97.8403 130.527 97.6184 131.755 97.8759C152.386 102.204 164.472 116.166 188.655 112.102C196.707 110.943 203.316 106.501 210.285 102.741C227.375 93.5205 245.092 99.0102 262.747 101.814C294.435 106.847 325.566 106.888 357.255 101.811C382.001 97.8462 390.648 94.1542 410.041 111.476ZM108.372 91.0474C112.996 87.8872 116.949 86.9192 122.501 87.2734C132.584 87.9168 130.788 79.804 119.619 80.8683C97.1814 83.4504 97.5685 98.7353 108.372 91.0474ZM106.319 111.476C116.174 109.568 120.511 100.8 113.456 101.255C110.693 102.452 95.2459 110.302 106.319 111.476Z"/><path fill="#090909" transform="scale(5.37109 5.37109)" d="M429.876 48.9342C458.967 57.2295 457.591 75.4926 457.601 101.873L457.595 139.719C457.464 169.952 443.667 180.319 416.627 185.468L286.128 209.12C261.161 213.731 264.892 219.82 264.919 240.896L264.912 285.189C272.761 285.979 284.03 286.849 283.911 297.205L284.312 385.374C284.421 391.452 284.824 398.304 285.035 404.47L287.432 465.371C288.321 486.093 285.314 491.249 263.352 491.264L233.962 491.246C214.514 491.202 211.346 485.4 211.681 466.651L214.168 388.23C214.308 384.493 214.209 380.492 214.267 376.713L215.323 335.125C215.724 322.297 215.863 309.607 215.84 296.77C215.821 286.791 229.734 285.723 237.24 285.189C237.04 282.027 237.217 278.199 237.224 274.955L237.241 235.758C237.18 198.714 250.458 186.847 284.859 180.703C286.613 180.529 290.113 179.793 291.954 179.469L305.033 177.22C325.1 173.8 345.1 169.756 365.106 166.015C378.695 163.474 392.511 161.907 406.039 158.869C426.004 154.386 430.807 155.009 430.542 133.378L430.511 68.1242C441.917 77.913 439.27 88.8942 439.245 102.496L439.272 138.664C439.161 158.6 427.982 163.623 411.519 166.698L312.548 184.668C289.39 188.808 251.978 189.213 246.754 218.004C245.235 226.377 245.745 237.146 245.745 245.972L245.747 289.599C258.994 292.204 256.473 286.244 256.498 275.132L256.491 245.874C256.484 238.969 255.641 223.925 257.713 217.959C263.829 200.349 282.273 201.601 297.371 198.739L362.893 186.693C376.397 184.349 389.892 182.034 403.247 179.262C438.6 171.924 448.991 171.433 449.016 133.455L449.017 95.4621C449.044 77.2041 449.198 64.5525 429.876 58.0157C429.689 55.7495 429.847 51.332 429.876 48.9342ZM234.381 354.006C233.159 352.843 232.926 352.652 231.448 351.774L228.955 351.774C223.625 355.886 225.763 363.615 225.764 370.511L225.755 401.385C225.76 413.815 225.64 425.524 224.656 437.942C224.029 445.852 225.025 454.759 224.568 462.753C224.538 465.835 223.014 476.765 229.905 474.834C236.79 470.707 233.418 430.692 233.867 420.543C234.576 404.541 234.491 388.468 234.375 372.443C234.335 366.86 234.873 359.347 234.381 354.006ZM231.448 342.335C236.745 340.141 234.676 317.19 234.28 311.702C234.025 308.164 233.205 305.548 228.955 305.769C224.675 308.871 225.644 312.675 225.733 317.557C225.86 324.565 222.222 343.74 231.448 342.335ZM237.24 291.638C227.274 293.305 212.374 294.397 231.448 298.17C244.337 299.866 268.731 301.569 279.688 293.543C273.417 293.243 270.612 292.311 264.912 291.638C263.209 300.634 247.158 298.398 240.807 296.748C237.66 295.93 237.466 294.592 237.24 291.638Z"/><path fill="#090909" transform="scale(5.37109 5.37109)" d="M65.6456 52.2349C68.975 52.0546 74.339 52.1129 77.7345 52.2349C77.6772 54.4676 77.7292 56.8829 77.7345 59.1303C72.9334 59.4871 63.1297 57.1572 62.9366 64.4063C62.1453 94.1117 68.2293 78.0775 77.6262 83.4569L77.7345 84.1875L77.7345 90.2529C61.7558 89.9783 55.4354 90.8395 55.4799 73.052C55.5038 63.4815 54.1516 55.4788 65.6456 52.2349Z"/></svg>