<?xml version="1.0" encoding="utf-8" ?><svg xmlns="http://www.w3.org/2000/svg" xmlns:xlink="http://www.w3.org/1999/xlink" width="2048" height="2048" viewBox="0 0 2048 2048"><path transform="scale(2 2)" d="M511.949 79.4826C555.888 67.5764 583.737 65.0776 629.047 66.1884C660.75 67.1136 692.418 68.9818 724.009 71.7906C756.08 74.3376 788.444 75.3867 820.544 77.6233C822.983 77.7933 825.431 77.9375 827.874 78.0476C849.433 79.1707 871.033 79.2345 892.598 78.2389C901.97 77.7386 911.242 76.2887 920.592 75.5546C926.784 75.0684 932.892 80.2429 932.953 86.4551C933.132 104.658 933.121 122.868 933.059 141.074L933.133 220.669L933.137 485.704L933.037 732.727L933.078 816.276C933.087 829.401 933.29 842.608 933.144 855.729C933.032 865.789 928.334 874.059 921.074 880.776C915.81 885.389 906.357 890.469 899.276 890.888C868.494 892.712 835.985 888.664 805.377 886.631C748.343 882.844 691.799 877.787 634.769 875.053C590.703 874.341 554.846 876.135 512.449 888.157C511.547 888.413 482.243 881.594 478.496 880.926C454.721 876.559 430.583 874.471 406.411 874.691C360.678 875.029 308.539 879.863 262.531 883.413C241.952 885.139 221.356 886.671 200.748 888.009C183.588 889.237 131.592 893.935 117.86 889.878C107.519 886.823 99.9511 880.502 94.816 871.058C91.6195 865.18 90.6408 859.542 90.4985 852.903C90.0753 833.158 90.5742 813.313 90.5602 793.558L90.5255 662.411L90.5074 272.124L90.4669 139.335L90.4038 106.43C90.3728 99.191 89.4311 86.6403 91.3073 80.4088C99.3439 72.1047 114.001 77.2381 124.799 77.7796C212.767 82.1914 302.208 69.3657 390.054 66.2241C418.992 65.1431 450.496 66.3817 478.974 71.3788C489.248 73.1817 501.726 76.7382 511.949 79.4826ZM116.01 103.336C115.26 114.45 115.539 127.712 115.544 138.976L115.86 207.21L115.734 425.896L115.816 710.555L115.883 805.357C115.876 821.546 115.822 837.917 115.903 854.113C115.97 856.657 117.701 860.953 119.489 862.684C123.083 866.162 129.858 867.075 134.722 866.91C163.163 865.946 191.552 863.77 219.929 861.728C222.077 861.573 225.876 861.051 227.881 861.105C235.816 860.311 243.677 860.043 251.616 859.414L301.868 855.3C353.316 851.357 406.084 847.557 457.492 852.594C473.759 854.189 484.673 856.799 499.968 859.459C500.768 837.63 500.141 814.638 500.195 792.656C500.418 746.016 500.392 699.374 500.118 652.734L500.228 360.976L500.043 184.947L500.043 131.523C500.041 124.487 500.41 109.5 499.663 102.815C467.897 92.2949 421.042 89.0372 387.529 91.2795C368.01 91.9502 348.5 92.8871 329.005 94.09C272.055 98.156 215.297 104.456 158.042 104.874C144.106 104.976 129.924 103.7 116.01 103.336ZM524.047 103.151C523.508 128.523 523.857 155.016 523.894 180.456L523.854 285.625L523.934 612.357L523.875 780.66L523.935 830.942C523.949 838.222 523.603 852.659 524.477 859.413C538.357 856.788 550.651 854.367 564.759 852.741C600.253 848.652 631.746 850.13 667 851.998C697.131 853.478 727.229 855.557 757.277 858.235C774.331 859.599 791.345 860.425 808.375 861.796C813.154 862.181 820.459 862.255 824.879 862.879C837.936 863.98 850.934 864.527 864.061 865.158C874.649 865.666 886.095 866.67 896.669 865.805C899.065 865.609 902.265 864.185 904.073 862.575C907.204 859.786 907.9 855.862 907.912 851.823C907.951 838.365 907.894 824.873 907.889 811.409L907.918 727.976L908.066 420.634L907.911 206.19L907.99 138.812C908.005 127.649 908.379 113.899 907.864 102.952C879.394 103.991 851.156 105.129 822.688 102.722C818.673 102.382 814.53 102.164 810.503 101.968C781.197 100.701 751.912 98.9996 722.656 96.865C696.358 94.8796 670.261 92.5141 643.871 91.4632C629.712 90.8994 615.491 89.9495 601.296 90.717C580.414 91.8826 561.188 93.396 540.778 98.5202C535.832 99.7621 528.709 101.284 524.047 103.151Z"/><path transform="scale(2 2)" d="M178.325 340.191C190.416 339.714 205.152 340.048 217.434 340.032L294.942 340.083L387.555 340.012C392.963 340.014 436.366 339.497 438.996 340.981C440.028 345.182 439.564 360.539 438.892 365.025L178.071 365.051C177.678 361.762 176.558 342.116 178.325 340.191Z"/><path transform="scale(2 2)" d="M177.624 655.649C185.427 655.064 204.042 655.675 212.589 655.645C273.571 655.276 334.555 655.355 395.536 655.883C402.002 655.909 435.549 654.961 438.843 656.178C440.004 660.286 439.633 675.945 439.012 680.43C436.04 680.899 421.54 680.582 417.902 680.566L371.799 680.411C307.459 680.522 241.764 679.723 177.57 680.666C177.309 673.364 177.288 662.802 177.624 655.649Z"/><path transform="scale(2 2)" d="M177.573 183.317C183.686 182.584 198.443 183.01 205.196 183.014L258.371 183.013L438.569 182.987C438.255 185.831 438.095 205.401 438.678 207.659L270.057 207.933C239.348 207.672 208.637 207.624 177.928 207.788C177.642 199.634 177.524 191.475 177.573 183.317Z"/><path transform="scale(2 2)" d="M177.901 498.095C183.399 497.146 199.623 497.494 205.95 497.503L259.771 497.568C319 497.479 380.423 496.14 439.483 497.161L439.499 517.308C439.135 517.92 437.897 520.5 437.394 520.508C421.745 520.776 404.099 519.042 388.557 520.692L400.753 521.264C388.372 521.702 372.387 521.375 360.29 521.749C353.381 521.963 300.242 521.413 299.168 522.464C288.303 523.036 274.345 522.466 263.194 522.586C234.815 522.891 206.126 522.27 177.766 522.816C177.369 516.84 177.359 503.899 177.901 498.095Z"/><path transform="scale(2 2)" d="M177.9 261.592C184.794 261.309 193.532 261.538 200.611 261.505L249.993 261.293L438.726 261.452C438.272 264.296 438.084 283.417 438.607 285.891C423.375 285.383 407.08 285.915 391.706 285.942L302.941 286.001L221.669 285.964C207.52 285.922 192.225 285.35 178.265 285.855C177.7 278.596 177.881 268.927 177.9 261.592Z"/><path transform="scale(2 2)" d="M177.865 420.08C183.437 419.21 203.607 419.579 210.096 419.558L282.858 419.498L387.627 419.466L420.263 419.406C425.707 419.417 433.277 419.242 438.537 419.755C438.221 422.64 438.068 441.233 438.832 443.141C437.574 443.823 201.464 443.628 177.924 443.598C177.713 436.016 177.872 427.717 177.865 420.08Z"/><path transform="scale(2 2)" d="M177.44 735.306C181.948 734.785 196.596 735.138 201.979 735.108L259.137 735.002L438.802 734.893C438.411 737.659 438.028 757.175 438.76 759.073C408.857 758.236 376.2 759.07 346.065 759.042L177.287 759.105C176.863 751.728 177.122 742.715 177.44 735.306Z"/><path transform="scale(2 2)" d="M177.54 577.019L340.562 576.885L402.139 576.656C414.096 576.623 427.185 576.372 439.056 576.843C438.425 578.921 438.11 597.83 438.503 600.277C427.443 599.818 413.571 600.388 402.253 600.441L332.532 600.503L243.218 600.359C221.569 600.247 199.141 599.67 177.534 600.406C177.397 592.611 177.399 584.814 177.54 577.019Z"/><path transform="scale(2 2)" d="M299.168 522.464C300.242 521.413 353.381 521.963 360.29 521.749C372.387 521.375 388.372 521.702 400.753 521.264L388.557 520.692C404.099 519.042 421.745 520.776 437.394 520.508C437.897 520.5 439.135 517.92 439.499 517.308C439.414 519.097 439.623 520.497 438.494 521.766C436.433 522.541 307.572 523.348 299.168 522.464Z"/><path transform="scale(2 2)" d="M438.569 182.987C440.049 185.544 440.101 205.564 438.678 207.659C438.095 205.401 438.255 185.831 438.569 182.987Z"/><path transform="scale(2 2)" d="M438.802 734.893C440.222 737.039 440.056 756.564 438.76 759.073C438.028 757.175 438.411 737.659 438.802 734.893Z"/><path transform="scale(2 2)" d="M438.726 261.452C440.376 264.037 439.64 282.7 438.607 285.891C438.084 283.417 438.272 264.296 438.726 261.452Z"/><path transform="scale(2 2)" d="M438.537 419.755C439.979 422.866 440.112 439.974 438.832 443.141C438.068 441.233 438.221 422.64 438.537 419.755Z"/><path transform="scale(2 2)" d="M439.056 576.843C439.985 580.148 440.173 597.5 438.503 600.277C438.11 597.83 438.425 578.921 439.056 576.843Z"/><path transform="scale(2 2)" d="M584.944 183.086L755.854 182.875L802.514 182.824C817.333 182.69 831.995 182.32 846.826 182.846C846.348 185.326 846.106 205.464 846.798 207.692C836.132 207.513 824.957 207.495 814.275 207.686C738.071 209.046 661.343 206.46 585.203 207.968C584.641 201.2 584.941 190.18 584.944 183.086Z"/><path transform="scale(2 2)" d="M588.036 340.205L842.264 339.712C849.522 339.693 846.525 351.072 847.236 355.652C847.52 357.483 847.26 362.808 846.392 364.306L844.625 364.547C758.135 365.191 671.643 365.362 585.152 365.061C585.007 361.499 584.416 342.713 585.753 340.652L588.036 340.205Z"/><path transform="scale(2 2)" d="M585.962 498.128C631.431 497.638 677.418 498.469 722.932 498.42L802.052 498.417C816.571 498.433 832.395 498.177 846.831 498.633C847.709 504.558 847.717 516.959 846.833 522.898C838.36 522.629 828.524 522.882 819.911 522.881L768.446 522.916C707.412 523.508 646.373 523.506 585.339 522.909C585.026 518.584 584.267 501.184 585.962 498.128Z"/><path transform="scale(2 2)" d="M588.006 655.716C646.217 656.604 704.438 656.679 762.652 655.942L820.134 655.436C828.322 655.431 838.98 655.15 847.023 655.74C847.151 661.479 847.917 673.708 846.468 679.529C846.31 680.161 845.439 680.13 844.528 680.344C828.163 680.6 810.665 680.19 794.121 680.252L585.145 680.489C584.901 675.319 584.548 661.865 585.528 656.486C585.622 655.969 587.226 655.865 588.006 655.716Z"/><path transform="scale(2 2)" d="M585.045 261.531C588.894 260.981 605.116 261.434 610.17 261.425L667.095 261.355L846.519 261.422C845.973 266.82 847.258 281.16 845.843 285.113L844.466 285.766C831.881 285.201 816.103 285.631 803.375 285.653L724.436 285.922L638.967 285.93C621.372 285.87 603.121 285.475 585.576 285.933C584.992 278.039 585.048 269.439 585.045 261.531Z"/><path transform="scale(2 2)" d="M765.13 419.25C784.323 419.049 803.518 419.034 822.712 419.206C828.32 419.288 842.085 419.208 846.997 420.222C847.093 428.305 847.599 435.347 847.366 443.56C827.544 444.149 806.041 443.691 786.132 443.668L667.875 443.6L585.114 443.487C584.687 436.481 584.827 426.705 585.061 419.646C590.722 419.285 599.157 419.54 605.072 419.534L643.219 419.493L765.13 419.25Z"/><path transform="scale(2 2)" d="M585.429 735.063C601.125 734.418 621.919 734.961 638.055 734.933L755.832 735.03L816.236 734.992C823.342 734.988 841.194 734.555 847.1 735.58C847.188 743.386 847.144 751.192 846.97 758.996L585.015 758.953C584.967 752.999 584.635 740.585 585.429 735.063Z"/><path transform="scale(2 2)" d="M841.264 576.248C842.964 576.226 845.34 576.437 847.092 576.536C847.492 584.006 847.132 592.482 846.943 599.983L592.67 600.106L585.376 600.152C584.775 594.606 584.946 582.191 585.374 576.654C592.353 575.972 606.062 576.411 613.495 576.423L663.991 576.354L841.264 576.248Z"/><path transform="scale(2 2)" d="M846.826 182.846C848.106 184.98 848.184 205.783 846.798 207.692C846.106 205.464 846.348 185.326 846.826 182.846Z"/><path transform="scale(2 2)" d="M846.519 261.422C848.095 263.743 848.523 284.027 846.026 285.792L844.466 285.766L845.843 285.113C847.258 281.16 845.973 266.82 846.519 261.422Z"/><path transform="scale(2 2)" d="M946.576 123.174C957.14 125.696 967.166 135.085 973.785 143.106C982.157 153.253 990.716 170.302 991.641 183.577C992.425 194.843 991.91 208.974 991.906 220.531L991.931 293.566L991.925 533.104L991.961 770.078L992.025 848.815C992.019 861.787 992.558 876.503 991.585 889.233C989.213 920.267 959.913 947.111 929.227 948.804C923.682 949.11 918.033 948.722 912.431 948.591C905.172 948.459 897.912 948.42 890.652 948.474L787.353 948.151L457.571 948.189L200.947 948.427L128.383 948.438C93.6663 948.465 69.9067 952.941 45.9345 922.523C37.9206 912.488 32.9874 900.345 31.7323 887.564C30.7288 876.353 31.3924 858.523 31.3978 846.741L31.5231 768.853L31.5913 534.36L31.5388 297.558L31.5264 227.03C31.5246 211.985 30.9908 193.973 32.6886 179.332C36.3489 161.792 44.0479 147.379 57.5593 135.349C64.0185 129.598 68.4493 126.108 76.9114 123.774C77.4784 133.18 76.978 148.954 76.9806 159.061L76.9849 230.936L76.9079 648.339L76.9122 794.442C76.8981 820.759 76.4841 847.223 77.0639 873.522C77.477 892.257 95.5268 906.369 112.993 909.108C139.591 913.279 167.221 909.771 193.939 908.258C238.8 905.55 283.477 900.874 328.35 898.286C392.249 894.329 450.48 889.259 512.161 910.558C537.578 901.812 563.135 896.6 589.959 895.377C640.291 893.083 691.349 898.25 741.411 902.455C760.423 904.011 779.451 905.375 798.491 906.546C826.253 908.488 854.808 910.693 882.494 910.904C901.952 910.632 921.117 911.595 935.962 896.894C950.006 882.986 947.07 864.56 947.052 846.149L947.006 800.033L946.956 647.143L946.576 123.174Z"/></svg>