<?xml version="1.0" encoding="utf-8" ?><svg xmlns="http://www.w3.org/2000/svg" xmlns:xlink="http://www.w3.org/1999/xlink" width="1024" height="1024" viewBox="0 0 1024 1024"><path transform="scale(2 2)" d="M72.2315 67.6666C73.561 68.1745 139.295 134.269 145.856 140.786L261.946 255.916C270.425 264.183 284.123 280.128 293.171 286.403C277.493 300.915 261.321 317.93 246.432 333.289C245.189 334.657 244.1 335.671 242.516 336.622C233.916 326.983 222.939 316.998 213.637 307.862L49.3997 144.812C44.5412 140.095 32.4888 129.253 29.3376 123.769C28.7856 108.386 38.601 101.751 48.1851 91.9282L64.8132 75.1325C67.3039 72.6381 69.6615 70.0835 72.2315 67.6666Z"/><path transform="scale(2 2)" d="M278.673 359.504L276.977 361.212C254.31 383.791 229.78 360.58 240.805 344.095C241.772 342.65 245.939 340.521 247.713 338.774L323.672 262.174C330.276 255.562 336.623 248.702 343.512 242.443C360.848 226.692 386.229 255.964 361.971 277.352C378.123 293.474 390.296 310.746 415.246 311.555C425.976 311.903 422.527 311.877 416.631 321.686C390.687 364.849 412.422 397.67 437.932 432.813C440.742 436.683 445.421 438.706 439.584 441.577C423.091 429.512 411.059 419.733 391.016 412.051C365.693 402.345 347.435 407.086 323.668 417.597L323.668 419.183C320.563 420.471 316.522 421.725 313.749 422.972L313.749 422.972L312.263 422.104C311.982 421.559 312.442 406.935 310.748 403.942C302.625 376.023 295.475 379.845 278.673 359.504ZM292.354 367.708C294.841 370.34 297.598 372.56 299.928 375.114C318.725 357.686 338.619 337.368 356.158 318.849C362.392 312.266 370.223 305.669 375.918 298.849C375.087 297.846 369.477 291.222 368.723 290.682L329.897 329.992C317.493 342.611 305.18 355.487 292.354 367.708ZM281.816 357.259C283.853 359.141 287.017 362.546 288.983 364.024C295.636 356.417 301.745 350.713 308.825 343.821L325.867 326.974C339.169 313.972 352.227 300.612 365.15 287.234C363.884 285.868 359.931 281.474 358.482 280.737C352.043 285.956 346.969 292.111 341.265 297.762L302.387 336.751C296.534 342.659 288.004 351.903 281.816 357.259Z"/><path transform="scale(2 2)" d="M312.263 422.104C314.552 421.725 320.437 418.649 323.668 417.597L323.668 419.183C320.563 420.471 316.522 421.725 313.749 422.972L313.749 422.972L312.263 422.104Z"/><path transform="scale(2 2)" d="M342.132 314.238L342.313 314.449C341.7 315.467 340.292 317.108 339.233 317.645L339.161 317.075L338.845 316.978C336.877 318.917 341.915 314.473 342.132 314.238Z"/><path transform="scale(2 2)" d="M121.884 28.5746C124.706 28.0836 136.492 41.8129 139.257 44.581L330.056 234.363C332.04 236.341 335.439 239.414 336.958 241.64C335.408 243.426 332.596 246.05 330.841 247.829L317.931 260.892C310.461 268.403 303.457 276.049 295.776 283.511L293.171 280.737C284.182 270.975 274.528 262.155 265.184 252.736L111.076 99.6743C99.6856 88.3228 87.044 74.9413 75.4163 64.2395L89.9249 49.601C100.312 38.9159 106.381 31.1332 121.884 28.5746Z"/><path transform="scale(2 2)" d="M422.669 314.238C424.653 316.994 426.291 322.908 427.702 326.462L480.832 460.741C482.327 464.587 494.05 490.252 492.177 491.684C489.076 492.06 476.587 486.374 472.934 484.891L343.514 435.901C334.017 432.37 324.22 429.377 314.826 425.622C313.661 425.271 312.513 425.127 311.63 424.387L311.627 423.936C312.268 423.296 312.87 423.225 313.749 422.972L313.749 422.972C316.522 421.725 320.563 420.471 323.668 419.183C347.161 409.308 366.845 406.634 391.492 416.664C421.593 428.914 445.535 453.505 470.256 474.364C474.653 478.074 485.029 487.082 490.169 489.51L490.008 489.208C487.901 485.303 482.83 478.772 480.116 475.172C462.764 452.161 443.63 435.111 427.752 410.198C405.158 374.746 401.107 350.927 422.669 314.238Z"/><path transform="scale(2 2)" d="M313.749 422.972L313.749 422.972L314.826 425.622C313.661 425.271 312.513 425.127 311.63 424.387L311.627 423.936C312.268 423.296 312.87 423.225 313.749 422.972Z"/><path transform="scale(2 2)" d="M103.16 19.3519C103.124 19.3541 103.992 19.2929 103.949 19.3033C107.178 18.5317 119.808 22.9142 119.883 25.9509C110.411 27.9043 102.949 31.863 96.0158 38.7797L51.4955 83.9124C42.9158 92.4944 32.0735 101.477 27.6728 112.879C26.6523 117.14 26.6336 117.801 27.6728 121.988C20.4002 114.536 14.538 103.71 22.1162 93.9686C23.1989 92.5768 25.6338 90.277 26.937 88.9394L82.2539 32.8773C89.5234 25.4034 92.3088 20.6103 103.16 19.3519Z"/></svg>