<?xml version="1.0" encoding="utf-8" ?><svg xmlns="http://www.w3.org/2000/svg" xmlns:xlink="http://www.w3.org/1999/xlink" width="1024" height="1024" viewBox="0 0 1024 1024"><path transform="scale(2 2)" d="M252.369 39.8432C283.906 35.8615 296.773 66.746 309.093 88.6845L480.348 386.009C482.603 389.966 485.689 394.422 487.547 398.493C497.485 420.618 495.186 448.073 474.386 463.083C460.987 472.752 445.122 471.426 429.42 471.429L259.938 471.424L83.7467 471.433C66.5055 471.434 53.0479 472.702 38.5893 461.212C22.1725 448.166 11.6841 420.321 22.1681 400.957C29.6582 387.122 37.9766 373.133 45.8756 359.57L209.934 76.0861C220.608 57.4114 228.707 42.6101 252.369 39.8432ZM259.938 437.003L417.65 437.012C431.651 437.016 458.895 440.063 459.004 418.405C459.036 412.076 451.462 392.818 446.671 391.24C445.728 391.472 445.634 392.25 445.105 391.17C441.523 383.848 437.263 376.577 433.185 369.533L273.509 91.7219C270.077 85.839 261.728 80.8254 254.752 82.0948C241.691 83.756 238.65 93.1974 233.028 103.221L62.3888 400.177C56.7557 409.963 49.5105 419.042 58.0297 430.156C65.198 439.507 78.0811 436.979 88.7841 436.996L259.938 437.003ZM410.008 459.109C407.341 459.372 401.577 459.117 398.518 459.112L357.978 459.093C354.638 459.093 334.466 458.66 332.559 459.897L363.471 459.882C366.218 459.88 375.255 459.656 377.335 459.897C383.746 459.775 390.619 459.824 397.042 459.897L426.031 459.902C433.467 459.908 444.333 460.714 451.181 458.66C481.105 449.688 488.291 414.602 474.678 389.243C472.751 385.65 470.834 382.428 468.792 378.982L294.767 76.0374C291.1 69.2382 288.387 63.0812 282.744 57.5654C266.924 42.1032 243.895 42.822 228.366 58.2443C218.901 67.6437 204.258 97.9281 197.03 110.256L36.7298 386.243C29.8778 397.88 23.6375 406.168 23.8936 420.711C24.2691 442.042 39.25 460.343 60.0351 465.081C67.7 466.828 78.0147 466.294 86.1865 466.278L206.326 465.514C216.949 465.442 229.028 465.775 239.505 465.482L239.987 465.468C246.626 466.094 257.153 465.792 264.119 465.778C267.452 464.859 282.579 466.301 284.031 464.595C280.908 463.467 287.378 460.409 288.946 459.109C282.968 459.121 272.226 459.406 266.742 458.769C262.779 458.745 256.789 458.565 253.057 459.109C245.173 458.681 236.831 458.76 228.918 458.746L89.909 457.766C81.8425 457.765 71.9161 458.212 64.1516 456.56C39.6242 451.343 25.525 420.857 38.3012 399.021L217.857 87.611C223.213 78.1915 227.334 68.6507 235.343 61.1902C250.211 47.3407 273.058 51.506 285.425 66.4719C288.845 70.6104 291.031 74.6645 293.691 79.3914L466.337 377.501C479.893 400.313 488.925 428.882 464.744 449.372C453.472 458.923 443.129 459.03 429.21 459.118L410.008 459.109Z"/><path transform="scale(2 2)" d="M253.057 459.109C245.173 458.681 236.831 458.76 228.918 458.746L89.909 457.766C81.8425 457.765 71.9161 458.212 64.1516 456.56C39.6242 451.343 25.525 420.857 38.3012 399.021L217.857 87.611C223.213 78.1915 227.334 68.6507 235.343 61.1902C250.211 47.3407 273.058 51.506 285.425 66.4719C288.845 70.6104 291.031 74.6645 293.691 79.3914L466.337 377.501C479.893 400.313 488.925 428.882 464.744 449.372C453.472 458.923 443.129 459.03 429.21 459.118L410.008 459.109C407.341 459.372 401.577 459.117 398.518 459.112L357.978 459.093C354.638 459.093 334.466 458.66 332.559 459.897C331.048 459.992 326.768 460.309 325.731 459.109C319.814 458.501 310.96 458.755 304.733 458.769C305.859 459.487 307.645 459.011 307.97 459.556C307.081 460.933 303.568 464.931 302.144 465.778L264.119 465.778C267.452 464.859 282.579 466.301 284.031 464.595C280.908 463.467 287.378 460.409 288.946 459.109C282.968 459.121 272.226 459.406 266.742 458.769C262.779 458.745 256.789 458.565 253.057 459.109ZM259.938 437.003L417.65 437.012C431.651 437.016 458.895 440.063 459.004 418.405C459.036 412.076 451.462 392.818 446.671 391.24C445.728 391.472 445.634 392.25 445.105 391.17C441.523 383.848 437.263 376.577 433.185 369.533L273.509 91.7219C270.077 85.839 261.728 80.8254 254.752 82.0948C241.691 83.756 238.65 93.1974 233.028 103.221L62.3888 400.177C56.7557 409.963 49.5105 419.042 58.0297 430.156C65.198 439.507 78.0811 436.979 88.7841 436.996L259.938 437.003Z"/><path transform="scale(2 2)" d="M266.742 458.769C270.501 458.586 275.601 458.753 279.495 458.755L304.733 458.769C305.859 459.487 307.645 459.011 307.97 459.556C307.081 460.933 303.568 464.931 302.144 465.778L264.119 465.778C267.452 464.859 282.579 466.301 284.031 464.595C280.908 463.467 287.378 460.409 288.946 459.109C282.968 459.121 272.226 459.406 266.742 458.769Z"/><path transform="scale(2 2)" d="M325.731 459.109L400.601 459.089C403.117 459.081 407.582 458.931 410.008 459.109C407.341 459.372 401.577 459.117 398.518 459.112L357.978 459.093C354.638 459.093 334.466 458.66 332.559 459.897C331.048 459.992 326.768 460.309 325.731 459.109Z"/><path transform="scale(2 2)" d="M253.057 110.324C268.78 108.95 273.938 128.014 280.945 140.113L427.274 393.421C432.198 402.008 431.336 416.787 419.673 417.531C413.801 417.906 407.714 417.758 401.781 417.756L259.938 417.748L115.451 417.76C109.769 417.762 103.868 417.845 98.1882 417.675C88.9273 416.831 79.1257 405.537 83.5598 396.457C88.4589 386.425 95.8842 375.003 101.553 365.143L238.966 125.894C242.628 119.456 245.424 112.423 253.057 110.324ZM259.938 339.595C274.422 333.887 270.799 321.446 271.445 307.789L275.341 220.007C276.176 202.875 281.67 167.286 253.057 170.575C244.509 171.851 236.955 180.377 237.232 188.795C237.905 209.208 239.374 229.981 240.348 250.377L243.085 306.148C243.646 317.014 240.595 345.162 259.938 339.595ZM257.384 381.001C266.866 380.178 273.88 371.816 273.04 362.335C272.201 352.855 263.826 345.856 254.347 346.712C244.892 347.566 237.914 355.915 238.751 365.372C239.589 374.829 247.926 381.822 257.384 381.001Z"/><path transform="scale(2 2)" d="M253.057 173.385C275.34 171.5 273.521 193.237 272.823 207.863L268.8 303.195C268.388 312.585 270.732 330.49 262.282 335.359C261.678 335.645 261.711 335.672 261.054 335.667C260.111 333.91 263.96 262.569 264.332 254.183L266.313 203.126C266.736 192.766 268.418 183.357 258.012 176.83C255.451 175.224 252.229 174.112 249.221 174.936L249.057 174.794C250.186 173.742 251.594 173.617 253.057 173.385Z"/><path transform="scale(2 2)" d="M253.057 349.311C270.872 348.491 275.681 367.925 264.119 375.573C264.241 373.698 265.541 371.447 265.712 369.602C266.733 357.918 259.142 351.78 248.539 350.89C250.055 350.289 251.466 349.675 253.057 349.311Z"/><path transform="scale(2 2)" d="M81.864 371.483C84.3463 363.293 104.963 331.774 110.306 322.805L224.295 125.366C231.977 111.697 242.099 81.7892 261.143 86.7079C269.145 88.7746 271.814 95.439 275.634 101.9C275.166 101.818 274.949 101.751 274.533 101.52L273.985 101.609C273.618 102.213 273.609 102.17 273.519 102.862C268.604 92.7145 262.574 84.3377 249.994 89.7133C244.209 92.1855 239.679 101.777 236.667 107.084L92.3268 357.165C91.3376 358.825 87.5047 365.885 86.482 366.98C82.2428 374.617 74.3599 385.066 71.3192 392.81L70.9931 393.062L70.0761 392.81C71.3413 388.223 78.9192 375.577 81.864 371.483Z"/><path transform="scale(2 2)" d="M81.864 371.483C81.5478 374.292 78.615 375.902 78.7146 378.003C80.2624 377.896 84.0649 368.043 86.482 366.98C82.2428 374.617 74.3599 385.066 71.3192 392.81L70.9931 393.062L70.0761 392.81C71.3413 388.223 78.9192 375.577 81.864 371.483Z"/><path transform="scale(2 2)" d="M333.883 207.592C333.925 205.587 331.817 204.767 332.527 203.346C334.388 204.258 334.315 206.266 335.655 206.681C336.611 208.051 337.433 209.574 338.283 211.02L436.9 381.178C438.975 384.82 440.782 388.391 443.159 391.866L443.003 392.292L443.129 392.769L442.909 393.153C442.267 392.922 442.424 393.033 441.894 392.642L441.614 392.81C440.717 391.811 437.529 386.301 436.743 384.96L339.782 218.057C337.904 214.843 335.493 210.912 333.883 207.592Z"/><path transform="scale(2 2)" d="M441.614 392.81L441.894 392.642C442.424 393.033 442.267 392.922 442.909 393.153L443.129 392.769L443.003 392.292L443.159 391.866C445.586 394.796 446.119 396.95 447.161 400.61L447.082 400.798C437.275 384.899 452.173 412.522 437.542 424.934C429.799 431.502 420.693 430.642 411.122 430.644L128.98 430.63C125.738 430.627 122.229 430.158 118.866 430.074L98.4343 429.562C94.5867 429.479 90.0824 430.108 86.482 428.985L86.482 428.985C93.3681 430.683 113.64 429.487 121.539 429.437L408.169 429.522C420.045 429.521 434.878 431.676 441.467 419.288C445.28 412.118 442.835 402.795 443.159 394.863C442.638 394.226 442.109 393.477 441.614 392.81Z"/><path transform="scale(2 2)" d="M273.519 102.862C273.609 102.17 273.618 102.213 273.985 101.609L274.533 101.52C274.949 101.751 275.166 101.818 275.634 101.9L324.077 186.384C328.029 192.99 332.29 199.749 335.655 206.681C334.315 206.266 334.388 204.258 332.527 203.346C331.817 204.767 333.925 205.587 333.883 207.592C330.58 202.79 326.84 195.846 323.924 190.77L309.705 165.984C302.472 153.135 294.708 140.589 287.487 127.722L279.623 113.645C277.754 110.226 275.636 106.07 273.519 102.862Z"/><path transform="scale(2 2)" d="M70.0761 392.81L70.9931 393.062L71.3192 392.81L71.2468 393.238C69.8613 401.189 66.3863 412.719 71.6186 420.039C75.3201 425.217 81.3762 425.743 86.482 428.985L86.482 428.985C66.6463 424.05 64.9128 410.983 70.0761 392.81Z"/><path transform="scale(2 2)" d="M304.733 458.769C310.96 458.755 319.814 458.501 325.731 459.109C326.768 460.309 331.048 459.992 332.559 459.897L363.471 459.882C366.218 459.88 375.255 459.656 377.335 459.897C376.442 459.972 375.587 460.03 374.701 460.174C379.012 461.208 378.695 459.224 377.335 465.468C374.907 465.137 373.578 464.978 371.136 465.468L302.144 465.778C303.568 464.931 307.081 460.933 307.97 459.556C307.645 459.011 305.859 459.487 304.733 458.769Z"/><path transform="scale(2 2)" d="M377.335 459.897C383.746 459.775 390.619 459.824 397.042 459.897C393.581 461.077 380.309 459.013 378.988 460.945C378.983 462.685 378.757 463.084 378.035 464.625L378.105 465.16C379.879 465.697 391.967 465.439 394.352 465.331C388.643 465.673 377.01 465.664 371.136 465.468C373.578 464.978 374.907 465.137 377.335 465.468C378.695 459.224 379.012 461.208 374.701 460.174C375.587 460.03 376.442 459.972 377.335 459.897Z"/></svg>