<?xml version="1.0" encoding="utf-8" ?><svg xmlns="http://www.w3.org/2000/svg" xmlns:xlink="http://www.w3.org/1999/xlink" width="1024" height="1024" viewBox="0 0 1024 1024"><path fill="#090909" transform="scale(2 2)" d="M294.091 192.75C362.732 190.866 413.312 254.374 392.791 320.968C388.556 334.712 378.781 351.684 367.746 360.819C372.451 365.06 381.659 374.026 385.842 378.915C382.929 382.207 374.25 391.377 370.853 393.649C369.31 393.234 353.045 376.67 351.482 374.606C347.473 376.858 342.031 379.573 337.815 381.389C307.107 395.882 266.13 387.303 240.686 366.393C172.727 310.544 206.003 200.488 294.091 192.75ZM306.353 370.431C350.498 367.364 383.781 329.062 380.655 284.92C377.53 240.779 339.183 207.548 295.046 210.732C250.992 213.91 217.837 252.169 220.956 296.227C224.076 340.285 262.291 373.491 306.353 370.431Z"/><path fill="#090909" transform="scale(2 2)" d="M295.12 214.877C336.926 211.735 373.354 243.1 376.457 284.909C379.56 326.718 348.16 363.116 306.348 366.18C264.592 369.239 228.253 337.89 225.154 296.137C222.056 254.384 253.37 218.015 295.12 214.877ZM281.685 356.819C299.087 361.666 325.873 361.208 339.714 347.902L339.712 269.207C339.714 257.333 339.949 244.626 339.714 232.826C323.378 225.501 314.19 219.377 294.091 221.243C217.775 231.133 210.191 333.402 281.685 356.819Z"/><path fill="#090909" transform="scale(2 2)" d="M238.317 300.233L285.753 300.234C293.544 300.233 301.724 300.082 309.477 300.233C309.45 302.625 309.438 304.948 309.477 307.344L264.941 307.35C257.741 307.351 250.589 307.412 243.39 307.199C237.938 307.037 238.431 305.329 238.317 300.233Z"/><path fill="#090909" transform="scale(2 2)" d="M240.148 270.036L309.477 270.036C309.456 271.32 309.524 276.18 309.185 277.127L308.562 277.261L238.317 277.261C238.869 274.839 239.517 272.439 240.148 270.036Z"/><path fill="#090909" transform="scale(2 2)" d="M250.682 330.234L309.477 330.234C308.993 333.193 308.98 334.025 309.477 336.977C306.423 336.789 301.978 336.963 298.789 336.969L277.943 336.988C271.094 336.983 263.065 336.126 256.326 336.977C254.18 334.948 252.29 332.709 250.682 330.234Z"/><path fill="#090909" transform="scale(2 2)" d="M74.5723 66.0767C80.9485 65.8404 88.9259 66.0679 95.3857 66.0711L130.735 66.0767L130.735 102.247C124.36 102.419 88.9671 100.997 84.9056 103.401C79.3293 106.7 80.2116 113.093 80.211 118.613L80.2089 442.388C80.2065 449.014 80.0865 455.627 80.1957 462.256C80.2865 467.763 93.1639 465.765 97.3191 465.764L333.024 465.734C334.273 465.728 337.466 465.51 338.342 464.683C340.399 460.207 339.724 439.317 339.724 432.79L339.714 385.064C341.448 383.665 345.467 381.641 347.601 380.491C350.441 382.601 356.502 389.111 359.235 391.941C362.171 395.63 342.627 398.664 367.746 416.206C367.597 431.058 369.357 456.941 366.838 470.78C362.984 491.952 344.556 490.749 328.483 490.748L86.1575 490.734C81.045 490.748 75.4303 490.969 70.3638 490.664C48.8001 489.366 51.7324 464.226 51.7479 449.42L51.7446 112.532C51.7354 93.2741 47.7761 68.5248 74.5723 66.0767Z"/><path fill="#090909" transform="scale(2 2)" d="M206.544 19.2587C228.228 17.4946 242.517 32.8055 242.862 53.6275L267.283 53.604C276.411 53.5986 287.289 51.6786 287.322 64.416C287.343 73.7856 287.374 83.1245 287.35 92.4987C287.308 109.241 291.2 115.254 271.455 115.264L215.123 115.258L151.051 115.266C146.08 115.27 134.439 116.015 133.592 108.497C132.293 96.9701 133.393 85.0818 132.924 73.4706C131.686 51.63 137.978 53.6167 156.016 53.6134L177.213 53.6275C177.236 35.5235 188.576 22.0484 206.544 19.2587ZM211.129 70.8582C221.913 70.3793 230.282 61.2753 229.854 50.4892C229.426 39.7031 220.362 31.2909 209.574 31.6681C198.714 32.0478 190.233 41.1861 190.664 52.0444C191.095 62.9026 200.273 71.3402 211.129 70.8582Z"/><path fill="#090909" transform="scale(2 2)" d="M289.214 66.0767L324.926 66.0643C338.776 66.0626 351.466 63.41 361.552 74.5843C369.611 83.5131 367.77 94.4226 367.748 105.601L367.767 205.541C367.787 208.285 367.943 211.878 367.746 214.509C358.204 209.507 351.21 202.563 339.714 197.121C339.403 191.183 339.709 181.884 339.711 175.701L339.689 131.948C339.671 117.217 344.462 102.498 324.902 102.269C318.893 102.199 293.631 103.337 289.214 102.247L289.209 77.0227C289.206 74.7186 288.948 67.7497 289.214 66.0767Z"/><path fill="#090909" transform="scale(2 2)" d="M391.594 376.68C393.073 376.975 400.289 384.757 401.731 386.215L424.817 409.614C427.5 412.302 430.43 414.918 433.172 417.577L446.832 431.04C452.563 436.649 459.827 442.033 461.228 450.25C464.554 469.749 443.975 479.944 429.002 469.073C407.845 449.26 388.416 427.123 367.136 407.38C365.264 405.643 360.314 402.32 361.105 399.471C362.867 397.993 368.895 403.675 370.689 404.988C374.563 400.116 391.203 384.666 392.633 381.14C393.23 379.666 392.193 377.991 391.594 376.68Z"/><path fill="#090909" transform="scale(2 2)" d="M113.341 150.008C115.169 149.791 118.293 149.953 120.221 149.976L309.477 150.008C309.695 152.869 309.649 154.543 309.477 157.419L307.063 157.419L113.294 157.428C108.514 157.429 108.241 150.727 113.341 150.008Z"/><path fill="#090909" transform="scale(2 2)" d="M114.341 179.827L309.477 179.827C309.885 183.086 309.907 183.775 309.477 187.055L305.982 187.055L135.969 187.06C128.427 187.059 120.902 187.102 113.346 186.98C108.839 186.908 107.416 180.332 114.341 179.827Z"/><path fill="#090909" transform="scale(2 2)" d="M219.372 419.894L298.875 419.888C302.398 419.875 305.974 419.7 309.477 419.894C309.287 422.606 309.321 424.261 309.477 426.987C298.064 427.335 284.604 426.992 273.072 426.992L199.625 426.987L113.246 426.992C109.697 426.972 109.387 422.907 110.948 420.597C114.212 419.611 123.415 419.893 127.343 419.892L219.372 419.894Z"/><path fill="#090909" transform="scale(2 2)" d="M111.943 389.751L277.746 389.751C277.666 391.326 277.89 395.757 277.209 396.855L276.312 396.926L124.777 396.923C121.23 396.924 116.685 397.055 113.174 396.936C109.948 396.827 108.44 391.851 111.943 389.751Z"/><path fill="#090909" transform="scale(2 2)" d="M207.627 210.151L239.265 210.151C235.26 212.279 233.254 214.091 230.214 217.55C228.048 217.74 223.607 217.558 221.224 217.557L140.875 217.55L122.965 217.571C120.729 217.572 105.761 219.395 110.907 211.231C111.872 209.699 122.948 210.142 125.769 210.144L207.627 210.151Z"/><path fill="#090909" transform="scale(2 2)" d="M113.341 359.944C125.889 359.783 138.809 359.943 151.382 359.943L226.589 359.944C229.037 362.155 232.12 365.487 234.638 367.247L231.451 367.247L124.163 367.249C120.689 367.25 114.739 367.519 111.522 367.087C108.732 364.803 109.368 360.626 113.341 359.944Z"/><path fill="#090909" transform="scale(2 2)" d="M115.393 240.156L212.274 240.156C210.924 243.191 210.444 244.044 209.913 247.313C208.805 247.331 207.657 247.314 206.544 247.313L113.711 247.448C108.982 247.444 106.572 240.179 115.393 240.156Z"/><path fill="#090909" transform="scale(2 2)" d="M113.341 330.234C116.265 330.063 120.444 330.226 123.491 330.227L207.627 330.234C208.4 331.715 210.553 335.604 210.747 336.999L210.311 337.203C209.258 337.017 208.708 337.01 207.627 336.977L147.651 336.987C141.612 336.987 114.419 337.64 110.611 336.24C108.66 333.54 109.756 330.391 113.341 330.234Z"/><path fill="#090909" transform="scale(2 2)" d="M116.879 270.036L201.599 270.036C201.253 272.474 200.951 274.815 200.667 277.261L193.875 277.261L132.793 277.255C126.377 277.256 119.965 277.1 113.576 277.551C110.646 277.64 104.401 270.535 116.879 270.036Z"/><path fill="#090909" transform="scale(2 2)" d="M111.943 300.233C121.511 300.01 131.912 300.233 141.569 300.233L200.667 300.233C200.713 302.283 201.996 305.654 201.519 307.218L199.625 307.344L123.379 307.348C119.902 307.347 116.364 307.383 112.89 307.263C108.997 307.149 109.198 302 111.943 300.233Z"/></svg>