<?xml version="1.0" encoding="utf-8" ?><svg xmlns="http://www.w3.org/2000/svg" xmlns:xlink="http://www.w3.org/1999/xlink" width="1024" height="1024" viewBox="0 0 1024 1024"><path fill="#090909" transform="scale(2 2)" d="M132.765 168.523C115.677 160.128 120.001 163.396 109.657 146.807L72.3284 85.9256C67.7861 78.4897 62.8521 72.0668 60.3908 63.4804C48.949 23.6565 101.319 0.481417 122.771 35.3883C140.633 64.4601 158.703 93.4212 176.71 122.394C178.24 124.854 183.618 129.636 185.858 131.841L203.686 149.176C220.789 165.691 239.849 183.94 256.126 201.261C262.545 194.301 269.808 187.684 276.578 181.002L328.015 130.525C342.155 116.486 341.94 115.357 352.239 97.9439L379.692 51.5804C387.592 37.9748 393.119 24.3792 409.601 19.7406C433.509 12.9136 456.107 33.0727 452.949 57.6257C451.426 69.4719 445.286 76.4754 439.391 86.3399L419.115 120.692C410.077 136.02 399.163 161.77 381.578 166.623L381.027 167.169C378.526 169.688 374.78 176.272 372.732 179.563L336.927 237.138C334.811 240.571 332.652 244.034 330.467 247.424C323.766 257.521 316.712 276.757 316.732 289.191L316.743 352.004C306.417 352.135 294.52 352.504 284.256 352.004L284.268 304.916C284.263 297.073 284.004 288.174 284.256 280.465L230.69 280.465C230.912 283.066 231.714 285.09 228.937 286.288C226.337 286.27 227.247 290.347 227.261 292.852C227.374 312.555 227.04 332.307 227.25 352.004L194.981 352.004L194.972 304.02C194.981 280.02 195.096 276.523 185.121 253.301C184.683 252.28 178.555 243.266 177.51 241.591L142.149 184.006C139.044 178.853 136.148 173.498 132.765 168.523ZM225.766 254.211C225.599 261.648 227.135 270.529 229.76 277.486L279.369 277.456C280.219 277.453 283.548 277.388 284.256 277.486L287.965 277.486C284.385 270.911 274.936 258.637 268.902 254.211L228.937 254.211C227.87 254.224 226.834 254.241 225.766 254.211ZM163.441 148.937L203.475 211.119C205.741 214.63 211.21 224.009 213.427 226.725L217.3 226.725C213.918 222.352 208.498 212.629 205.211 207.421L170.588 153.432C169.528 151.725 167.643 148.476 166.507 146.94C175.962 135.744 166.232 122.298 159.989 112.408L120.304 49.2401C117.355 44.6301 113.724 36.7111 109.774 33.3124C105.565 29.6899 95.7737 26.2578 90.2222 27.8562C72.5704 27.9623 62.6268 50.4505 70.4148 64.6825C84.7448 90.8695 101.61 115.857 116.634 141.678C130.634 165.739 140.749 162.712 163.441 148.937ZM209.66 252.938C209.353 243.948 212.667 237.782 222.562 237.778C225.82 238.566 227.867 240.026 230.69 241.812L232.262 239.844C226.719 222.604 205.437 227.57 198.75 242.053C192.44 255.719 198.522 273.514 211.787 280.452C212.247 280.693 212.709 280.831 213.221 280.903L213.381 280.684C210.421 273.791 209.537 267.368 209.66 259.878C209.262 256.879 209.187 255.904 209.66 252.938ZM292.995 225.543C293.612 222.244 322.307 176.919 326.481 170.509L339.017 151.554C340.098 149.885 342.33 146.705 343.232 145.119C341.331 138.894 342.127 136.64 341.26 131.681C314.298 156.147 288.984 183.042 262.639 208.225C256.57 215.3 227.118 250.757 227.1 250.816C227.348 252.02 227.756 251.815 228.937 251.772L268.902 251.772C270.672 246.851 282.793 233.58 286.797 228.121C287.953 226.546 291.119 225.937 292.995 225.543ZM270.992 251.772C277.728 260.755 290.577 269.139 290.379 281.451C290.791 286.065 299.601 282.175 301.661 280.87C314.749 272.561 315.039 253.767 307.685 241.484C298.98 226.944 294.467 234.748 303.377 220.188C317.169 197.646 331.772 175.593 345.781 153.185C347.429 150.549 348.065 149.48 344.828 147.9C343.656 150.644 340.618 155.219 338.913 157.866C324.433 180.343 309.981 202.824 295.949 225.585C295.39 226.491 294.594 227.398 293.811 228.115C287.027 228.883 277.03 245.544 270.992 251.772ZM211.643 255.406L211.643 256.476C212.007 264.331 212.294 284.056 222.625 284.694C224.037 284.782 226.975 284.964 228.026 284.086C226.669 265.832 216.545 260.66 228.937 243.64C226.738 242.088 225.081 240.801 222.562 239.844C212.98 239.476 211.26 247.573 211.643 255.406ZM370.926 159.158C387.971 159.338 394.135 144.528 401.507 132.094L433.833 77.7397C438.655 69.701 444.001 62.3405 443.969 52.5852C443.922 38.025 432.342 27.3465 417.793 27.8562C402.3 29.555 398.915 37.5631 391.906 49.371L357.406 107.329C353.47 113.994 349.195 120.561 345.642 127.456C338.047 142.191 357.473 157.993 370.926 159.158ZM235.398 237.778C237.244 234.854 240.861 230.06 243.779 228.115C245.283 225.379 252.509 216.843 254.939 214.107C252.541 211.014 245.519 204.537 242.419 201.5L222.626 181.759C215.857 175.045 178.057 136.016 173.293 134.115C173.105 139.593 172.994 142.777 170.796 147.9C172.492 151.087 174.599 154.112 176.584 157.134L186.223 171.812C197.553 189.356 209.483 207.613 220.008 225.543C227.859 227.711 231.063 230.611 235.398 237.778Z"/><path fill="#090909" transform="scale(2 2)" d="M228.937 286.288C232.071 280.724 229.357 278.775 227.685 272.481C227.017 269.969 225.88 261.222 224.78 259.893L224.461 259.511C223.914 254.728 225.284 253.942 228.772 253.737L228.937 254.211C227.87 254.224 226.834 254.241 225.766 254.211C225.599 261.648 227.135 270.529 229.76 277.486L279.369 277.456C280.219 277.453 283.548 277.388 284.256 277.486C283.241 278.346 279.671 277.31 275.715 279.75C277.5 279.719 283.166 279.332 284.256 280.465L230.69 280.465C230.912 283.066 231.714 285.09 228.937 286.288Z"/><path fill="#090909" transform="scale(2 2)" d="M107.183 35.4507C109.288 35.7981 115.855 47.611 117.45 50.2021L130.672 71.5024C141.208 88.4022 152.13 104.833 162.35 122.141C165.19 126.95 169.248 139.013 164.123 144.821C155.889 150.423 143.13 157.821 133.538 155.14C123.08 151.128 108.74 122.152 102.037 111.248L82.6084 79.7238C79.0981 73.9533 73.1718 66.4516 72.3088 59.7293C72.3355 59.6627 72.3622 59.5961 72.3888 59.5296L72.5297 59.1999C74.096 55.4321 101.676 38.8825 107.183 35.4507Z"/><path fill="#090909" transform="scale(2 2)" d="M403.957 36.3453C404.744 36.4781 437.444 56.6257 440.098 59.7293C439.37 62.4046 436.298 67.2651 434.814 69.808L394.668 137.428C390.609 144.345 388.703 148.851 381.578 153.035C368.464 160.219 346.841 148.254 347.67 133.318C347.935 128.537 352.364 122.346 354.846 118.192L362.225 105.673C370.382 91.8015 378.621 77.3961 387.16 63.7817C392.047 55.9918 398.617 43.2707 403.957 36.3453Z"/><path fill="#090909" transform="scale(2 2)" d="M209.66 252.938C209.353 243.948 212.667 237.782 222.562 237.778C222.865 238.672 223.101 238.89 222.562 239.844C212.98 239.476 211.26 247.573 211.643 255.406L210.093 255.297C209.555 254.763 209.708 253.889 209.66 252.938Z"/><path fill="#090909" transform="scale(2 2)" d="M209.66 252.938C209.708 253.889 209.555 254.763 210.093 255.297L211.643 255.406L211.643 256.476C211.497 257.654 211.444 258.048 211.536 259.222L211.233 259.785C210.5 259.929 210.418 259.906 209.66 259.878C209.262 256.879 209.187 255.904 209.66 252.938Z"/><path fill="#090909" transform="scale(2 2)" d="M190.254 398.713C190.43 396.363 190.262 391.292 190.256 388.787L190.234 368.84C190.234 365.219 189.645 358.749 191.564 355.538C192.797 353.473 224.777 354.546 228.839 354.613C233.94 354.698 232.285 368.403 232.282 371.473L232.262 398.713C239.574 398.59 241.003 404.959 237.672 409.888C236.333 411.078 235.433 411.857 233.764 412.658C232.296 426.262 229.761 427.501 220.008 434.574C218.046 441.671 220.173 450.674 223.913 456.872C243.748 489.741 294.694 476.063 292.995 435.045C283.385 428.619 280.29 424.29 279.121 412.658C271.602 412.239 269.583 398.709 280.562 398.713C280.363 387.078 280.808 375.403 280.437 363.778C280.341 360.761 279.539 354.582 283.849 354.627C295.215 354.746 307.198 354.075 318.513 354.527C319.797 355.591 320.201 355.912 321.265 357.219C322.977 364.868 321.715 385.068 321.788 394.06C321.797 395.247 321.949 397.637 321.755 398.713C334.919 398.881 332.91 410.606 323.025 412.197C322.607 423.555 318.901 430.112 308.259 435.045C314.814 459.918 289.688 488.577 265.189 491.282L265.125 490.817C264.261 490.789 263.097 490.702 262.427 491.264L261.721 491.012L261.632 490.685C262.395 489.878 263.886 489.645 264.956 489.435L265.189 489.071C293.009 479.825 307.457 466.155 306.27 435.045C301.819 436.133 299.687 435.646 295.223 435.045C298.194 492.326 212.66 491.186 217.3 435.045C213.108 435.728 209.416 436.103 205.282 435.045C204.64 434.794 203.252 434.669 202.519 434.574C198.426 431.66 194.351 430.095 191.641 425.087C188.974 421.548 188.254 416.979 188.247 412.658C184.1 410.003 181.283 406.051 184.149 401.155L185.655 399.395C187.361 399.043 188.516 398.896 190.254 398.713ZM320.469 412.197C318.594 412.222 316.367 412.306 314.529 412.197C312.262 435.39 286.767 428.498 287.965 412.197C286.139 412.213 284.34 412.217 282.514 412.197L281.888 412.487C277.761 429.85 312.906 445.63 319.671 418.941C320.15 416.412 320.311 414.784 320.469 412.197ZM190.254 412.197C190.421 417.153 191.136 419.321 193.4 423.73C193.516 423.791 197.028 427.898 197.859 428.619C210.467 439.552 232.056 430.978 230.69 412.197C228.803 412.126 226.674 412.186 224.768 412.197C224.643 430.5 200.311 433.396 196.687 412.197C194.599 412.183 192.326 412.122 190.254 412.197ZM321.265 401.155L281.243 401.155C280.137 401.283 276.802 401.462 276.291 402.499C273.332 408.497 277.984 409.9 282.505 409.894C291.164 409.882 319.904 411.13 326.347 409.364C327.939 406.352 328.083 405.273 327.388 401.77C325.547 401.604 323.04 401.451 321.265 401.155Z"/><path fill="#090909" transform="scale(2 2)" d="M190.254 398.713C190.43 396.363 190.262 391.292 190.256 388.787L190.234 368.84C190.234 365.219 189.645 358.749 191.564 355.538C192.797 353.473 224.777 354.546 228.839 354.613C233.94 354.698 232.285 368.403 232.282 371.473L232.262 398.713C230.917 402.589 228.284 400.602 223.282 401.155C221.879 400.992 218.342 401.113 216.737 401.122L201.668 401.173C197.664 401.176 190.704 402.703 190.254 398.713Z"/><path fill="#090909" transform="scale(2 2)" d="M280.562 398.713C280.363 387.078 280.808 375.403 280.437 363.778C280.341 360.761 279.539 354.582 283.849 354.627C295.215 354.746 307.198 354.075 318.513 354.527C319.797 355.591 320.201 355.912 321.265 357.219C322.977 364.868 321.715 385.068 321.788 394.06C321.797 395.247 321.949 397.637 321.755 398.713C321.631 399.989 321.361 400.438 321.265 401.155L281.243 401.155L280.562 398.713Z"/><path fill="#090909" transform="scale(2 2)" d="M190.254 398.713C190.704 402.703 197.664 401.176 201.668 401.173L216.737 401.122C218.342 401.113 221.879 400.992 223.282 401.155L223.282 401.155C226.004 401.158 233.761 400.843 235.921 402.07C236.986 403.639 236.452 408.207 234.7 409.519C232.4 410.077 224.912 409.899 222.267 409.897L199.816 409.888C192.85 409.829 183.242 412.548 185.655 401.77L184.149 401.155L185.655 399.395C187.361 399.043 188.516 398.896 190.254 398.713Z"/><path fill="#090909" transform="scale(2 2)" d="M190.254 398.713C190.704 402.703 197.664 401.176 201.668 401.173L216.737 401.122C218.342 401.113 221.879 400.992 223.282 401.155L223.282 401.155L201.861 401.15C198.776 401.151 188.179 400.966 185.655 401.77L184.149 401.155L185.655 399.395C187.361 399.043 188.516 398.896 190.254 398.713Z"/><path fill="#090909" transform="scale(2 2)" d="M188.247 412.658C184.1 410.003 181.283 406.051 184.149 401.155L185.655 401.77C183.242 412.548 192.85 409.829 199.816 409.888C203.422 411.964 224.708 406.373 224.768 412.197C224.643 430.5 200.311 433.396 196.687 412.197C194.599 412.183 192.326 412.122 190.254 412.197C190.421 417.153 191.136 419.321 193.4 423.73C191.771 422.431 191.653 420.324 190.614 419.881L190.135 420.061C189.538 421.74 191.868 423.392 191.641 425.087C188.974 421.548 188.254 416.979 188.247 412.658Z"/><path fill="#090909" transform="scale(2 2)" d="M202.519 434.574C203.252 434.669 204.64 434.794 205.282 435.045C204.964 436.129 205.174 438.696 205.228 439.945C206.117 460.702 217.346 477.791 236.763 485.884C238.286 486.518 243.696 488.227 244.679 489.071C245.077 489.319 245.341 489.487 245.727 489.761L245.772 490.163C245.05 490.435 244.79 490.532 244.018 490.712L243.779 491.282C241.314 490.175 238.415 489.278 235.844 488.297C212.465 479.368 202.141 458.325 202.519 434.574Z"/><path fill="#090909" transform="scale(2 2)" d="M244.679 489.071C252.088 489.672 257.863 489.741 265.189 489.071L264.956 489.435C263.886 489.645 262.395 489.878 261.632 490.685L261.721 491.012L262.427 491.264C263.097 490.702 264.261 490.789 265.125 490.817L265.189 491.282C256.304 492.843 252.229 491.679 243.779 491.282L244.018 490.712C244.79 490.532 245.05 490.435 245.772 490.163L245.727 489.761C245.341 489.487 245.077 489.319 244.679 489.071Z"/></svg>