<?xml version="1.0" encoding="utf-8" ?><svg xmlns="http://www.w3.org/2000/svg" xmlns:xlink="http://www.w3.org/1999/xlink" width="1024" height="1024" viewBox="0 0 1024 1024"><path transform="scale(2 2)" d="M250.791 18.618L251.338 18.5909C315.986 15.9136 374.421 66.5639 378.216 131.293C378.622 138.234 378.499 145.218 378.501 152.167L378.493 186.475C378.487 192.547 378.276 198.132 378.495 204.223C398.603 208.882 414.455 222.345 418.617 243.133C419.77 248.896 419.49 258.144 419.484 264.248L419.488 413.274C419.469 451.809 409.834 452.659 385.783 478.997C374.028 491.869 358.226 493.43 342.134 493.373L262.239 493.351L168.739 493.367C156.099 493.375 146.785 492.973 135.295 486.701C128.327 483.435 124.07 477.084 118.848 472.274C94.9113 450.225 92.6281 441.898 92.6496 411.13L92.6599 270.631C92.6594 263.481 92.0911 254.779 92.8554 247.817C95.2918 225.621 113.155 209.34 133.669 204.223L133.664 158.612C133.663 149.929 133.334 140.645 133.851 132.022C137.61 69.4177 188.417 21.1858 250.791 18.618ZM291.125 484.669L326.511 484.674C361.432 484.67 363.69 487.776 388.821 463.082C410.722 441.562 410.753 434.786 410.757 404.404L410.751 259.852C410.736 250.34 410.57 243.897 406.519 234.971C395.801 211.354 373.337 211.965 351.84 211.963L219.89 211.264C205.21 212.141 188.574 212.259 173.776 212.264L156.724 212.254C138.488 212.224 124.866 212.197 111.601 227.136C99.1898 241.113 101.343 254.784 101.351 271.923L101.348 412.592C101.335 430.742 101.527 444.933 116.723 458.293C141.53 480.103 136.961 484.727 174.042 484.677L291.125 484.669ZM260.062 207.262C282.085 207.279 304.721 206.064 326.508 206.559L326.517 147.822C326.485 143.064 326.682 137.983 326.062 133.265C321.367 97.5355 288.42 70.9556 252.64 72.8541C232.164 74.5273 216.054 81.8167 202.547 97.7119C183.962 119.582 186.201 138.902 186.213 165.156L186.214 206.559C197.902 205.683 211.307 207.144 223.088 207.228C235.405 207.317 247.744 207.269 260.062 207.262ZM257.748 30.7074C313.409 31.2003 360.808 73.2349 366.568 128.704C367.586 138.511 367.247 148.61 367.246 158.468L367.225 196.452C367.21 198.328 366.911 202.082 368.114 203.545L368.894 203.375C369.932 201.02 369.521 191.524 369.52 188.384L369.514 144.629C369.57 96.9494 347.179 58.9436 302.941 38.1965C233.927 5.83011 154.447 50.7209 143.472 125.019C143.143 128.83 141.922 202.217 142.731 204.223C144.508 203.734 144.739 202.551 144.775 200.698C145.209 178.198 143.889 155.051 145.248 132.617C148.697 75.707 200.376 26.9782 257.748 30.7074ZM174.934 204.223C179.659 205.112 177.465 187.545 177.453 183.167L177.487 154.418C177.478 138.914 176.328 128.487 182.375 113.458C210.828 42.7382 311.08 50.4556 332.266 119.983C336.154 132.744 335.421 142.614 335.418 155.785L335.412 184.215C335.412 186.267 333.855 204.897 337.299 202.113C338.245 200.161 337.748 196.392 337.742 194.118L337.745 139.338C337.584 96.6241 298 60.8044 256.015 61.5103C215.496 58.8336 177.173 95.8191 174.992 136.095C174.76 140.375 174.902 144.933 174.918 149.283L174.928 192.935C174.924 196.144 174.749 201.131 174.934 204.223Z"/><path transform="scale(2 2)" d="M168.858 481.769C134.542 481.321 122.861 460.682 122.746 429.948L122.738 283.289C122.728 276.666 122.284 268.658 123.436 262.251C128.247 235.519 149.076 228.381 172.361 228.48L256.015 228.496L338.009 228.487C364.468 228.477 390.167 236.536 389.906 267.779L389.852 423.933C389.867 442.171 391.199 454.334 376.86 468.506C360.039 485.132 341.827 481.486 320.326 481.765C300.652 482.02 280.677 481.547 260.898 481.769C259.838 482.131 256.913 481.82 255.566 481.769C250.265 486.864 240.165 482.438 234.999 482.075C232.29 481.644 228.873 483.479 226.411 483.457C218.637 483.386 209.412 484.116 201.757 483.489C196.174 483.031 191.715 481.946 186.001 481.76C181.969 481.629 171.862 482.446 168.858 481.769ZM234.558 352.586C230.855 364.415 227.657 380.263 224.683 392.558L220.711 408.872C213.036 440.358 232.938 432.233 256.015 432.913L272.552 432.93C276.675 432.926 280.934 433.02 285.008 432.378C301.449 429.789 290.73 405.354 288.098 395.689C284.209 381.408 279.958 367.026 276.68 352.586C310.097 334.722 299.185 276.179 256.015 276.488C220.525 274.768 203.669 320.172 227.385 346.007C229.627 348.467 232.401 350.312 234.558 352.586Z"/><path transform="scale(2 2)" d="M224.765 422.564C224.603 418.71 228.163 406.325 229.3 401.628L239.051 361.224C241.443 350.93 244.611 351.474 236.653 345.609C207.188 323.894 228.877 279.21 256.015 283.02C289.262 283.606 301.921 325.362 276.197 345.158C273.78 347.019 271.074 348.399 268.771 350.403C275.621 372.618 281.823 397.945 286.964 420.497C287.549 423.06 286.09 425.077 284.032 426.497C280.042 426.81 274.437 426.504 270.28 426.497C257.232 426.924 241.387 427.05 228.611 426.185C226.939 426.072 225.565 423.848 224.765 422.564Z"/><path transform="scale(2 2)" d="M256.015 283.02C289.262 283.606 301.921 325.362 276.197 345.158C273.78 347.019 271.074 348.399 268.771 350.403C275.621 372.618 281.823 397.945 286.964 420.497C287.549 423.06 286.09 425.077 284.032 426.497C280.042 426.81 274.437 426.504 270.28 426.497C268.925 426.279 257.649 426.403 256.015 426.497L255.757 284.058C255.759 283.335 255.671 283.604 256.015 283.02Z"/><path transform="scale(2 2)" d="M168.858 481.769C134.542 481.321 122.861 460.682 122.746 429.948L122.738 283.289C122.728 276.666 122.284 268.658 123.436 262.251C128.247 235.519 149.076 228.381 172.361 228.48L256.015 228.496C254.577 234.38 256.187 268.408 256.015 276.488C220.525 274.768 203.669 320.172 227.385 346.007C229.627 348.467 232.401 350.312 234.558 352.586C230.855 364.415 227.657 380.263 224.683 392.558L220.711 408.872C213.036 440.358 232.938 432.233 256.015 432.913C255.734 434.821 256.024 446.113 256.022 448.856L256.002 470.593C255.998 474.118 255.875 478.307 256.015 481.769L260.898 481.769C259.838 482.131 256.913 481.82 255.566 481.769C250.265 486.864 240.165 482.438 234.999 482.075C232.29 481.644 228.873 483.479 226.411 483.457C218.637 483.386 209.412 484.116 201.757 483.489C196.174 483.031 191.715 481.946 186.001 481.76C181.969 481.629 171.862 482.446 168.858 481.769Z"/><path transform="scale(2 2)" d="M256.015 481.769L260.898 481.769C259.838 482.131 256.913 481.82 255.566 481.769C250.265 486.864 240.165 482.438 234.999 482.075C232.29 481.644 228.873 483.479 226.411 483.457C218.637 483.386 209.412 484.116 201.757 483.489C196.174 483.031 191.715 481.946 186.001 481.76C181.969 481.629 171.862 482.446 168.858 481.769L256.015 481.769Z"/><path transform="scale(2 2)" d="M164.892 219.203C168.439 218.932 175.01 219.215 178.742 219.221L288.723 219.203L344.221 219.195C364.378 219.173 380.602 222.675 391.064 242.803C393.359 247.22 396.876 254.371 396.501 259.486L396.37 259.44C395.82 258.505 396.03 257.077 395.659 255.698C394.659 256.528 394.249 257.05 392.932 256.85C390.244 247.682 386.757 241.002 379.978 234.309C365.004 219.524 349.704 221.752 330.619 221.751L291.125 221.742L166.558 221.742C144.656 222.98 118.851 238.873 118.24 262.651C116.744 263.606 116.551 264.835 115.252 262.651C115.336 237.86 141.35 218.987 164.892 219.203Z"/><path transform="scale(2 2)" d="M115.252 262.651C116.551 264.835 116.744 263.606 118.24 262.651C117.463 267.429 117.74 274.177 117.745 279.184L117.766 305.739C117.769 309.569 117.958 315.134 117.751 318.815C117.922 320.785 117.786 323.7 117.769 325.763L117.76 355.343C117.762 357.9 117.876 361.578 117.751 364.068L117.296 363.916C117.066 363.263 117.231 363.08 117.364 362.293L117.139 362.144C117.12 363.197 116.722 364.534 115.936 365.257L115.689 365.127C115.641 364.412 115.688 363.918 115.252 363.31C115.385 358.897 115.257 353.749 115.256 349.286L115.252 321.096L115.266 279.936C115.265 276.362 114.888 265.549 115.252 262.651Z"/><path transform="scale(2 2)" d="M392.932 256.85C394.249 257.05 394.659 256.528 395.659 255.698C396.03 257.077 395.82 258.505 396.37 259.44L396.501 259.486C397.694 263.325 397.131 277.491 397.13 282.321L396.539 361.222C396.531 362.649 396.678 366.676 396.501 367.866C396.124 364.492 396.604 355.151 396.424 350.86L396.374 351.231L396.206 351.347L395.528 350.403C394.83 346.382 394.993 335.499 394.947 330.789L394.555 287.678C394.453 277.301 395.161 267.034 392.932 256.85Z"/><path transform="scale(2 2)" d="M115.252 363.31C115.688 363.918 115.641 364.412 115.689 365.127L115.936 365.257C116.722 364.534 117.12 363.197 117.139 362.144L117.364 362.293C117.231 363.08 117.066 363.263 117.296 363.916L117.751 364.068C117.937 380.506 117.794 396.989 117.751 413.432C117.459 416.475 117.559 423.878 117.281 425.473C116.645 421.649 116.809 417.325 116.816 413.426L116.793 399.246C115.322 395.567 115.261 368.104 115.252 363.31Z"/><path transform="scale(2 2)" d="M116.793 399.246L117.219 399.437C117.54 401.667 117.502 412.827 117.751 413.432C117.459 416.475 117.559 423.878 117.281 425.473C116.645 421.649 116.809 417.325 116.816 413.426L116.793 399.246Z"/><path transform="scale(2 2)" d="M395.528 350.403L396.206 351.347L396.374 351.231L396.424 350.86C396.604 355.151 396.124 364.492 396.501 367.866L396.482 394.387C396.477 397.058 396.268 404.072 396.501 406.532L395.528 406.532L395.528 350.403Z"/><path transform="scale(2 2)" d="M395.528 406.532L396.501 406.532C395.656 413.998 395.632 412.604 395.528 406.532Z"/><path transform="scale(2 2)" d="M142.731 204.223C144.508 203.734 144.739 202.551 144.775 200.698C145.209 178.198 143.889 155.051 145.248 132.617C148.697 75.707 200.376 26.9782 257.748 30.7074C256.8 30.8856 256.577 30.7374 256.123 31.3083C255.515 39.4508 255.457 53.0337 256.015 61.5103C215.496 58.8336 177.173 95.8191 174.992 136.095C174.76 140.375 174.902 144.933 174.918 149.283L174.928 192.935C174.924 196.144 174.749 201.131 174.934 204.223C172.643 205.086 147.741 203.693 142.731 204.223Z"/></svg>