<?xml version="1.0" encoding="utf-8" ?><svg xmlns="http://www.w3.org/2000/svg" xmlns:xlink="http://www.w3.org/1999/xlink" width="1024" height="1024" viewBox="0 0 1024 1024"><path transform="scale(2 2)" d="M255.923 104.099C257.381 104.106 259.124 104.7 260.505 105.173L460.392 174.696C465.26 176.321 482.878 181.822 486.311 184.066C466.092 190.913 446.227 199.053 426.207 206.418L283.418 257.258C274.583 260.388 264.707 264.209 255.923 267.07C248.412 264.693 239.184 260.999 231.511 258.308L174.623 238.225C152.592 230.295 129.841 222.928 107.849 214.887C105.822 214.338 96.2958 211.014 94.9003 209.977L95.0119 209.71C96.5375 209.19 107.881 207.854 110.542 207.481L150.783 201.864C187.253 197.097 226.047 191.812 262.349 185.5C268.201 182.778 265.804 170.659 260.823 170.5C251.601 170.206 240.453 172.432 231.268 173.64L92.7356 192.839C80.7521 194.433 75.4849 193.383 65.177 199.775C60.2074 197.697 27.1987 185.947 25.6095 184.164C26.4222 183.218 57.5728 173.329 61.6851 171.922L237.057 110.175C240.99 108.774 252.263 104.5 255.923 104.099Z"/><path transform="scale(2 2)" d="M114.758 256.356L207.981 289.407C223.37 294.901 240.461 301.421 255.923 306.248C261.274 304.879 266.202 302.999 271.402 301.141L367.512 266.726C371.179 265.438 384.964 260.07 387.751 260.017C389.167 259.294 394.647 256.515 396.08 256.952L396.259 257.704C397.015 262.609 396.246 272.753 396.247 278.091L396.264 307.725C396.266 315.133 397.573 323.397 392.398 329.4C371.808 353.282 336.188 361.215 306.395 366.314C258.427 373.059 206.524 371.059 160.468 355.165C146.51 350.349 118.022 337.888 115.236 320.922C114.225 314.766 114.75 302.696 114.755 295.941L114.758 256.356Z"/><path transform="scale(2 2)" d="M387.751 260.017C389.167 259.294 394.647 256.515 396.08 256.952L396.259 257.704C395.969 261.88 388.686 260.514 387.751 260.017Z"/><path transform="scale(2 2)" d="M492.892 188.354C492.985 188.449 492.891 213.006 492.892 214.887C489.303 215.428 480 219.224 476.311 220.635L273.714 294.782C270.117 296.07 259.137 300.457 255.923 300.903C253.08 300.092 249.617 298.741 246.753 297.717L189.042 277.212C150.41 263.417 110.531 249.675 72.445 234.596C70.9132 234.042 68.199 233.315 67.6225 231.823C65.3632 224.716 71.2013 208.319 80.1286 210.831C93.4717 213.911 109.234 220.848 122.441 225.488L235.789 265.405C242.327 267.645 249.335 270.579 255.923 272.414C282.179 263.745 309.33 253.668 335.406 244.399L420.926 214.094L465.53 197.459C473.545 194.473 484.6 189.386 492.892 188.354Z"/><path transform="scale(2 2)" d="M396.259 332.201C396.817 333.011 396.64 344.345 396.413 346.165C395.288 355.211 387.025 363.372 380.216 368.675C322.63 413.523 164.917 415.177 118.981 356.356C113.881 349.536 114.466 340.534 114.758 332.201C122.444 347.034 157.96 360.561 172.743 364.543C222.103 377.838 278.355 378.335 328.141 367.467C349.377 362.831 384.084 351.091 396.259 332.201Z"/><path transform="scale(2 2)" d="M63.4522 208.321C68.6839 198.275 85.1921 199.12 94.6085 197.76L216.207 180.855C222.953 179.923 254.697 174.731 259.573 175.714C260.838 176.518 261.296 179.398 260.425 180.709C259.12 181.635 249.278 182.563 247.075 182.859L89.155 205.051C79.7363 206.213 75.1975 204.967 68.0623 211.904C63.0776 218.782 63.3892 224.636 63.444 232.813L63.4011 305.212C63.3704 308.155 63.8821 319.451 63.0773 322.793C62.9578 323.29 58.8268 323.775 57.5091 324.073C57.3039 320.825 57.498 315.819 57.5 312.385L57.3609 223.362C57.3651 218.036 59.642 212.139 63.4522 208.321Z"/><path transform="scale(2 2)" d="M63.4522 208.321L63.5442 208.789C55.3739 217.677 58.9344 222.231 58.4618 230.255C58.2785 233.367 57.031 251.796 59.848 251.785L59.8027 252.031L58.6956 252.152C58.3118 253.603 58.3201 321.463 58.6468 323.1C63.3844 324.08 62.3296 317.909 62.2773 315.003L62.2411 312.79C62.2236 311.456 61.4912 311.048 61.5077 308.732C61.6221 292.671 60.5681 274.198 61.5924 258.413L62.2114 259.619C62.3547 257.293 61.7577 251.903 62.2197 251.872C63.3402 242.167 59.8395 219.174 67.7117 211.698L68.0623 211.904C63.0776 218.782 63.3892 224.636 63.444 232.813L63.4011 305.212C63.3704 308.155 63.8821 319.451 63.0773 322.793C62.9578 323.29 58.8268 323.775 57.5091 324.073C57.3039 320.825 57.498 315.819 57.5 312.385L57.3609 223.362C57.3651 218.036 59.642 212.139 63.4522 208.321Z"/><path transform="scale(2 2)" d="M58.5 325.094C63.7661 324.77 68.1793 326.297 69.5387 331.972C71.2189 338.986 64.5998 340.059 62.7251 342.973C62.9082 345.059 67.1809 346.317 67.9439 349.097C68.5389 351.265 68.141 354.007 68.947 355.982L78.818 380.312C80.1765 383.648 82.0794 387.908 83.036 391.245C77.6185 391.559 69.0674 391.257 63.4522 391.245L39.1932 391.245C39.8125 388.029 42.15 382.551 43.4482 379.411L50.0087 363.176C51.6697 358.965 53.8585 354.069 53.9164 349.54C53.9681 345.486 60.9481 345.182 58.8481 342.517C48.8218 338.782 50.0681 326.844 58.5 325.094ZM62.25 355.265C66.1464 353.806 65.5126 347.82 59.4091 348.053C54.6784 350.575 56.0914 355.524 62.25 355.265Z"/><path transform="scale(2 2)" d="M18.9553 188.354C27.3364 190.037 53.0889 200.249 60.5331 203.823C58.0612 209.59 55.2543 212.267 52.8259 219.732C52.9547 222.286 52.902 224.343 52.8259 226.883C41.4582 223.154 30.0802 217.651 18.9553 214.126C18.9591 206.5 18.5787 195.587 18.9553 188.354Z"/></svg>