<?xml version="1.0" encoding="utf-8" ?><svg xmlns="http://www.w3.org/2000/svg" xmlns:xlink="http://www.w3.org/1999/xlink" width="1024" height="1024" viewBox="0 0 1024 1024"><path transform="scale(2 2)" d="M405.288 42.6436C481.05 38.8315 523.302 132.698 467.223 187.719C459.098 195.69 446.912 203.936 437.948 211.373L403.894 239.336C394.764 246.984 384.107 256.364 374.471 263.102C344.207 284.265 312.275 279.896 281.679 264.507C279.322 266.067 274.238 270.657 271.856 272.68L251.352 290.124C241.678 298.29 225.111 310.943 215.603 320.482C215.685 320.4 215.461 326.628 215.327 327.594C214.209 335.689 211.193 342.631 205.34 348.347C193.921 359.498 179.886 370.181 167.658 380.568L142.73 401.51C133.372 409.37 123.379 419.255 111.272 421.983C77.4808 429.595 52.8039 392.029 70.6014 365.445C74.8069 359.178 81.326 354.479 87.0117 349.635L143.249 302.198C160.353 287.707 157.936 287.412 179.259 282.946L179.582 282.876C180.786 281.377 181.875 280.127 183.166 278.7C166.918 278.732 161.47 282.087 149.672 291.156C127.948 307.857 107.677 326.319 86.4168 343.589C65.879 358.794 52.046 378.533 65.299 405.037C75.8555 426.148 103.051 433.289 123.309 422.223C131.029 418.006 139.455 410.022 146.319 404.196L201.651 357.939C218.969 343.167 214.651 339.508 219.997 322.789L220.105 322.46C224.216 317.643 243.447 302.602 248.708 298.649C254.348 328.652 251.887 356.212 226.474 377.558L162.29 431.65C153.344 439.243 145.94 445.999 135.111 451.124C60.1129 486.618 -4.86657 391.338 48.7283 334.736C54.3379 328.811 61.1766 323.933 67.4102 318.682L123.201 271.181C128.177 266.94 132.933 262.61 138.394 258.973C159.268 245.071 190.264 242.348 212.366 255.324C213.528 254.164 214.554 252.702 215.549 251.384C190.557 239.981 168.033 238.197 142.751 250.833C132.905 255.754 127.703 261.545 119.505 268.419L53.5123 324.608C35.6654 339.818 25.9372 357.201 24.8236 381.338C22.6073 448.559 98.6942 487.836 153.107 445.939C158.051 442.132 163.01 437.601 167.802 433.5L193.163 411.833C205.949 400.847 219.395 390.288 232.063 379.332C254.707 358.949 261.364 325.016 252.671 296.444C251.139 291.41 255.86 288.55 257.705 294.207C266.996 322.7 261.336 357.772 239.914 379.607C228.709 391.028 212.107 403.369 199.262 414.22L167.871 440.624C154.831 451.592 147.465 458.716 130.457 464.565C61.007 488.447 -5.8857 414.402 27.5324 347.328C36.4945 329.34 46.8248 322.539 61.5771 309.866C68.6449 303.794 75.6632 297.687 83.0164 291.957C85.9393 289.68 85.328 293.109 87.4519 288.59C88.1779 287.045 131.041 251.084 134.506 248.857C161.33 231.621 192.431 233.316 220.105 247.996C231.841 239.247 242.661 228.169 254.66 219.285C243.972 189.779 252.867 153.768 273.861 131.118C279.105 125.46 284.309 121.42 290.16 116.545C311.538 98.7285 333.235 81.401 354.491 63.4352C369.504 50.718 385.512 43.6024 405.288 42.6436ZM327.026 226.805C344.814 224.984 350.705 217.496 363.489 206.732L426.767 154.899C457.193 130.797 435.309 89.1814 405.288 93.6488C396.265 94.5771 391.655 98.0307 384.997 103.533L342.798 138.647C335.433 144.8 327.484 151.047 320.261 157.259C312.312 162.936 307.556 167.876 304.389 177.41C312.877 174.205 319.684 172.329 328.385 176.179C341.731 182.084 346.731 198.499 340.692 211.393C338.077 216.976 334.329 219.796 329.821 223.775C328.662 224.901 328.001 225.513 327.026 226.805ZM119.619 412.711C123.606 410.315 126.499 407.647 130.065 404.712L181.229 361.762C188.82 355.441 216.446 335.546 212.263 322.932C209.73 326.336 200.6 329.85 196.566 330.443C175.536 333.536 160.509 311.323 170.309 292.528C170.582 291.991 171.921 290.077 171.96 289.831C168.968 291.391 165.873 290.846 162.926 292.967C159.784 295.229 157.304 298.032 154.354 300.468L125.794 324.4C119.346 329.818 91.0537 351.363 87.3013 357.292C86.2533 358.948 82.6369 360.431 80.7786 362.092C51.1132 388.618 88.5777 432.053 119.619 412.711ZM320.644 231.488C319.395 233.211 317.862 234.013 316.393 235.448C334.006 241.283 351.289 230.29 364.199 219.54L427.366 167.27C431.765 163.715 437.49 159.101 441.431 155.076C451.885 142.316 454.982 123.267 447.53 108.369C440.121 93.5554 423.631 81.6126 406.68 83.5023C393.834 84.0675 385.551 89.8073 376.227 97.5058L323.649 141.142C305.223 156.482 295.616 161.039 291.837 186.998C297.949 182.865 297.367 182.017 299.546 175.068C303.482 162.519 311.891 157.212 321.403 149.156C342.384 131.388 363.572 113.825 384.786 96.335C417.783 69.349 466.273 109.776 438.838 150.575C438.161 151.538 436.657 153.837 435.798 154.539L384.291 196.786C362.526 214.448 350.121 232.77 320.644 231.488ZM196.261 325.252C204.297 324.834 214.265 313.958 220.605 308.544L320.927 224.173C324.991 220.776 329.369 217.23 333.003 213.374C347.466 198.027 328.073 174.281 315.431 180.161C304.566 180.388 296.989 190.692 289.222 197.227L182.141 287.281C171.699 295.917 168.48 310.409 179.674 319.931C185.97 325.502 188.401 325.478 196.261 325.252ZM259.014 215.312C260.383 214.171 261.881 212.969 263.171 211.757C255.69 177.906 265.4 151.024 291.302 129.051L301.847 120.027C315.457 108.596 329.304 97.4604 343.07 86.2546L358.522 73.6182C368.917 65.0635 378.613 57.6069 392.44 54.8348C456.315 42.0285 500.055 102.76 474.729 160.51C472.732 162.896 471.418 165.957 469.655 168.5C462.764 178.44 452.915 185.909 443.539 193.355C422.797 209.83 402.765 227.158 382.06 243.676C376.76 247.904 371.695 252.556 366.021 256.237C347.4 268.3 320.834 269.987 300.322 262.256C296.824 260.937 293.087 258.624 289.764 257.5C288.674 258.578 287.47 259.822 286.342 260.83L286.745 260.969C291.831 262.758 295.988 265.749 301.633 267.584C341.243 280.459 363.632 264.66 392.073 241.641L458.169 188.087C491.256 161.016 496.637 111.407 470.457 77.7156C456.554 59.8124 429.604 46.7561 406.68 48.3626C379.27 50.1896 361.864 63.1117 341.801 81.0699C325.081 94.8284 307.777 108.759 291.511 122.915C285.928 127.679 281.877 130.208 276.891 136.147C255.936 161.111 253 185.016 259.014 215.312Z"/><path transform="scale(2 2)" d="M315.431 183.799C323.568 183.139 329.967 186.629 332.784 194.648C336.955 206.521 326.91 212.916 319.446 219.233L215.977 306.306C210.38 311.069 203.264 318.886 196.261 320.701C179.321 322.104 170.748 302.798 181.868 293.359L290.068 202.682C296.745 197.052 306.803 185.654 315.431 183.799Z"/><path transform="scale(2 2)" d="M190.074 224.249C178.3 221.946 156.506 216.536 146.081 209.92C161.76 214.6 174.146 216.221 190.074 223.775L190.074 224.249Z"/><path transform="scale(2 2)" d="M305.962 317.921C305.859 315.816 307.683 318.253 308.75 318.682C312.672 320.301 332.603 344.302 335.279 349.285C323.327 338.064 315.651 331.113 305.962 317.921Z"/><path transform="scale(2 2)" d="M180.912 166.045C187.961 171.412 201.879 186.877 206.21 194.435C205.412 194.175 205.355 193.936 204.633 194.435C195.014 185.134 187.512 177.317 179.582 166.045L180.912 166.045Z"/><path transform="scale(2 2)" d="M275.126 337.53C275.665 337.643 275.429 337.674 275.841 337.53C279.556 346.377 278.269 362.473 278.903 372.548C275.382 363.589 274.876 346.915 275.126 337.53Z"/><path transform="scale(2 2)" d="M234.211 131.382C235.485 136.054 235.709 137.721 236.153 142.441C236.816 144.724 237.808 155.446 237.551 157.646C237.821 159.817 238.166 162.174 238.264 164.343L237.897 163.243C236.893 163.1 237.378 163.046 236.4 163.486L236.153 164.343C236.003 163.011 236.097 161.844 236.153 160.51C234.794 154.396 234.244 148.762 234.211 142.441C234.063 140.621 234.112 133.34 234.211 131.382Z"/><path transform="scale(2 2)" d="M234.211 131.382C235.485 136.054 235.709 137.721 236.153 142.441L235.798 142.457L235.838 143.667L235.558 143.929L234.831 143.757C234.435 143.024 234.487 142.682 234.449 141.857L234.211 142.441C234.063 140.621 234.112 133.34 234.211 131.382Z"/><path transform="scale(2 2)" d="M236.153 160.51C236.576 159.055 235.843 158.794 236.079 157.558L236.767 157.394C237.135 157.719 237.135 157.814 237.25 158.286L237.356 158.743L237.551 157.646C237.821 159.817 238.166 162.174 238.264 164.343L237.897 163.243C236.893 163.1 237.378 163.046 236.4 163.486L236.153 164.343C236.003 163.011 236.097 161.844 236.153 160.51Z"/><path transform="scale(2 2)" d="M333.722 291.423C341.297 290.866 358.053 295.187 364.68 298.712L364.764 298.908C360.026 298.086 355.201 297.561 350.497 296.663C344.83 295.582 339.299 293.621 333.722 292.374L333.722 291.423Z"/><path transform="scale(2 2)" d="M236.153 164.343L236.4 163.486C237.378 163.046 236.893 163.1 237.897 163.243L238.264 164.343C238.287 168.773 238.019 176.09 238.264 180.161C237.371 177.638 236.504 167.777 236.153 164.343Z"/><path transform="scale(2 2)" d="M305.962 317.921C304.059 315.333 301.752 312.917 300.027 310.506L300.106 310.335L299.854 310.231C302.931 313.027 305.921 315.487 308.75 318.682C307.683 318.253 305.859 315.816 305.962 317.921Z"/><path transform="scale(2 2)" d="M204.633 194.435C205.355 193.936 205.412 194.175 206.21 194.435C208.04 196.386 211.072 199.849 212.366 202.206L204.633 194.435Z"/><path transform="scale(2 2)" d="M333.722 292.374L333.38 292.307C331.765 291.985 325.901 290.673 325.097 289.468C328.173 289.848 328.72 291.214 333.722 291.423L333.722 292.374Z"/><path transform="scale(2 2)" d="M176.295 161.504C178.221 162.897 179.363 164.267 180.912 166.045L179.582 166.045C178.41 164.841 177.153 162.945 176.295 161.504Z"/><path transform="scale(2 2)" d="M275.126 337.53C275.003 336.407 274.367 332.215 274.485 331.448C275.191 333.059 275.674 335.748 275.841 337.53C275.429 337.674 275.665 337.643 275.126 337.53Z"/><path transform="scale(2 2)" d="M190.074 223.775C191.507 224.207 192.791 224.528 194.124 225.212C192.787 224.888 191.416 224.536 190.074 224.249L190.074 223.775Z"/></svg>