<?xml version="1.0" encoding="utf-8" ?><svg xmlns="http://www.w3.org/2000/svg" xmlns:xlink="http://www.w3.org/1999/xlink" width="1024" height="1024" viewBox="0 0 1024 1024"><path fill="#090909" transform="scale(2 2)" d="M252.566 18.3701C281.168 16.1388 303.664 45.0235 296.867 72.4468C299.917 73.2253 302.893 74.6851 305.751 75.9926C342.457 92.7893 369.664 127.674 375.903 167.705C377.337 176.908 377.288 186.207 377.924 195.479C381.362 245.594 399.015 330.933 430.03 372.659C441.395 387.949 448.834 404.665 432.879 421.556C412.185 443.464 338.916 457.412 305.697 458.292C296.596 477.535 282.734 490.487 260.248 492.312C234.316 493.721 216.957 480.6 206.34 458.292C172.283 454.36 85.2194 447.859 71.9579 409.16C66.0902 392.038 77.6307 380.373 85.2427 367.273C109.55 325.443 122.059 278.238 129.735 230.775C136.269 190.377 130.926 151.365 157.076 116.175C170.235 98.4675 192.87 79.0363 214.606 72.4468C207.248 46.5596 226.032 21.0695 252.566 18.3701ZM227.943 79.0157C186.248 86.6554 152.794 128.114 146.342 168.837C144.951 179.096 144.405 189.516 143.459 199.826C138.221 256.96 123.811 322.467 94.227 372.584C90.4189 379.036 85.7045 384.708 82.4821 391.379C77.183 402.927 84.5742 414.827 94.5367 420.901C129.861 442.435 173.992 443.461 213.734 448.917C219.333 469.687 239.533 485.306 261.429 481.969C279.849 479.592 293.786 466.868 298.34 448.917L298.732 448.84C302.738 448.08 307.525 447.995 311.742 447.609C335.374 445.449 439.882 435.184 430.809 394.967C429.702 387.707 424.049 383.659 420.469 377.79C391.707 330.637 377.821 275.58 370.479 221.305C366.881 194.704 369.874 170.784 359.407 145.539C344.153 108.747 318.547 89.5088 281.761 78.1569C296.814 62.6805 282.264 27.2793 252.566 28.8506C232.998 30.9358 221.284 46.1407 223.436 65.5845C224.133 71.8844 226.464 74.0635 227.943 79.0157Z"/><path fill="#090909" transform="scale(2 2)" d="M211.782 92.8354C215.76 89.8833 219.067 89.4835 223.553 88.0209C286.284 67.5668 353.34 110.742 359.549 176.785C360.257 184.316 359.952 192.011 360.648 199.595C365.574 253.281 381.052 328.345 410.502 374.246C406.226 373.002 401.696 371.284 397.537 370.14C351.593 357.503 302.678 355.723 255.211 355.745C209.444 355.765 163.129 359.108 118.789 371.032C117.223 371.453 108.903 374.209 108.279 374.225C109.493 371.665 139.975 364.249 146.573 362.14C168.833 314.604 177.085 252.666 181.152 201.051C182.62 182.415 181.719 173.439 188.36 155.798C198.046 130.066 218.996 107.589 245.213 98.2856C256.362 94.3293 263.276 94.3869 274.264 93.6377C262.833 89.5249 224.401 86.9511 211.782 92.8354L211.782 92.8354Z"/><path fill="#090909" transform="scale(2 2)" d="M240.251 361.497C283.259 361.481 335.36 361.821 377.297 371.638C392.721 375.248 424.6 379.901 424.021 401.077C424.02 406.935 421.025 410.334 417.18 414.116C410.912 420.282 411.523 416.314 405.781 413.227C370.908 394.479 312.075 393.942 271.579 392.503C226.133 392.479 131.472 392.515 99.7666 416.683C92.7769 415.974 81.4857 402.22 90.2418 392.155C112.452 366.627 202.481 364.011 240.251 361.497Z"/><path fill="#090909" transform="scale(2 2)" d="M252.566 394.26C297.019 393.965 375.596 395.914 410.502 419.002C384.783 432.296 331.38 442.767 300.513 442.67C299.684 442.672 299.483 442.679 298.677 442.37L298.34 444.383C292.172 484.312 233.579 495.354 216.568 452.249C215.149 449.715 214.5 446.471 213.734 443.627L213.734 442.67L213.015 441.395C212.042 438.197 213.767 428.455 214.606 425.131C216.676 413.745 227.765 400.588 238.82 396.905C240.733 393.841 236.278 394.471 234.47 394.26C235.859 394.07 239.445 394.2 240.98 394.213L252.566 394.26ZM262.561 475.739C264.368 474.692 267.963 472.522 269.452 471.179C249.093 467.833 232.962 453.655 229.441 433.013C229.225 431.745 228.429 425.816 227.943 425.131C222.958 433.53 220.973 437.384 223.456 447.627C227.047 462.443 240.886 475.986 256.654 475.867C258.244 475.852 261.232 475.557 262.561 475.739Z"/><path fill="#090909" transform="scale(2 2)" d="M238.82 396.905C239.515 396.808 239.633 396.699 240.251 396.905C226.382 403.927 221.133 411.071 215.322 425.131L214.606 425.131C216.676 413.745 227.765 400.588 238.82 396.905Z"/><path fill="#090909" transform="scale(2 2)" d="M269.452 396.091C285.407 399.068 297.07 416.078 299.111 431.285C298.856 432.391 298.795 432.642 298.34 433.667C298.188 414.676 285.572 403.3 269.452 396.091Z"/><path fill="#090909" transform="scale(2 2)" d="M234.47 394.26C235.859 394.07 239.445 394.2 240.98 394.213L252.566 394.26C250.42 394.721 240.756 396.938 240.251 396.905C239.633 396.699 239.515 396.808 238.82 396.905C240.733 393.841 236.278 394.471 234.47 394.26Z"/><path fill="#090909" transform="scale(2 2)" d="M299.111 431.285C301.044 435.331 299.741 439.263 300.513 442.67C299.684 442.672 299.483 442.679 298.677 442.37L298.34 444.383L298.34 433.667C298.795 432.642 298.856 432.391 299.111 431.285Z"/><path fill="#090909" transform="scale(2 2)" d="M214.606 425.131L215.322 425.131C213.53 431.123 213.614 436.551 213.734 442.67L213.015 441.395C212.042 438.197 213.767 428.455 214.606 425.131Z"/><path fill="#090909" transform="scale(2 2)" d="M213.734 443.627C216.646 444.866 216.588 449.482 216.568 452.249C215.149 449.715 214.5 446.471 213.734 443.627Z"/><path fill="#090909" transform="scale(2 2)" d="M102.045 419.002C123.065 396.969 199.976 397.455 234.47 394.26C236.278 394.471 240.733 393.841 238.82 396.905C227.765 400.588 216.676 413.745 214.606 425.131C213.767 428.455 212.042 438.197 213.015 441.395C212.925 442.413 213.082 442.391 212.587 443.122C211.088 443.859 183.116 440.586 179.439 439.983C156.76 436.264 133.448 432.765 112.179 423.668C108.806 422.225 105.553 419.983 102.045 419.002Z"/><path fill="#090909" transform="scale(2 2)" d="M261.429 30.7067C264.871 30.3936 268.728 32.7906 271.586 34.5219C287.331 44.0608 290.098 63.1182 280.858 78.1569C276.747 76.8081 271.232 76.209 266.74 75.2552C258.277 75.7476 248.958 74.6417 240.251 76.2931C240.141 48.1395 240.544 52.9685 261.429 30.7067Z"/><path fill="#090909" transform="scale(2 2)" d="M201.999 98.0269L201.999 98.0269C179.367 114.034 166.939 128.716 157.381 155.843L157.381 155.843C157.1 154.442 157.458 152.401 157.954 151.075C164.12 134.585 184.449 103.827 201.999 98.0269Z"/><path fill="#090909" transform="scale(2 2)" d="M144.279 249.581L144.861 248.481L145.407 248.7C139.925 274.822 135.378 296.841 126.617 322.496L125.847 322.496C129.797 312.684 133.838 297.598 136.055 287.385C138.751 274.968 142.759 262.342 144.279 249.581Z"/><path fill="#090909" transform="scale(2 2)" d="M111.261 356.986C113.708 349.941 122.699 328.268 125.847 322.496L126.617 322.496C125.058 329.531 114.633 352.089 111.261 356.986Z"/><path fill="#090909" transform="scale(2 2)" d="M153.856 167.319L154.812 167.319C154.544 170.324 153.864 175.744 153.32 178.716C153.316 179.547 153.414 182.703 153.32 183.238L152.509 184.239L152.509 183.238C152.148 177.123 152.385 173.306 153.856 167.319Z"/><path fill="#090909" transform="scale(2 2)" d="M152.509 183.238C152.779 181.545 152.365 180.463 152.71 178.717L153.32 178.716C153.316 179.547 153.414 182.703 153.32 183.238L152.509 184.239L152.509 183.238Z"/><path fill="#090909" transform="scale(2 2)" d="M152.509 184.239L153.32 183.238C152.161 191.486 152.378 201.296 151.098 208.771L150.448 208.771C151.301 200.589 151.511 192.43 152.509 184.239Z"/><path fill="#090909" transform="scale(2 2)" d="M149.698 212.745C150.252 212.88 149.962 212.867 150.568 212.755L151.098 211.595C150.568 214.987 149.843 219.677 149.698 223.033C148.955 222.943 148.984 222.868 148.302 223.033C148.559 219.616 148.94 216.084 149.698 212.745Z"/><path fill="#090909" transform="scale(2 2)" d="M148.302 225.773L148.854 225.773C148.252 229.879 147.506 236.438 146.573 240.353C146.394 239.711 146.398 239.946 146.573 239.309C146.734 235.483 147.33 229.422 148.302 225.773Z"/><path fill="#090909" transform="scale(2 2)" d="M146.573 239.309C146.398 239.946 146.394 239.711 146.573 240.353C146.736 242.488 145.971 246.616 145.407 248.7L144.861 248.481L144.279 249.581C144.728 246.189 145.172 242.447 146.573 239.309Z"/><path fill="#090909" transform="scale(2 2)" d="M211.782 92.8354L211.782 92.8354C208.334 94.3806 205.269 96.1457 201.999 98.0269L201.999 98.0269C205.28 95.1368 207.587 93.8409 211.782 92.8354Z"/><path fill="#090909" transform="scale(2 2)" d="M157.381 155.843L157.381 155.843C156.524 158.833 155.722 161.931 154.812 164.89L154.812 164.89C155.213 160.765 155.498 159.536 157.381 155.843Z"/><path fill="#090909" transform="scale(2 2)" d="M150.448 208.771L151.098 208.771C151.088 209.525 151.028 210.897 151.098 211.595L150.568 212.755C149.962 212.867 150.252 212.88 149.698 212.745C149.756 211.517 150.169 209.997 150.448 208.771Z"/><path fill="#090909" transform="scale(2 2)" d="M148.302 223.033C148.984 222.868 148.955 222.943 149.698 223.033C149.534 223.832 149.307 225.086 148.854 225.773L148.302 225.773L148.302 223.033Z"/><path fill="#090909" transform="scale(2 2)" d="M154.812 164.89L154.812 164.89C154.832 165.737 154.849 166.473 154.812 167.319L153.856 167.319C154.172 166.343 154.38 165.82 154.812 164.89Z"/></svg>