<?xml version="1.0" encoding="utf-8" ?><svg xmlns="http://www.w3.org/2000/svg" xmlns:xlink="http://www.w3.org/1999/xlink" width="1024" height="1024" viewBox="0 0 1024 1024"><path transform="scale(2 2)" d="M222.82 19.0298L262.55 19.0238C274.633 19.0175 289.227 18.1437 300.695 21.0148C318.957 25.5872 335.196 42.3781 338.483 61.0145C339.823 68.6119 339.751 75.989 339.747 83.662L339.735 172.467C341.947 172.248 348.508 172.447 350.985 172.455L441.8 172.204C455.841 172.2 467.766 178.748 477.646 188.355C494.564 204.806 492.437 225.685 492.43 247.003L492.45 282.294C492.458 309.102 479.292 332.311 451.134 337.891C443.529 339.398 436.727 339.226 429.005 339.223L339.735 339.213L339.749 428.878C339.751 436.555 340.11 443.777 338.38 451.344C333.159 474.17 312.398 491.435 288.788 491.61L242.285 491.603C234.579 491.581 226.976 491.637 219.265 491.436C193.035 490.751 171.06 466.564 172.357 440.567C172.514 437.417 172.495 434.199 172.501 431.048L172.499 358.426C172.499 353.084 172.157 344.134 172.499 339.213L83.884 339.222C64.9187 339.229 49.938 339.339 35.3838 324.754C22.8136 312.158 19.4047 300.811 19.2963 283.59L19.2807 231.93C19.2758 225.113 18.9935 218.701 20.7231 212.053C29.3025 179.076 55.0758 172.449 84.2076 172.46L172.499 172.467L172.484 78.6487C172.478 56.818 176 40.7197 196.101 27.4164C205.228 21.3763 212.248 19.9943 222.82 19.0298ZM183.248 183.245L84.6323 183.239C67.4013 183.234 55.32 183.312 41.9474 196.522C27.5976 210.697 30.5006 228.024 30.518 246.727L30.5188 281.876C30.6469 303.157 40.1167 322.519 62.9008 327.062C70.1153 328.5 77.2817 328.271 84.6119 328.27L183.248 328.258L183.236 432.04C183.178 452.813 188.545 473.896 212.559 479.33C221.214 481.288 234.424 480.593 243.636 480.594L290.188 480.587C313.626 477.019 328.949 461.348 329.019 436.487L329.055 328.258L427.17 328.261C434.71 328.259 441.86 328.599 449.406 326.974C471.718 322.193 480.62 303.935 480.69 283.174C480.754 263.891 480.582 244.73 480.686 225.438C480.797 204.837 466.43 188.231 446.516 183.912C439.683 182.472 431.825 182.741 424.861 182.742L329.055 182.752L329.072 82.1768C329.091 75.243 329.408 69.6249 328.047 62.7975C323.83 41.6497 305.054 29.6769 284.211 29.7409C263.773 29.8036 243.201 29.4634 222.748 29.6774L221.643 29.6914C191.637 34.1547 183.236 52.496 183.236 80.0205L183.248 183.245Z"/><path transform="scale(2 2)" d="M235.173 46.2517C236.669 46.1258 239.699 46.2332 241.304 46.2354L269.206 46.2409C298.694 46.2637 296.766 58.1493 296.749 82.4094L296.748 181.328C296.749 210.081 291.372 223.524 325.84 223.447L433.713 223.422C446.26 223.41 465.026 223.359 465.32 241.386C465.523 253.893 465.85 267.164 465.038 279.65C463.877 297.485 443.708 295.885 431.402 295.871L340.154 295.869C333.303 295.864 318.847 295.015 312.859 296.939C292.26 303.557 296.349 326.134 296.349 342.875L296.357 437.917C296.366 450.631 297.579 463.856 282.3 468.554C275.238 470.231 263.751 468.837 256.122 469.23C248.263 469.634 233.809 470.494 227.046 465.968C217.987 459.704 218.564 451.678 218.601 442.037L218.641 328.345C218.668 304.974 214.68 301.717 193.302 301.728L79.9418 301.749C58.5414 301.814 52.8592 300.556 52.8399 279.174L52.8306 238.129C52.8336 214.71 54.9487 210.701 77.4139 210.754L189.452 210.787C223.916 210.804 218.61 201.78 218.613 173.547L218.616 78.3894C218.619 63.8792 217.497 49.5556 235.173 46.2517Z"/><path transform="scale(2 2)" d="M306.004 61.3806C307.939 63.2875 307.75 80.8642 307.751 84.4834L307.755 171.349C307.754 181.821 307.517 193.223 307.749 203.617C310.77 204.389 314.236 204.032 317.404 204.064L430.934 204.133C434.295 204.123 448.02 202.949 449.213 205.984C448.218 206.205 444.599 205.992 443.306 205.99L310.53 205.97C309.215 205.96 307.512 205.784 306.476 204.947C305.667 201.391 306.001 189.428 306.002 185.016L306.005 88.5611C306.002 79.2755 305.348 70.7524 306.004 61.3806Z"/><path transform="scale(2 2)" d="M202.045 204.136L202.1 203.673C202.746 198.013 202.049 190.359 202.046 184.47L202.039 93.3825C202.039 86.9879 201.9 65.2719 205.426 60.133C205.615 62.035 204.674 67.6547 204.684 70.4709L204.699 169.017C204.698 181.13 204.486 193.911 204.702 205.984C200.825 206.099 196.979 205.99 193.105 205.984L75.6396 206.015C64.8914 206.012 65.0307 204.44 56.3548 210.609L56.1643 210.353C57.6797 205.178 72.0502 204.15 76.2117 204.137L139.94 204.136L159.157 204.117C162.121 204.114 166.207 203.98 169.059 204.136L184.005 204.099C185.577 204.097 189.787 203.98 191.091 204.136C194.739 204.088 198.397 204.12 202.045 204.136Z"/><path transform="scale(2 2)" d="M139.94 204.136L159.157 204.117C162.121 204.114 166.207 203.98 169.059 204.136C165.468 205.454 141.617 204.841 139.94 204.136Z"/><path transform="scale(2 2)" d="M200.295 304.991C201.653 304.808 202.773 304.602 203.984 305.255C205.18 306.907 204.709 340.625 204.709 344.684L204.707 434.568C204.716 437.197 205.055 445.748 204.272 447.823C200.649 448.767 202.04 432.927 202.041 430.187L202.043 323.031C202.043 320.723 202.583 306.608 201.8 305.787L200.295 305.74L201.358 305.481L201.285 305.24L200.295 304.991Z"/><path transform="scale(2 2)" d="M306.004 327.36C305.939 306.821 302.209 302.495 325.993 302.494L346.39 302.5C375.445 302.516 404.472 303.181 433.499 303.004C432.819 303.906 432.152 304.083 431.118 304.552L329.224 304.543C317.974 304.536 308.262 301.434 307.855 315.342C307.67 321.663 308.02 327.834 308.531 334.127C307.043 339.263 309.178 343.566 306.373 348.162C306.743 346.16 306.471 329.332 306.004 327.36Z"/><path transform="scale(2 2)" d="M306.004 327.36C306.471 329.332 306.743 346.16 306.373 348.162C309.178 343.566 307.043 339.263 308.531 334.127L308.524 422.881C308.524 429.95 308.699 440.024 308.495 447.342C308.453 448.847 306.17 448.475 306.112 446.753C305.958 442.161 306.003 437.559 306.002 432.965L306.004 327.36Z"/><path transform="scale(2 2)" d="M118.134 305.74L84.5899 305.736C81.6613 305.736 68.533 306.101 66.856 305.283C68.2211 304.888 75.8338 304.992 77.7173 304.991L185.86 304.991C190.002 304.958 196.405 305.223 200.295 304.991L201.285 305.24L201.358 305.481L200.295 305.74L118.134 305.74Z"/><path transform="scale(2 2)" d="M185.86 304.991C190.002 304.958 196.405 305.223 200.295 304.991L201.285 305.24L201.358 305.481L200.295 305.74L118.134 305.74C119.339 305.552 126.347 305.724 128.139 305.73L181.595 305.746C184.5 305.743 190.765 305.361 193.172 305.548C189.907 305.599 189.051 305.609 185.86 304.991Z"/><path transform="scale(2 2)" d="M433.499 303.004C434.62 303.156 435.607 303.187 436.59 303.713L436.478 304.005C434.991 304.425 432.705 304.494 431.118 304.552C432.152 304.083 432.819 303.906 433.499 303.004Z"/><path transform="scale(2 2)" d="M188.283 61.3806C188.266 62.7169 188.825 60.938 189.41 60.7394L189.732 61.029C189.721 61.5971 189.654 62.1567 189.794 62.6842L189.931 62.7308C189.131 79.3715 189.635 95.7431 189.597 112.351L189.499 189.343C180.308 189.447 135.624 190.599 128.406 188.234C129.305 188.195 129.535 188.206 130.402 188.43L130.571 188.237C130.156 188.433 130.388 188.38 129.816 188.202L130.278 188.317C130.522 187.687 130.436 187.895 131.309 187.497L131.719 187.313C132.751 187.186 135.951 187.278 137.096 187.283L187.261 187.313L187.254 82.6988C187.249 77.5461 186.945 66.0623 188.283 61.3806Z"/><path transform="scale(2 2)" d="M205.992 39.5321C214.522 34.135 223.632 34.2304 233.25 34.2431L273.669 34.2518C296.705 34.2075 320.402 38.0573 324.431 66.407C325.048 70.7451 324.815 75.5527 324.813 79.985L324.799 100.667C324.792 122.797 325.03 145.337 324.801 167.426C324.178 168.416 324.304 169.021 323.795 169.771L323.516 168.624L323.229 169.199C323.056 161.676 323.239 153.321 323.238 145.722L323.241 80.3227C323.298 71.2542 323.607 62.6175 319.149 54.2612C309.371 35.4601 291.488 35.9144 273.492 35.9282L253.163 35.9186C238.267 35.9123 219.222 33.6876 205.992 40.9832L205.992 39.5321Z"/><path transform="scale(2 2)" d="M450.933 320.936L451.799 321.582L451.88 322.241C450.058 322.922 445.054 324.454 443.218 324.501C439.23 325.613 423.877 324.485 418.257 324.489L324.801 324.501L324.801 322.241L443.218 322.241C445.941 322.111 448.289 321.584 450.933 320.936Z"/><path transform="scale(2 2)" d="M313.337 465.55C313.642 463.662 316.442 460.036 317.603 458.136C324.196 447.348 323.234 433.365 323.234 420.99L323.232 350.41C323.233 341.096 323.348 331.904 322.986 322.594C323.609 322.09 323.789 322.273 324.801 322.241L324.801 324.501C324.599 333.771 324.813 343.767 324.813 353.086L324.808 429.228C324.833 442.984 324.009 455.328 313.337 465.55L313.337 465.55Z"/><path transform="scale(2 2)" d="M37.6011 297.009C44.8961 317.229 57.51 322.253 76.784 322.254L163.754 322.233C166.201 322.232 170.188 322.087 172.499 322.241C174.305 322.197 189.016 321.495 188.283 322.75C188.044 322.988 187.424 323.573 187.261 323.813C174.093 323.185 160.764 324.086 147.572 323.813C146.375 323.975 140.29 323.837 138.694 323.834L85.3362 323.817C79.1336 323.819 72.5578 324.004 66.4111 323.448C53.2609 322.258 39.4241 309.876 36.7335 297.009L37.6011 297.009Z"/><path transform="scale(2 2)" d="M172.499 322.241C174.305 322.197 189.016 321.495 188.283 322.75C188.044 322.988 187.424 323.573 187.261 323.813C174.093 323.185 160.764 324.086 147.572 323.813C148.529 323.376 148.743 323.435 149.842 323.409L150.181 323.404L149.67 323.088L149.701 323.11L149.787 322.609C152.372 321.769 168.42 323.377 172.499 322.241Z"/><path transform="scale(2 2)" d="M323.229 174.236C323.428 175.119 323.343 175.46 323.871 176.015L324.454 175.437L324.801 175.814L324.801 187.313L431.121 187.317C434.735 187.323 439.691 187.173 443.218 187.313C442.44 188 442.248 187.978 441.197 188.234C437.424 188.078 432.304 188.229 428.403 188.23L323.229 188.234C323.589 185.073 323.231 177.861 323.229 174.236Z"/><path transform="scale(2 2)" d="M187.261 323.813C187.424 323.573 188.044 322.988 188.283 322.75L188.295 343.94C188.307 347.223 188.495 352.385 188.283 355.548C188.427 364.927 188.282 374.602 188.28 384.006L188.283 439.198C188.257 440.559 188.161 442.66 188.283 443.942L187.995 444.408L187.261 443.942C187.456 440.495 187.283 435.084 187.278 431.486L187.261 406.362L187.261 365.145C186.963 351.675 187.338 337.382 187.261 323.813Z"/><path transform="scale(2 2)" d="M187.261 323.813C187.424 323.573 188.044 322.988 188.283 322.75L188.295 343.94C188.307 347.223 188.495 352.385 188.283 355.548C187.561 348.389 189.266 338.716 187.94 331.84L187.779 331.904C186.555 340.579 188.72 359.283 187.261 365.145C186.963 351.675 187.338 337.382 187.261 323.813Z"/><path transform="scale(2 2)" d="M187.261 406.362C188.148 410.996 185.917 437.103 188.283 439.198C188.257 440.559 188.161 442.66 188.283 443.942L187.995 444.408L187.261 443.942C187.456 440.495 187.283 435.084 187.278 431.486L187.261 406.362Z"/><path transform="scale(2 2)" d="M474.777 217.732L474.807 216.424L475.318 217.732C476.936 221.644 476.491 231.175 476.493 235.723L476.487 277.392C476.468 297.221 475.238 308.613 456.689 319.729L456.689 318.7C473.424 309.8 475.331 295.716 475.331 279.166L475.322 234.673C475.32 229.405 475.52 222.826 474.777 217.732Z"/><path transform="scale(2 2)" d="M188.283 443.942C189.399 446.305 190.118 450.241 191.06 452.926C200.774 480.599 230.353 474.6 252.638 475.215C247.182 476.941 248.713 475.471 254.377 476.353C247.892 476.841 219.323 476.838 214.69 475.769C198.296 471.986 190.066 458.884 187.261 443.942L187.995 444.408L188.283 443.942Z"/><path transform="scale(2 2)" d="M35.4415 220.976C40.8804 189.442 64.1837 187.292 91.6432 187.305L118.134 187.313L131.719 187.313L131.309 187.497C130.436 187.895 130.522 187.687 130.278 188.317L129.816 188.202C130.388 188.38 130.156 188.433 130.571 188.237L130.402 188.43C129.535 188.206 129.305 188.195 128.406 188.234C124.979 188.82 102.097 188.605 98.122 188.234C80.6996 188.336 60.2013 185.743 46.8996 199.427C41.2948 205.193 36.5024 212.673 36.7335 220.976L35.4415 220.976Z"/><path transform="scale(2 2)" d="M118.134 187.313L131.719 187.313L131.309 187.497C130.436 187.895 130.522 187.687 130.278 188.317L129.816 188.202C130.388 188.38 130.156 188.433 130.571 188.237L130.402 188.43C129.535 188.206 129.305 188.195 128.406 188.234C124.979 188.82 102.097 188.605 98.122 188.234C100.935 187.988 120.866 188.81 121.558 187.979C120.386 187.713 119.313 187.518 118.134 187.313Z"/><path transform="scale(2 2)" d="M35.4415 220.976L36.7335 220.976L36.7335 291.616C36.8484 293.251 37.1541 295.431 37.6011 297.009L36.7335 297.009C35.3042 292.09 35.4941 288.703 35.4415 283.583C35.2734 281.414 35.4195 277.027 35.4229 274.698L35.4341 232.959C35.4288 229.166 35.2712 224.675 35.4415 220.976Z"/><path transform="scale(2 2)" d="M35.4415 283.583C36.1687 284.739 35.3548 286.632 36.0271 287.041C37.6399 281.212 35.4337 285.925 36.7335 291.616C36.8484 293.251 37.1541 295.431 37.6011 297.009L36.7335 297.009C35.3042 292.09 35.4941 288.703 35.4415 283.583Z"/><path transform="scale(2 2)" d="M308.968 468.554L308.968 469.246C295.162 479.29 281.387 475.945 264.989 476.375C263.273 476.42 255.475 476.488 254.377 476.353C248.713 475.471 247.182 476.941 252.638 475.215C254.378 475.085 257.786 475.199 259.622 475.202L276.212 475.226C290.527 475.244 296.264 475.987 308.968 468.554Z"/><path transform="scale(2 2)" d="M443.218 187.313C458.082 189.725 475.133 201.112 475.318 217.732L474.807 216.424L474.777 217.732C469.823 198.819 459.233 191.601 441.197 188.234C442.248 187.978 442.44 188 443.218 187.313Z"/><path transform="scale(2 2)" d="M205.992 39.5321L205.992 40.9832C199.533 44.4296 190.134 54.8383 189.931 62.7308L189.794 62.6842C189.654 62.1567 189.721 61.5971 189.732 61.029L189.41 60.7394C188.825 60.938 188.266 62.7169 188.283 61.3806C193.715 51.312 194.618 46.1348 205.992 39.5321Z"/><path transform="scale(2 2)" d="M323.229 169.199L323.516 168.624L323.795 169.771C324.304 169.021 324.178 168.416 324.801 167.426L324.801 175.814L324.454 175.437L323.871 176.015C323.343 175.46 323.428 175.119 323.229 174.236C323.285 172.473 323.276 170.965 323.229 169.199Z"/><path transform="scale(2 2)" d="M450.933 320.936C452.968 320.209 454.702 319.548 456.689 318.7L456.689 319.729C455.075 320.604 453.521 321.417 451.88 322.241L451.799 321.582L450.933 320.936Z"/><path transform="scale(2 2)" d="M308.968 468.554C309.571 467.356 312.109 466.229 313.337 465.55L313.337 465.55C311.715 467.106 310.771 467.903 308.968 469.246L308.968 468.554Z"/></svg>