<?xml version="1.0" encoding="utf-8" ?><svg xmlns="http://www.w3.org/2000/svg" xmlns:xlink="http://www.w3.org/1999/xlink" width="1024" height="1024" viewBox="0 0 1024 1024"><path transform="scale(2 2)" d="M224.379 95.7675C244.932 95.3086 256.595 107.464 260.235 107.425C265.516 107.369 271.453 107.349 276.762 107.347L448.108 107.328C461.482 107.306 470.856 106.587 481.399 116.477C495.579 129.779 496.07 152.874 482.435 166.682C471.656 177.597 459.139 176.016 445.285 176.007L276.375 175.994L256.9 175.994C240.976 189.24 216.263 188.812 200.29 175.994L107.869 175.994C90.7292 175.994 73.4874 175.892 56.3124 176.075C12.1216 178.171 5.56453 115.688 47.469 108.189C53.81 107.054 61.7949 107.338 68.2731 107.338L197.44 107.347C208.199 103.01 207.982 98.2653 224.379 95.7675ZM265.933 161.137C264.806 163.87 262.111 166.827 260.235 169.279L439.373 169.288C452.442 169.288 466.743 171.398 477.017 161.624C493.286 146.19 483.591 117.787 461.644 114.748C455.709 113.927 447.892 114.441 441.735 114.444L265.146 114.45C266.247 118.167 267.735 122.785 271.872 123.035L299.106 123.035L455.756 122.879C481.762 122.877 483.099 158.862 459.942 160.8C452.421 161.429 444.72 161.145 437.153 161.143L308.956 161.134C294.701 161.135 280.166 161.288 265.933 161.137ZM197.44 169.279C195.173 166.452 193.276 164.468 191.846 161.137C189.674 161.405 184.012 161.153 181.437 161.145L82.3828 161.137L65.7967 161.15C60.9219 161.158 54.8912 161.669 50.2431 160.377C36.2939 156.498 30.3676 138.995 41.0634 128.395C47.9889 121.532 57.733 123.02 66.7846 123.023L188.242 123.035C189.517 119.967 191.32 117.476 192.515 114.45L60.8255 114.45C51.0356 114.342 42.8276 114.739 35.3429 121.89C23.6132 133.098 23.9011 150.048 35.1919 161.45C44.2741 170.622 54.8559 169.295 66.6172 169.292L197.44 169.279Z"/><path fill="white" transform="scale(2 2)" d="M225.289 98.5365C247.473 96.7711 266.902 113.29 268.728 135.469C270.554 157.648 254.088 177.122 231.914 179.009C209.654 180.902 190.088 164.359 188.255 142.094C186.422 119.829 203.019 100.309 225.289 98.5365Z"/><path transform="scale(2 2)" d="M101.33 123.035L169.173 123.025C173.155 123.026 176.802 122.89 180.765 123.408C176.208 125.56 159.711 119.931 159.979 126.127C162.769 126.675 178.997 126.414 182.447 126.306C182.204 126.438 176.463 126.435 175.688 126.442L126.393 126.445C117.637 126.444 107.849 126.644 99.1846 126.358C99.0852 126.403 123.728 126.45 127.008 126.142L127.14 125.895C126.402 124.632 126.229 124.295 125.004 123.5C121.684 123.711 103.818 123.645 101.33 123.035Z"/><path transform="scale(2 2)" d="M271.872 123.035L299.106 123.035C305.113 124.621 323.912 121.384 330.306 123.384C326.252 124.295 306.953 123.513 302.028 123.504C296.038 123.493 299.1 124.706 296.656 126.147C298.537 126.516 303.351 126.443 305.448 126.448L323.075 126.445C325.068 126.439 328.911 126.214 330.622 126.348C312.386 126.878 293.854 126.175 275.589 126.448C271.187 126.513 267.635 123.993 271.872 123.035Z"/><path transform="scale(2 2)" d="M290.395 214.264C305.376 213.984 316.562 221.969 318.707 221.979L446.484 221.983C460.292 221.984 471.486 220.906 482.296 231.374C501.411 249.885 492.274 283.286 466.593 289.389C462.276 290.415 455.983 290.077 451.435 290.074L334.413 290.056C320.849 290.011 326.267 288.62 314.857 294.772C300.418 302.557 284.417 302.248 270.325 293.863C261.643 288.698 263.708 290.031 253.025 290.045L232.375 290.063L66.3184 290.067C53.195 290.072 43.3749 291.789 32.2903 282.931C9.38045 264.623 18.749 227.206 47.6096 222.134C53.3685 221.121 61.2599 221.615 67.2237 221.617L245.315 221.631C251.86 221.63 258.498 221.681 265.045 221.5C269.324 221.382 280.492 215.231 290.395 214.264ZM333.679 275.116C332.704 277.45 330.18 281.088 328.788 283.466L337.943 283.466L447.019 283.479C452.383 283.48 458.073 283.721 463.346 282.911C492.125 278.494 492.384 234.234 463.094 229.412C457.521 228.495 450.927 228.656 445.272 228.658L358.21 228.673C347.985 228.674 335.6 229.005 325.537 228.668C327.801 231.503 329.589 233.606 330.911 237.044L331.276 237.076C334.259 237.321 338.567 237.068 341.727 237.052L447.669 237.032C456.775 237.031 465.332 236.097 471.816 243.842C478.568 251.907 477.927 263.823 469.75 270.735C462.938 276.493 454.41 275.139 445.888 275.134L333.679 275.116ZM35.7951 258.459C34.9192 235.984 52.047 237.027 68.6096 237.043L237.416 237.051C241.327 237.054 251.15 237.349 254.546 237.044C255.449 234.906 258.575 230.459 260.235 228.668L72.1972 228.663C65.5138 228.662 55.8942 228.081 49.6817 229.109C18.0283 234.348 22.3304 277.52 48.0369 283.466L48.5306 283.141C47.5601 282.618 47.4568 281.456 46.121 281.357C38.2476 280.772 24.9948 261.345 29.9852 254.888C33.1375 254.299 33.8933 257.818 35.7951 258.459Z"/><path fill="white" transform="scale(2 2)" d="M290.015 216.836C312.409 215.126 331.946 231.903 333.641 254.299C335.335 276.694 318.546 296.22 296.149 297.9C273.773 299.578 254.27 282.808 252.577 260.433C250.884 238.058 267.641 218.544 290.015 216.836Z"/><path fill="white" transform="scale(2 2)" d="M48.0369 283.466L48.5306 283.141C47.5601 282.618 47.4568 281.456 46.121 281.357C38.2476 280.772 24.9948 261.345 29.9852 254.888C33.1375 254.299 33.8933 257.818 35.7951 258.459C40.2354 278.951 58.5307 275.623 74.6317 275.619L238.605 275.602C243.652 275.602 249.574 275.45 254.546 275.607L255.385 278.578C256.57 280.341 257.654 282.16 258.757 283.975C256.554 283.916 254.32 284.031 252.257 283.975C239.627 284.331 225.214 283.97 212.406 283.97L80.7719 283.977C70.3442 283.978 58.3008 284.325 48.0369 283.466Z"/><path fill="white" transform="scale(2 2)" d="M252.257 283.975C254.725 282.879 254.735 283.322 251.453 282.927L251.279 282.523C251.309 282.011 252.793 277.198 253.324 276.827C254.291 277.32 254.216 277.946 255.385 278.578C256.57 280.341 257.654 282.16 258.757 283.975C256.554 283.916 254.32 284.031 252.257 283.975Z"/><path transform="scale(2 2)" d="M224.379 327.843C241.266 326.881 248.408 335.547 255.483 335.628C261.249 335.695 267.034 335.648 272.8 335.648L445 335.639C454.296 335.625 465.859 334.478 474.185 338.931C502.731 354.218 497.737 397.335 464.634 402.679C457.883 403.769 450.063 403.247 443.146 403.244L274.875 403.234L258.757 403.234C256.162 404.478 253.511 407.249 251.099 408.948C234.693 420.504 209.682 418.091 196.132 403.234C192.907 403.395 188.517 403.256 185.228 403.247L66.9102 403.237C61.045 403.245 52.9254 403.727 47.3644 403.01C23.0681 399.654 10.2656 369.292 25.5489 349.741C37.3033 334.705 47.2756 335.599 64.5152 335.63L186.658 335.65C190.732 335.657 195.406 335.723 199.425 335.667C202.571 335.623 207.939 331.265 211.746 330.084C216.59 328.581 219.414 328.322 224.379 327.843ZM265.146 350.472L274.073 350.472L273.935 349.894C275.028 349.13 282.476 344.011 279.69 343.448L280.02 342.995L279.765 342.384L266.889 342.411C265.135 342.415 261.864 342.524 260.235 342.384C261.619 344.694 264.09 348.249 265.146 350.472Z"/><path fill="white" transform="scale(2 2)" d="M223.715 330.17C245.679 328.271 265.011 344.566 266.858 366.534C268.705 388.502 252.364 407.795 230.392 409.59C208.493 411.379 189.279 395.105 187.438 373.211C185.597 351.317 201.825 332.063 223.715 330.17Z"/><path fill="white" transform="scale(2 2)" d="M279.765 342.384L438.504 342.379C444.114 342.377 462.679 341.651 466.82 343.92C492.73 352.036 491.183 392.649 461.366 396.703C459.67 396.843 456.248 396.736 454.43 396.73L262.015 396.703C265.027 392.717 265.741 388.713 271.287 388.621C279.81 388.48 288.413 388.561 296.94 388.566L418.002 388.568C429.868 388.567 442.334 388.346 454.146 388.562C460.498 388.463 464.768 388.644 470.007 384.236C484.104 372.526 475.753 351.51 454.146 350.472L274.073 350.472L273.935 349.894C275.028 349.13 282.476 344.011 279.69 343.448L280.02 342.995L279.765 342.384Z"/><path fill="white" transform="scale(2 2)" d="M454.146 350.472C453.613 350.33 453.156 350.208 452.625 350.041C454.184 349.975 455.545 349.975 457.104 349.995L457.139 349.761C456.047 349.453 444.813 349.46 442.776 349.405L442.71 349.274C447.615 348.6 452.741 348.985 458.523 348.135C458.17 349.616 460.047 348.308 461.197 348.902L461.413 349.426C467.426 349.425 477.055 354.738 475.34 361.818C480.247 377.363 469.366 392.413 454.146 388.562C460.498 388.463 464.768 388.644 470.007 384.236C484.104 372.526 475.753 351.51 454.146 350.472Z"/><path fill="white" transform="scale(2 2)" d="M466.82 343.92C492.73 352.036 491.183 392.649 461.366 396.703C455.523 395.949 463.132 395.865 464.952 395.423C487.946 389.834 487.67 358.329 480.577 355.643L479.831 356.355C477.329 356.11 480.415 350.547 474.348 350.881C473.301 351.862 472.967 351.887 471.76 351.174L471.682 350.749C472.302 350.272 472.403 350.278 473.11 349.954C470.605 347.782 466.486 346.248 464.105 344.805C465.981 344.523 469.004 346.077 470.573 347.16C472.411 346.166 467.553 344.559 466.852 344.257L466.82 343.92Z"/><path fill="white" transform="scale(2 2)" d="M178.681 342.384C183.953 342.244 189.458 342.394 194.753 342.384C192.287 344.562 190.465 347.808 188.242 350.472C185.653 350.841 180.52 350.499 177.739 350.478L62.8727 350.46C52.9497 350.46 46.0634 349.273 39.2395 357.721C32.179 366.462 33.783 377.588 42.4582 384.515C49.3769 389.899 58.6613 388.586 67.0239 388.576L187.246 388.562C188.711 391.439 190.193 393.926 191.846 396.703L66.214 396.71C48.9341 396.71 33.3975 396.86 27.2752 375.929C25.5169 369.978 26.4802 364.408 28.7593 358.805C37.4089 341.449 50.6251 342.386 67.2426 342.381L152.52 342.384C160.307 342.382 171.137 342.029 178.681 342.384Z"/><path fill="white" transform="scale(2 2)" d="M28.7593 358.805C30.3387 361.357 27.8121 368.204 27.966 371.731L27.8172 371.887L27.291 368.97C26.5009 370.787 28.0533 374.654 27.2752 375.929C25.5169 369.978 26.4802 364.408 28.7593 358.805Z"/><path fill="white" transform="scale(2 2)" d="M178.681 342.384C183.953 342.244 189.458 342.394 194.753 342.384C192.287 344.562 190.465 347.808 188.242 350.472C187.675 350.286 187.862 350.371 187.378 350.018C196.364 339.183 185.624 343.462 178.887 342.418L178.681 342.384Z"/></svg>