<?xml version="1.0" encoding="utf-8" ?><svg xmlns="http://www.w3.org/2000/svg" xmlns:xlink="http://www.w3.org/1999/xlink" width="1024" height="1024" viewBox="0 0 1024 1024"><path fill="#090909" transform="scale(2 2)" d="M290.441 372.8L348.27 372.8C351.705 381.236 348.819 381.741 357.692 386.978C358.585 388.885 359.721 392.484 360.437 394.558L365.628 409.694C372.444 429.286 379.422 449.566 384.811 469.623C381.386 469.924 360.511 478.483 356.948 479.987C342.876 484.577 323.234 496.454 309.44 489.582C299.258 484.511 297.654 472.83 295.143 462.858L283.305 417.476C280.23 405.661 277.428 394.093 273.738 382.45C281.289 382.166 284.593 380.336 286.5 372.8C287.793 372.778 289.143 372.798 290.441 372.8Z"/><path fill="#090909" transform="scale(2 2)" d="M192.422 372.8L224.597 372.8C224.698 374.007 224.719 374.952 225.069 376.117C226.116 377.8 228.585 379.977 230.309 380.924C232.226 382.312 235.695 382.32 238.011 382.45C236.606 386.912 235.746 390.877 234.586 395.356L214.955 469.825C211.712 482.468 206.034 494.673 189.671 491.897C182.253 490.502 174.882 486.508 167.699 484.149C154.784 479.266 141.496 474.788 128.701 469.623C128.769 464.505 131.82 456.637 133.47 451.488L149.501 401.413C150.794 397.414 152.715 390.68 154.304 386.978C160.452 383.885 161.294 378.665 163.453 372.8C164.612 373.096 170.427 372.833 172.173 372.822L192.422 372.8Z"/><path fill="#090909" transform="scale(2 2)" d="M212.328 100.352C214.965 100.616 217.605 100.986 220.233 101.332L220.218 128.42C220.218 141.531 219.203 149.313 227.794 160.41C228.63 161.489 235.136 167.205 234.679 168.155C220.387 197.839 206.051 225.32 194.128 256.525C186.07 277.618 179.611 299.98 171.119 320.894C168.427 320.157 166.097 319.411 163.453 318.533C156.893 316.952 145.285 313.189 138.72 311.034C139.165 308.691 140.945 304.168 141.777 301.623C157.606 253.509 177.582 206.47 199.907 161.041C206.277 148.079 212.358 142.207 212.352 127.884L212.309 110.118C212.289 107.287 212.012 103.052 212.328 100.352Z"/><path fill="#090909" transform="scale(2 2)" d="M298.059 100.352L300.508 100.352L300.529 126.664C300.517 130.199 300.662 133.811 300.508 137.33C302.381 140.371 304.141 144.272 305.759 147.552C329.224 195.124 350.219 244.469 366.626 294.937C368.346 300.229 370.382 305.69 371.721 311.034C365.965 312.525 354.526 315.684 349.034 317.922C346.494 318.307 343.607 319.131 341.088 319.78C339.911 317.079 339.029 313.938 338.054 311.124L331.766 293.23C319.388 258.404 305.373 224.392 289.315 191.09C285.614 183.413 280.999 175.583 277.708 167.795C292.942 150.397 292.385 151.935 292.335 127.822L292.319 101.332L298.059 100.352Z"/><path fill="#090909" transform="scale(2 2)" d="M370.753 44.6841L371.037 44.8799C370.503 52.6922 370.751 62.5149 370.753 70.4971C356.665 88.6955 298.736 98.2773 277.708 99.536C277.765 101.962 278.61 106.466 276.494 108.135C275.233 107.09 276.119 74.9999 276.115 70.4971C296.607 69.1628 352.889 57.5793 370.753 44.6841Z"/><path fill="#090909" transform="scale(2 2)" d="M119.502 377.337C126.105 380.198 143.406 385.494 150.473 386.978C149.298 391.697 146.433 399.762 144.868 404.714L133.873 439.306C131.088 447.83 127.96 456.674 125.644 465.325L124.648 468.551C104.552 460.871 91.855 459.651 99.9819 434.975L111.456 400.567C113.929 393.061 116.607 384.65 119.502 377.337Z"/><path fill="#090909" transform="scale(2 2)" d="M392.12 377.337C392.233 377.286 392.696 377.212 392.839 377.186C393.893 378.527 406.408 419.983 407.733 424.255L411.724 437.204C418.653 459.829 408.666 461.808 388.033 468.551C387.644 467.488 387.284 466.398 386.917 465.325C382.892 448.228 376.223 429.168 370.317 412.712C368.081 406.481 362.583 392.214 361.513 386.25C371.483 383.868 382.622 379.366 392.12 377.337Z"/><path fill="#090909" transform="scale(2 2)" d="M140.494 43.872C140.546 43.9003 140.598 43.9285 140.65 43.9568C158.309 58.2559 209.431 67.4964 231.276 70.4971L231.276 98.8516L230.848 98.8599C209.26 99.0803 160.426 87.3146 143.055 72.2622C138.691 68.4802 140.48 50.084 140.494 43.872Z"/><path fill="#090909" transform="scale(2 2)" d="M286.5 333.446L336.061 333.446L343.301 355.796C344.788 360.339 346.193 365.395 348.27 369.623L341.088 369.623C337.085 370.659 327.679 369.179 321.747 370.225C318.489 373.434 311.106 370.933 306.836 371.008C303.103 371.073 289.125 373.302 287.915 369.623C285.044 369.338 286.483 358.992 286.492 355.815L286.5 333.446Z"/><path fill="#090909" transform="scale(2 2)" d="M287.915 369.623L341.088 369.623C337.085 370.659 327.679 369.179 321.747 370.225C318.489 373.434 311.106 370.933 306.836 371.008C303.103 371.073 289.125 373.302 287.915 369.623Z"/><path fill="#090909" transform="scale(2 2)" d="M225.069 333.446L225.302 333.429L225.537 333.778C224.882 337.496 225.068 343.92 225.066 347.862L225.069 369.623L165.187 369.623C163.473 369.174 169.153 353.604 169.964 351.455C170.233 350.74 172.022 348.834 172.377 347.728C173.871 343.07 175.209 338.138 176.542 333.446L225.069 333.446Z"/><path fill="#090909" transform="scale(2 2)" d="M248.564 332.836L264.087 332.817C267.418 332.786 272.654 332.233 275.652 333.464C277.322 336.392 276.98 368.934 275.317 371.18C272.326 372.831 260.396 372.213 256.375 372.199L241.857 372.217C238.03 372.218 228.297 373.555 228.725 367.354C229.161 361.024 227.711 338.506 229.748 333.933C230.437 332.385 245.328 332.827 248.564 332.836Z"/><path fill="#090909" transform="scale(2 2)" d="M238.011 67.5445C242.796 67.4282 269.647 66.94 272.311 68.4332C273.398 71.8575 272.773 102.395 272.766 108.135C271.569 108.181 270.252 108.143 269.045 108.135C257.677 108.32 245.874 108.148 234.469 108.135C233.448 97.7393 234.373 81.5635 234.513 70.881C234.554 67.7024 235.23 67.8402 238.011 67.5445Z"/><path fill="#090909" transform="scale(2 2)" d="M236.243 68.9951C239.67 68.8377 244.221 68.9781 247.738 68.9804L270.506 68.9951C271.877 77.3737 270.264 96.8076 270.506 106.322L236.243 106.322L235.849 69.3123L236.243 68.9951Z"/><path fill="#090909" transform="scale(2 2)" d="M239.721 72.7265L267.059 72.7265L267.071 92.2516C267.085 95.7038 267.264 99.7685 267.059 103.127L239.721 103.127C239.736 93.0191 239.614 82.823 239.721 72.7265Z"/><path fill="#090909" transform="scale(2 2)" d="M128.701 338.763C135.817 339.62 159.358 347.282 166.554 350.179C164.217 356.966 158.661 378.154 155.42 382.45C150.895 386.066 131.396 377.949 125.596 376.161C119.079 374.151 117.997 370.134 120.425 363.662C123.464 355.56 125.592 346.775 128.701 338.763Z"/><path fill="#090909" transform="scale(2 2)" d="M382.865 338.763L383.497 338.685L383.979 339.108C385.489 343.212 386.739 348.112 388.219 352.386C390.592 360.288 397.89 371.743 386.885 375.073C381.215 376.788 361.175 384.365 356.948 382.45C353.058 380.218 347.91 356.384 345.542 350.179C349.338 348.844 354.087 347.54 357.988 346.336L382.865 338.763Z"/><path fill="#090909" transform="scale(2 2)" d="M286.5 102.121C289.75 101.731 289.151 103.141 289.181 106.064L289.216 126.136C289.233 139.601 290.365 150.404 279.938 160.904C266.707 174.228 246.019 174.618 232.693 161.128C222.994 151.31 223.254 142.462 223.278 129.631L223.292 112.187C223.272 108.825 223.25 105.483 223.292 102.121C225.859 102.237 228.687 102.149 231.276 102.121L231.264 123.793C231.262 135.783 229.41 146.335 238.398 155.608C251.562 169.188 275.33 163.196 280.321 145.058C281.711 140.005 281.228 131.461 281.223 126.111L281.207 102.121L286.5 102.121Z"/><path fill="#090909" transform="scale(2 2)" d="M178.199 18.5956C180.311 18.3985 182.047 18.0403 183.039 20.3558C188.519 33.1405 195.396 48.7291 199.575 61.9621C192.156 59.8729 185.666 58.7371 178.199 56.2372C172.69 54.7274 162.113 51.6553 157.354 49.2774C156.212 45.8761 150.617 24.1606 151.45 22.5957C154.242 20.4812 173.631 19.0217 178.199 18.5956Z"/><path fill="#090909" transform="scale(2 2)" d="M330.165 18.5956C336.986 18.2158 349.114 20.285 356.671 20.7675C358.901 20.9099 360.631 21.8883 360.028 24.3039C357.957 32.6038 356.383 40.8682 354.829 49.2774C348.945 51.3936 342.114 53.8706 336.061 55.2529C329.214 57.9975 319.322 59.6619 312.086 61.9621C313.427 57.5389 327.168 21.9975 330.165 18.5956Z"/><path fill="#090909" transform="scale(2 2)" d="M200.798 55.2529L298.335 55.2472C302.477 55.2414 307.059 55.0846 311.145 55.2529C310.516 57.6027 309.418 60.3329 308.457 62.5658C307.421 62.832 306.023 63.0526 304.945 63.2564C294.798 65.4726 286.438 66.5868 276.115 67.5445C273.222 64.0584 270.265 64.4609 266.087 64.5062C257.697 64.5973 237.688 62.829 231.276 66.6869C224.362 66.7936 209.606 64.5891 202.845 62.5658C202.2 60.01 201.561 57.769 200.798 55.2529Z"/><path fill="#090909" transform="scale(2 2)" d="M377.003 319.78L377.338 319.8C378.362 320.687 382.166 332.847 382.865 334.997C372.008 338.519 355.457 342.295 345.542 346.731C343.929 345.326 340.042 333.313 339.275 330.652C350.117 328.569 365.831 323 377.003 319.78Z"/><path fill="#090909" transform="scale(2 2)" d="M134.407 319.78L173.029 331.707C172.262 336.818 170.29 341.935 168.358 346.731C162.846 344.971 132.02 336.388 129.807 334.427C129.649 332.571 133.543 322.017 134.407 319.78Z"/><path fill="#090909" transform="scale(2 2)" d="M329.204 298.15C330.563 299.232 336.838 317.967 337.741 320.894C334.642 324.093 334.551 325.613 334.374 329.975L305.875 329.975C302.737 329.907 299.789 329.814 296.653 329.975C309.264 320.803 319.31 310.084 329.204 298.15Z"/><path fill="#090909" transform="scale(2 2)" d="M182.628 298.15C183.043 298.318 188.316 304.639 189.077 305.508C197.01 314.567 205.924 322.775 215.589 329.975L207.125 329.975L178.199 329.975C178.207 325.834 177.187 324.96 174.385 322.013L182.628 298.15Z"/><path fill="#090909" transform="scale(2 2)" d="M125.644 311.034C127.844 312.306 132.387 313.258 134.991 313.973L146.757 317.317C153.573 319.254 172.099 323.224 175.264 328.895C170.174 326.578 135.028 313.907 131.887 316.775C130.362 319.734 127.578 327.848 126.923 331.102C124.854 341.377 121.288 350.904 117.912 360.84C115.491 358.944 113.612 356.659 113.229 353.512C112.469 347.278 121.915 315.861 125.644 311.034Z"/><path fill="#090909" transform="scale(2 2)" d="M386.917 313.779C389.17 313.359 394.603 332.94 395.204 335.667C397.565 346.384 403.624 351.349 395.141 360.84C390.89 346.419 385.39 332.323 381.068 317.922C378.85 312.904 372.174 317.147 367.873 318.503C365.303 319.313 339.611 327.59 338.41 327.255C336.511 326.727 341.123 324.153 341.673 323.98C351.592 320.86 364.224 316.398 374.293 314.283C378.065 313.49 380.762 315.275 386.917 313.779Z"/><path fill="#090909" transform="scale(2 2)" d="M228.741 374.646C235.163 377.285 272.414 376.845 276.208 375.302C284.767 371.823 276.994 345.951 280.592 340.623C284.629 339.848 282.731 350.334 282.742 354.211L282.756 366.13C282.74 379.183 281.339 378.567 267.776 378.391L242.395 378.371C239.417 378.395 235.962 378.554 233.042 378.356C231.536 377.816 229.027 376.356 228.741 374.646Z"/><path fill="#090909" transform="scale(2 2)" d="M231.276 326.262C238.141 325.929 278.627 325.439 280.585 327.731C281.96 329.342 284.598 338.483 280.436 336.525C280.091 335.352 280.224 333.305 279.976 331.707C276.596 328.157 273.058 328.817 268.696 328.866L242.853 328.883C235.378 328.847 231.323 327.124 226.18 332.836C227.187 329.346 227.654 327.642 231.276 326.262Z"/><path fill="#090909" transform="scale(2 2)" d="M149.331 31.4755L149.598 31.4939C150.444 32.5217 153.593 45.5555 154.304 48.0939C152.215 47.314 151.292 46.9394 149.331 45.875C139.397 40.3947 139.328 36.8532 149.331 31.4755Z"/><path fill="#090909" transform="scale(2 2)" d="M361.513 30.587C365.668 32.6181 369.933 35.4281 369.187 40.4416C367.7 42.1115 366.122 43.321 364.363 44.6841C362.293 45.7797 360.615 46.8457 358.646 48.0939C358.858 44.0868 360.429 34.6078 361.513 30.587Z"/><path fill="#090909" transform="scale(2 2)" d="M163.453 372.8C165.924 371.322 186.134 373.123 190.066 372.388C182.475 371.02 172.561 373.137 164.515 372.211L164.252 371.846L164.433 371.451C166.576 370.559 187.699 371.008 192.095 370.824L192.183 370.82L191.985 371.328L190.599 371.806C191.783 373.262 190.737 370.896 192.422 372.8L172.173 372.822C170.427 372.833 164.612 373.096 163.453 372.8Z"/><path fill="#090909" transform="scale(2 2)" d="M373.615 305.083C376.318 305.23 384.682 306.212 385.294 309.922L384.811 310.035C381.327 309.872 380.247 309.895 377.003 311.034C376.185 309.769 373.912 306.416 373.615 305.083Z"/><path fill="#090909" transform="scale(2 2)" d="M133.419 305.083C137.491 305.307 136.889 306.855 135.407 310.035C134.209 309.749 133.07 309.415 131.887 309.075C125.01 307.484 129.194 305.805 133.419 305.083Z"/><path fill="#090909" transform="scale(2 2)" d="M225.069 376.117C227.258 377.411 227.721 376.079 228.515 374.243L228.741 374.646C229.027 376.356 231.536 377.816 233.042 378.356C227.081 381.8 227.838 372.609 230.309 380.924C228.585 379.977 226.116 377.8 225.069 376.117Z"/></svg>