<?xml version="1.0" encoding="utf-8" ?><svg xmlns="http://www.w3.org/2000/svg" xmlns:xlink="http://www.w3.org/1999/xlink" width="1024" height="1024" viewBox="0 0 1024 1024"><path fill="#090909" transform="scale(2 2)" d="M332.26 207.595C343.05 207.124 357.239 209.752 367.666 211.949C408.485 220.55 451.367 243.72 474.796 279.4C554.701 407.312 365.177 538.318 249.051 426.317C226.481 404.549 213.649 373.618 206.125 343.709C204.694 338.021 202.503 330.212 202.495 324.487C201.807 322.449 196.85 300.283 200.62 300.933C204.839 301.661 208.49 302.18 213.4 301.725C212.329 329.573 232.093 383.377 248.365 404.101C348.4 528.153 548.659 396.268 456.56 279.349C425.759 240.247 377.507 225.315 329.866 219.919C330.348 216.567 331.457 210.888 332.26 207.595Z"/><path fill="#090909" transform="scale(2 2)" d="M328.523 223.669C335.392 223.755 341.978 225.237 348.727 226.266C402.806 234.217 464.316 267.854 474.21 326.308C489.863 418.779 368.982 478.287 294.418 437.401C247.079 411.443 228.362 373.116 219.22 320.694C218.416 316.761 215.525 301.388 217.367 298.283C218.311 297.771 228.451 300.055 230.513 300.211C234.117 332.907 242.14 365.44 262.468 392.401C301.879 444.675 373.345 448.055 424.287 410.833C463.008 382.54 474.001 331.839 444.154 292.896C415.378 254.388 369.185 242.709 324.242 236.599C325.161 233.024 327.3 227.501 328.523 223.669Z"/><path fill="#090909" transform="scale(2 2)" d="M119.541 42.7492C152.513 40.7144 187.121 54.307 210.062 78.0623C241.01 110.11 250.354 155.087 249.48 198.336C243.156 199.829 240.775 202.635 235.204 205.304C234.946 199.697 235.346 193.184 235.165 187.433C234.136 154.734 226.61 123.12 206.365 96.6712C145.518 17.1786 16.5705 67.0842 34.0284 161.198C46.3113 221.742 120.355 256.91 176.547 267.119C175.898 272.129 175.073 277.598 175.574 282.59C112.673 268.877 27.5112 230.187 19.0923 157.261C12.9378 103.949 50.1881 56.6171 101.825 45.5962C108.063 44.2648 113.209 43.5295 119.541 42.7492Z"/><path fill="#090909" transform="scale(2 2)" d="M122.295 61.0123C148.742 59.0448 174.248 69.7779 193.299 87.7267C219.241 112.166 229.569 148.582 231.245 183.228C231.649 191.687 231.108 200.535 231.348 209.129C225.309 211.005 222.867 210.376 216.434 213.814C222.334 170.014 209.419 114.995 171.891 88.2503C119.309 50.7769 39.0824 92.8151 51.815 158.563C65.1707 212.881 131.716 239.089 181.688 249.394C180.409 253.524 178.924 259.573 177.364 263.428C171.722 263.029 162.122 260.396 156.549 258.83C105.331 244.564 38.216 208.096 36.3094 147.396C34.822 100.045 76.3862 62.3646 122.295 61.0123Z"/><path fill="#090909" transform="scale(2 2)" d="M322.574 240.324C374.674 242.542 444.098 271.827 455.935 327.346C466.972 379.116 420.212 420.019 373.653 429.407C307.05 443.723 254.71 399.169 240.251 335.979C238.566 328.653 237.309 321.237 235.806 313.831C234.903 308.468 234.075 304.808 234.431 299.308C237.04 297.395 239.579 295.431 242.141 293.458C244.281 294.07 246.466 294.482 248.647 294.929C248.014 319.466 259.88 358.405 274.542 378.505C290.139 399.887 309.006 412.516 335.399 416.597C376.694 422.981 435.48 397.358 442.584 351.875C450.227 302.944 401.301 272.089 360.513 261.089C345.807 257.123 331.24 255.234 316.249 253.03C317.217 249.66 320.63 243.387 322.574 240.324Z"/><path fill="#090909" transform="scale(2 2)" d="M122.295 78.2509C185.513 74.3166 215.341 140.21 213.408 195.468C213.195 201.577 213.822 209.15 212.351 215.088C207.441 219.77 201.313 222.728 196.751 228.04C197.651 218.622 198.795 209.839 199.16 200.267C202.068 158.634 184.18 100.3 137.255 93.2473C105.43 88.4645 72.2875 108.145 68.5562 141.504C68.0874 145.705 69.1241 149.993 68.5091 154.054C71.6098 160.653 73.18 167.59 77.6364 173.641C105.145 210.995 149.192 224.179 192.345 232.719C188.848 237.266 186.508 241.208 183.529 246.066C137.318 237.456 62.6378 207.435 54.71 153.68C49.6475 119.354 74.5804 89.1212 106.922 80.7969C112.133 79.4531 117.016 79.0325 122.295 78.2509Z"/><path fill="#090909" transform="scale(2 2)" d="M385.166 148.85C406.526 147.686 410.05 171.082 395.242 177.457C391.536 179.052 387.811 178.718 383.876 179.101C364.799 180.593 348.109 187.182 331.22 195.615C325.775 189.84 316.007 187.897 310.899 195.317C308.197 199.241 306.415 207.737 304.795 212.611C297.247 235.32 285.164 271.562 264.89 286.421C261.483 288.606 248.748 294.494 245.39 290.503C246.367 288.632 249.49 285.156 250.909 282.981C258.691 271.055 264.534 257.918 269.943 244.781C276.253 229.455 284.816 201.438 295.11 189.631C313.72 168.287 356.067 151.406 385.166 148.85ZM391.197 171.621C392.961 171.049 393.853 170.708 395.311 169.45C400.443 163.381 397.02 157.77 390.263 155.494C390.239 160.748 390.02 166.53 391.197 171.621Z"/><path fill="#090909" transform="scale(2 2)" d="M284.957 186.767C287.362 186.633 289.717 186.715 292.122 186.767C281.751 201.754 278.154 213.573 271.638 230.362C264.815 247.938 249.363 292.671 227.95 296.828C225.879 296.596 222.431 295.519 220.317 294.929C221.582 292.028 223.331 289.188 224.669 286.303C233.896 266.411 239.629 245.156 249.208 225.361C256.501 209.076 265.398 189.931 284.957 186.767Z"/><path fill="#090909" transform="scale(2 2)" d="M259.345 198.336C259.478 198.397 259.383 198.333 259.654 198.67C248.629 215.288 240.939 233.6 234.089 252.287C230.071 263.168 219.341 306.527 202.495 296.828C193.803 289.239 209.409 250.728 213.129 242.531C223.098 220.569 234.71 204.613 259.345 198.336Z"/><path fill="#090909" transform="scale(2 2)" d="M225.643 213.814C225.658 214.52 223.962 216.498 223.433 217.204C210.034 235.104 191.616 276.874 198.184 299.308C193.613 303.225 188.136 303.258 183.529 299.308C178.97 295.452 177.973 291.305 177.976 285.506C177.988 254.093 194.775 223.93 225.643 213.814Z"/><path fill="#090909" transform="scale(2 2)" d="M319.217 194.035C323.534 193.771 327.353 196.568 329.866 199.809C328.814 203.996 328.538 208.348 327.685 212.531C322.965 235.667 306.638 269.762 283.945 279.752C280.065 281.416 278.455 281.739 274.381 282.59C290.47 266.753 300.856 235.258 307.991 214.567C310.42 207.523 310.691 196.141 319.217 194.035Z"/></svg>