<?xml version="1.0" encoding="utf-8" ?><svg xmlns="http://www.w3.org/2000/svg" xmlns:xlink="http://www.w3.org/1999/xlink" width="1940" height="1940" viewBox="0 0 1940 1940"><path transform="matrix(3.78906 0 0 3.78906 0.00195312 0)" d="M150.557 187.765C165.71 186.209 170.963 193.83 180.998 197.836C193.616 212.404 196.784 211.37 212.015 220.71C215.809 222.797 237.491 197.175 240.604 193.05L240.604 193.05C242.683 194.456 247.073 197.875 249.216 199.542C248.549 200.046 248.789 199.738 248.456 200.494L254.542 205.102C248.949 215.89 235.571 235.061 227.132 243.12C223.514 246.556 218.073 247.715 213.261 245.988C199.817 241.162 155.804 224.489 152.306 208.622C151.048 202.916 154.016 194.088 160.38 193.05L160.38 192.409C157.625 192.882 154.84 194.759 153.413 197.161C139.524 220.529 184.859 235.036 201.465 243.192C195.108 259.995 180.84 281.867 162.249 285.956C161.175 282.242 161.005 280.684 156.769 281.292C147.532 287.808 159.398 306.012 174.373 305.514C173.743 303.908 173.133 302.325 172.432 300.748C185.903 296.952 198.79 289.239 209.076 279.777C222.577 289.953 239.11 286.814 249.216 306.639C247.546 310.327 247.573 313.693 247.889 317.69C233.327 337.531 222.851 338.117 201.011 330.017C191.091 326.337 179.4 316.857 175.691 306.639C153.446 309.803 144.903 278.236 159.518 279.777L159.355 279.406C157.018 274.136 153.286 269.183 150.93 263.749C142.836 245.088 127.563 202.481 150.557 187.765Z"/><path transform="matrix(3.78906 0 0 3.78906 0.00195312 0)" d="M240.604 193.05L240.604 193.05C242.683 194.456 247.073 197.875 249.216 199.542C248.549 200.046 248.789 199.738 248.456 200.494C245.164 197.945 242.86 196.498 240.604 193.05Z"/><path transform="matrix(3.78906 0 0 3.78906 0.00195312 0)" d="M160.38 192.409C162.748 191.753 163.625 191.922 165.992 192.409C164.211 192.557 162.097 192.673 160.38 193.05L160.38 192.409Z"/><path transform="matrix(3.78906 0 0 3.78906 0.00195312 0)" d="M264.984 270.703C266.509 269.3 291.49 264.333 295.645 263.315C316.701 258.136 318.173 270.87 326.055 285.607C331.433 296.49 350.639 340.014 358.211 347.625C353.331 351.184 344.649 355.435 340.643 359.04C335.578 352.309 292.992 300.8 302.361 294.804C301.95 294.332 302.003 294.312 301.888 293.681L302.361 292.27L301.888 291.155C301.141 292.773 300.678 293.893 300.08 295.57C292.65 298.075 277.094 304.958 270.502 305.514C268.987 304.006 265.288 301.819 264.984 300.748C264.636 299.32 264.552 282.413 264.485 292.101L264.284 291.955L263.889 289.014C263.851 290.041 264.026 293.012 263.555 293.681L263.555 270.703L264.984 270.703Z"/><path transform="matrix(3.78906 0 0 3.78906 0.00195312 0)" d="M264.984 270.703C265.094 271.665 264.963 279.904 264.971 281.465L265.011 294.535C265.015 296.066 265.144 299.414 264.984 300.748C264.636 299.32 264.552 282.413 264.485 292.101L264.284 291.955L263.889 289.014C263.851 290.041 264.026 293.012 263.555 293.681L263.555 270.703L264.984 270.703Z"/><path transform="matrix(3.78906 0 0 3.78906 0.00195312 0)" d="M301.888 293.681C306.586 289.75 307.569 288.113 313.468 284.746C311.988 286.276 303.935 293.766 302.361 294.804C301.95 294.332 302.003 294.312 301.888 293.681Z"/><path transform="matrix(3.78906 0 0 3.78906 0.00195312 0)" d="M302.361 288.464C304.514 285.03 305.937 282.624 308.912 279.777C308.31 281.033 304.468 288.26 303.692 289.263C303.231 288.865 302.904 288.747 302.361 288.464Z"/><path transform="matrix(3.78906 0 0 3.78906 0.00195312 0)" d="M302.361 288.464C302.904 288.747 303.231 288.865 303.692 289.263C303.356 290.061 302.771 291.583 302.361 292.27L301.888 291.155C301.819 290.353 302.157 289.285 302.361 288.464Z"/><path transform="matrix(3.78906 0 0 3.78906 0.00195312 0)" d="M272.852 311.57C281.054 316.474 300.303 331.477 302.42 341.484C303.96 348.77 299.042 362.348 298.718 370.195C296.435 386.468 297.673 400.078 298.804 416.189C291.941 420.283 285.565 420.827 278.007 418.449C271.813 405.017 267.234 362.334 274.304 352.159L275.125 351.508C270.538 350.953 273.312 349.079 275.83 347.625L275.125 346.708C273.678 347.626 271.994 348.568 270.502 349.445C256.068 348.353 241.849 342.198 228.931 335.828C237.542 332.583 243.24 325.928 249.216 319.386C249.808 320.978 250.452 321.738 251.52 322.977C251.991 324.013 251.641 323.649 252.477 324.221C250.126 328.174 249.699 328.705 247.889 333.27L245.912 333.27C245.691 335.079 245.53 336.491 245.464 338.308C247.958 339.94 250.945 340.979 253.742 342.03C255.237 336.484 256.435 332.125 259.829 327.287C269.363 325.97 273.308 321.124 272.852 311.57Z"/><path transform="matrix(3.78906 0 0 3.78906 0.00195312 0)" d="M251.52 322.977C251.991 324.013 251.641 323.649 252.477 324.221C250.126 328.174 249.699 328.705 247.889 333.27L245.912 333.27C247.516 329.566 249.432 326.405 251.52 322.977Z"/><path transform="matrix(3.78906 0 0 3.78906 0.00195312 0)" d="M275.125 346.708C276.688 345.326 281.094 342.396 283.067 340.958C280.45 343.955 278.99 345.156 275.83 347.625L275.125 346.708Z"/><path transform="matrix(3.78906 0 0 3.78906 0.00195312 0)" d="M275.125 351.508C278.528 351.938 280.825 352.05 284.267 352.159C280.368 352.742 278.134 353.108 274.304 352.159L275.125 351.508Z"/><path transform="matrix(3.78906 0 0 3.78906 0.00195312 0)" d="M162.249 117.335C175.522 116.181 185.135 127.866 190.134 138.663C195.255 140.228 193.579 142.239 189.635 144.419C170.976 154.731 161.586 159.641 140.488 162.804C139.238 160.15 137.987 156.236 137.121 153.428C134.671 144.369 136.159 129.58 145.685 124.797C158.544 123.149 168.907 132.828 175.691 142.641C172.076 131.459 164.888 121.843 152.805 119.747C156.321 118.003 158.383 117.72 162.249 117.335Z"/><path transform="matrix(3.78906 0 0 3.78906 0.00195312 0)" d="M189.069 146.501L189.312 146.704C191.102 154.771 191.232 176.239 182.826 180.961C179.225 182.984 153.193 182.567 152.805 177.438C152.014 172.852 145.3 168.11 146.16 163.898C148.916 162.723 155.998 161.916 159.618 160.775C170.657 157.296 179.261 152.217 189.069 146.501Z"/><path transform="matrix(3.78906 0 0 3.78906 0.00195312 0)" d="M300.08 424.666C304.283 426.669 307.881 429.987 312.39 431.747C319.581 434.554 332.816 433.551 328.549 445.573C319.119 453.355 304.02 446.816 293.704 445.573C293.761 446.307 293.71 447.557 293.704 448.333C288.765 448.623 282.565 447.627 278.007 445.573C277.751 442.508 276.803 427.031 281.413 428.15L281.413 427C284.386 427.117 286.907 427.053 289.867 427C291.27 427.161 291.694 426.748 291.676 427.992L291.932 428.15C295.25 427.472 297.275 426.464 300.08 424.666Z"/><path transform="matrix(3.78906 0 0 3.78906 0.00195312 0)" d="M281.413 427C284.386 427.117 286.907 427.053 289.867 427C291.27 427.161 291.694 426.748 291.676 427.992L291.932 428.15C289.186 428.843 284.108 428.98 281.413 428.15L281.413 427Z"/><path transform="matrix(3.78906 0 0 3.78906 0.00195312 0)" d="M388.38 352.159C395.023 352.125 400.323 355.908 396.815 363.556C394.442 368.73 378.363 372.946 373.139 373.973C366.935 369.713 368.203 373.735 366.499 375.345C364.565 377.173 356.052 380.477 353.726 380.926C348.736 379.181 346.321 369.371 344.844 364.818C353.127 362.174 357.35 360.592 360.851 352.159C370.956 357.973 378.812 354.932 388.38 352.159Z"/><path transform="matrix(3.78906 0 0 3.78906 0.00195312 0)" d="M250.653 177.438L251.009 177.241C255.973 174.469 268.377 159.26 270.502 168.235C270.251 169.247 270.039 170.243 269.666 171.216C272.815 175.468 271.146 180.116 272.852 184.712C271.055 186.453 258.614 197.411 257.248 197.836C256.994 198.33 256.886 198.386 256.373 198.548C258.278 199.872 256.121 202.278 255.245 203.845C253.186 202.42 251.219 201.054 249.216 199.542C247.073 197.875 242.683 194.456 240.604 193.05C242.478 191.268 242.761 188.64 245.464 190.66L245.912 190.66C244.511 188.198 246.588 186.456 246.862 183.755C247.071 181.699 243.145 169.04 248.133 170.525C251.802 171.617 250.511 174.657 250.653 177.438Z"/><path transform="matrix(3.78906 0 0 3.78906 0.00195312 0)" d="M240.604 193.05C242.478 191.268 242.761 188.64 245.464 190.66C248.759 193.242 253.539 196.006 256.373 198.548C258.278 199.872 256.121 202.278 255.245 203.845C253.186 202.42 251.219 201.054 249.216 199.542C247.073 197.875 242.683 194.456 240.604 193.05Z"/><path transform="matrix(3.78906 0 0 3.78906 0.00195312 0)" d="M245.912 190.66C248.145 190.572 255.735 196.071 257.248 197.836C256.994 198.33 256.886 198.386 256.373 198.548C253.539 196.006 248.759 193.242 245.464 190.66L245.912 190.66Z"/><path transform="matrix(3.78906 0 0 3.78906 0.00195312 0)" d="M254.542 18.0417C255.809 17.9873 257.216 18.0304 258.495 18.0417C257.125 26.8665 258.698 38.9367 258.866 48.0384L260.77 123.929C260.917 130.099 261.922 149.735 260.816 155.164C266.928 156.251 265.532 158.175 266.376 163.854C261.544 166.178 260.253 167.133 256.761 171.216C255.107 171.783 253.755 173.205 252.477 174.385C252.374 169.949 253.091 164.895 253.208 160.214C254.862 159.496 255.497 159.288 257.248 158.843C257.718 145.429 256.709 129.206 256.4 115.596L254.522 30.518C254.455 26.256 254.131 22.3021 254.542 18.0417Z"/><path transform="matrix(3.78906 0 0 3.78906 0.00195312 0)" d="M203.156 244.05C206.265 245.075 207.546 245.584 210.383 247.221C210.434 249.828 209.636 251.237 208.541 253.513C200.367 270.518 185.608 286.372 167.147 292.27C162.762 293.376 161.358 292.974 160.38 288.464C162.831 287.465 165.243 287.126 167.591 286.263C185.468 279.691 195.539 260.104 203.156 244.05Z"/><path transform="matrix(3.78906 0 0 3.78906 0.00195312 0)" d="M211.46 250.916C211.743 251.306 211.378 261.745 211.46 263.583L209.076 263.583C204.066 268.029 203.436 274.099 208.325 278.932C199.693 286.579 179.387 299.141 167.985 299.392C165.145 298.896 164.72 297.214 164.006 294.804C184.82 289.6 204.492 271.075 211.46 250.916Z"/><path transform="matrix(3.78906 0 0 3.78906 0.00195312 0)" d="M258.909 303.03C275.599 299.174 274.283 329.168 258.495 325.026C256.646 324.365 254.993 323.789 253.208 322.977C254.055 322.004 254.785 321.334 255.159 320.119L254.987 319.832C254.019 320.025 253.266 320.798 252.477 321.441C247.061 314.055 249.355 302.538 258.909 303.03ZM267.211 317.69C267.646 315.835 268.174 313.919 266.376 312.606C266.205 314.286 265.986 315.83 266.367 317.489L266.735 317.775L267.211 317.69Z"/><path transform="matrix(3.78906 0 0 3.78906 0.00195312 0)" d="M258.909 198.548C260.083 196.98 260.734 196.413 262.385 195.372C261.709 219.981 263.738 245.653 263.555 270.703L263.555 293.681C263.509 295.991 263.552 298.427 263.555 300.748C262.992 300.614 260.5 299.64 259.829 299.392L259.836 222.45C259.825 215.245 258.484 205.568 258.909 198.548Z"/><path transform="matrix(3.78906 0 0 3.78906 0.00195312 0)" d="M225.015 275.452C238.651 277.124 249.674 290.142 257.248 300.748C255.287 301.443 254.195 301.884 252.477 303.03L250.653 305.514L250.35 304.95C245.059 295.287 233.595 287.829 223.098 284.746C225.352 281.252 225.34 279.392 225.015 275.452Z"/><path transform="matrix(3.78906 0 0 3.78906 0.00195312 0)" d="M255.245 347.625C255.975 348.009 256.718 348.282 257.483 348.588C259.55 351.874 248.453 441.832 247.889 451.254C247.118 451.315 245.842 451.624 245.385 450.759C244.847 449.74 253.883 362.794 254.349 356.317C254.55 353.517 254.427 350.318 255.245 347.625Z"/><path transform="matrix(3.78906 0 0 3.78906 0.00195312 0)" d="M258.495 271.814C259.075 272.82 257.995 294.798 258.909 299.392C255.943 296.721 252.446 291.802 249.216 288.464C245.456 284.759 241.108 281.198 237.047 277.803C241.98 276.028 253.119 273.019 258.495 271.814Z"/><path transform="matrix(3.78906 0 0 3.78906 0.00195312 0)" d="M208.325 333.27C210.656 333.522 211.504 333.424 213.882 333.27C212.735 334.785 210.276 337.805 209.753 339.463C207.702 345.969 211.773 356.461 201.465 356.82C189.915 354.013 199.129 337.718 208.325 333.27ZM201.465 352.159C206.092 352.402 205.087 344.873 205.019 341.209L204.836 340.958C202.169 343.809 199.003 348.267 201.465 352.159Z"/><path transform="matrix(3.78906 0 0 3.78906 0.00195312 0)" d="M228.931 244.05C236.126 249.796 251.653 263.987 255.625 271.814C253.652 272.059 252.565 272.219 250.653 272.709C248.276 273.03 247.52 270.521 246.032 268.629C238.95 259.625 232.169 253.939 223.098 247.221C224.989 246.06 226.962 245.071 228.931 244.05Z"/><path transform="matrix(3.78906 0 0 3.78906 0.00195312 0)" d="M211.46 265.507C219.726 265.081 229.421 281.757 220.127 283.397C212.155 280.936 199.576 272.057 211.46 265.507Z"/><path transform="matrix(3.78906 0 0 3.78906 0.00195312 0)" d="M211.46 270.703C214.804 268.832 217.456 271.227 218.501 274.427C214.916 280.865 207.902 273.963 211.46 270.703Z"/><path transform="matrix(3.78906 0 0 3.78906 0.00195312 0)" d="M211.46 270.703L212.929 270.5L212.996 270.69L212.949 270.703C209.618 274.336 215.9 277.825 216.873 274.427L218.501 274.427C214.916 280.865 207.902 273.963 211.46 270.703Z"/><path transform="matrix(3.78906 0 0 3.78906 0.00195312 0)" d="M211.46 270.703C214.804 268.832 217.456 271.227 218.501 274.427L216.873 274.427L215.635 272.607C214.733 271.293 214.489 270.98 212.949 270.703L212.996 270.69L212.929 270.5L211.46 270.703Z"/><path transform="matrix(3.78906 0 0 3.78906 0.00195312 0)" d="M150.557 180.987C158.452 180.842 169.483 184.006 180.126 184.067C180.201 185.901 181.484 195.362 180.998 196.211C172.563 189.976 163.183 186.147 152.745 185.612C149.681 185.455 149.48 183.506 150.557 180.987Z"/><path transform="matrix(3.78906 0 0 3.78906 0.00195312 0)" d="M212.949 219.893C208.034 216.752 184.515 205.008 183.32 198.548C194.742 204.439 205.848 209.933 216.873 216.667C215.589 217.765 214.313 218.899 212.949 219.893Z"/><path transform="matrix(3.78906 0 0 3.78906 0.00195312 0)" d="M278.007 420.041C285.115 421.752 292.579 422.262 298.804 417.644C299.313 419.577 299.902 421.547 300.08 423.531C296.231 425.72 294.261 426.228 289.867 427C286.907 427.053 284.386 427.117 281.413 427C278.118 426.118 278.467 422.967 278.007 420.041Z"/><path transform="matrix(3.78906 0 0 3.78906 0.00195312 0)" d="M358.211 349.445C364.131 354.18 347.79 364.796 343.767 363.295L341.424 360.113C346.95 356.877 352.631 352.818 358.211 349.445Z"/><path transform="matrix(3.78906 0 0 3.78906 0.00195312 0)" d="M252.477 324.221C252.469 324.22 257.565 326.923 258.495 327.287C255.524 331.659 253.676 335.614 253.208 340.958C250.325 339.516 248.999 339.166 245.912 338.308L247.889 333.27C249.699 328.705 250.126 328.174 252.477 324.221Z"/></svg>