<?xml version="1.0" encoding="utf-8" ?><svg xmlns="http://www.w3.org/2000/svg" xmlns:xlink="http://www.w3.org/1999/xlink" width="1024" height="1024" viewBox="0 0 1024 1024"><path d="M219.677 35.2787C248.591 33.8839 277.441 39.1149 304.024 50.5721C336.587 64.7297 361.636 88.2854 387.975 111.384L457.258 172.879L499.413 210.387C511.483 221.065 524.393 231.889 534.886 244.09C549.667 261.231 561.393 280.783 569.551 301.895C585.588 342.922 586.64 390.348 574.052 432.385C570.307 444.892 566.028 455.51 560.803 467.439C553.975 462.275 547.073 457.209 540.099 452.243C537.884 454.248 534.729 457.951 532.631 460.278C530.895 472.523 529.539 484.804 527.733 497.034C519.586 486.98 512.799 470.159 501.663 464.024C492.058 458.733 481.071 454.631 471.27 449.523L474.914 417.121L460.032 407.643C485.179 344.06 450.165 319.16 407.494 280.488L353.371 231.173L309.522 191.333C285.86 169.868 262.849 146.047 228.488 146.105C207.079 146.141 185.729 155.401 170.744 170.553C155.008 186.534 146.283 208.124 146.498 230.551C146.71 251.948 154.428 266.643 169.325 281.178C178.233 289.942 193.578 302.684 203.352 311.267C221.827 327.517 240.181 343.904 258.413 360.425C280.981 380.783 303.717 400.954 326.619 420.935C339.372 432.248 352.741 445.115 366.042 455.466C379.244 465.739 391.187 467.08 407.041 464.879C411.944 472.007 417 479.028 422.208 485.936C433.086 486.365 448.846 488.366 459.83 489.684C457.117 496.881 453.294 504.159 450.436 511.517C457.695 514.739 464.408 518.196 471.446 521.86C465.842 526.451 459.936 530.955 454.26 535.524C460.442 545.235 466.731 554.877 473.126 564.45C471.189 565.125 468.887 566.279 467.024 567.179C443.889 578.36 419.334 583.04 393.581 582.481C349.171 581.517 309.468 559.093 277.306 529.889C263.231 517.109 249.43 503.939 235.494 490.944L177.569 437.591L124.331 388.483C102.632 368.281 83.9878 351.965 67.4344 326.894C49.7292 300.552 39.3151 269.992 37.2509 238.321C34.084 186.483 51.1486 138.947 85.5399 100.206C119.694 61.3959 168.05 37.9901 219.677 35.2787ZM458.146 557.661C455.115 553.759 443.62 540.228 443.584 535.496C443.571 533.627 454.407 525.511 456.555 523.84C449.517 521.161 441.973 518.651 435.1 515.92C436.819 510.643 438.61 505.389 440.47 500.161C432.3 499.214 423.374 498.07 415.208 497.333C410.134 490.776 405.531 483.88 400.476 477.408C374.029 478.919 363.017 471.326 343.739 454.146C298.2 413.615 252.945 372.767 207.978 331.605C197.928 322.359 187.817 313.18 177.645 304.068C166.785 294.393 151.942 282.734 145.514 269.72C134.444 250.219 133.398 224.798 139.327 203.535C146.079 179.346 162.147 158.822 184.009 146.463C204.822 134.882 229.356 131.959 252.307 138.325C277.392 145.513 300.646 168.268 319.81 185.526L368.801 229.899L421.636 277.571C438.823 293.221 457.3 308.215 468.79 328.774C482.279 352.91 482.392 376.484 472.512 401.839C477.764 405.36 483.253 408.903 488.255 412.748C486.579 422.064 484.538 431.362 483.012 440.668C489.618 444.431 495.741 447.919 502.133 452.002C505.817 454.356 513.173 460.001 516.666 461.725C519.117 466.913 522.498 474.439 524.456 479.843C524.505 474.138 524.803 468.151 525.263 462.461C526.099 452.144 530.786 442.187 533.226 432.175C540.266 437.063 548.411 444.082 555.047 449.682C560.383 435.579 564.831 422.699 567.798 407.977C579.222 351.28 560.199 289.563 521.334 247.166C512.409 237.429 502.499 228.771 492.665 219.97L447.584 179.943L382.459 122.116C366.288 107.794 347.898 90.9237 330.495 78.4708C318.006 69.6294 304.431 62.4326 290.105 57.0577C271.141 49.9061 245.626 45.4891 225.348 46.2463C175.048 48.3887 130.936 67.4196 96.5943 104.726C64.125 139.999 45.6122 184.425 47.6708 232.73C49.4184 273.736 66.1939 311.03 93.4184 341.405C103.781 352.966 115.388 363.156 126.828 373.663L172.858 415.769C198.148 438.687 223.287 461.771 248.273 485.02C283.435 517.442 314.897 551.519 362.893 564.327C376.636 567.995 390.408 569.704 404.703 569.266C418.901 568.83 445.181 564.075 458.146 557.661Z"/><path d="M218.351 66.237C236.008 65.6406 249.681 66.8041 267.014 70.9944C283.819 75.0577 299.773 82.0585 314.142 91.6738C326.37 99.8461 338.658 110.951 349.76 120.635L399.634 164.646L463.342 220.991C488.449 243.251 513.932 263.804 531.604 292.814C551.54 325.744 559.736 364.455 554.856 402.64C553.525 413.645 551.334 423.03 548.711 433.762C545.693 430.472 540.427 426.06 536.943 422.571C532.451 423.946 527.979 425.389 523.53 426.897C521.573 432.534 518.104 445.655 517.194 451.338C509.594 445.665 501.713 440.38 493.58 435.502C494.894 426.885 496.789 417.573 498.365 408.927C493.3 405.025 488.627 401.885 483.311 398.324C496.656 357.846 481.683 321.146 451.627 292.555C446.381 287.565 441 282.726 435.648 277.847L399.744 245.161C374.588 222.256 349.224 199.581 323.655 177.138C313.917 168.384 304.043 159.783 294.035 151.338C288.146 146.406 281.325 140.661 274.816 136.638C253.146 123.246 227.102 120.264 202.509 126.543C175.496 133.446 152.377 150.887 138.322 174.965C123.746 199.562 120.555 228.364 127.664 255.873C135.147 283.79 152.789 297.851 173.107 316.085L221.392 359.02L304.394 433.226L328.535 454.787C353.833 477.475 362.101 485.801 397.136 488.08C400.758 493.766 405.3 501.231 409.387 506.388C415.338 507.271 422.126 507.91 428.192 508.678C427.094 513.395 425.868 518.176 424.711 522.887C430.008 524.586 435.28 526.36 440.527 528.208C435.702 532.091 433.92 533.759 429.891 538.511C433.74 542.297 437.264 546.06 440.95 549.996C430.069 553.857 420.099 555.257 408.853 556.149C364.784 559.645 326.585 541.169 294.281 512.746C281.09 501.14 268.584 489.344 255.659 477.295L204.488 430.158C184.211 411.903 164.104 393.459 144.172 374.828C123.659 355.82 105.972 341.593 90.3396 318.133C75.2651 295.489 66.3196 269.324 64.3766 242.191C61.1529 198.969 75.3685 156.256 103.85 123.586C132.62 89.6811 173.969 68.9711 218.351 66.237Z"/><path d="M714.791 440.707C720.866 440.372 726.979 440.218 733.054 440.621C766.426 442.952 798.249 455.602 824.113 476.821C835.414 486.006 846.135 496.949 856.465 507.202L890.829 540.88C915.564 565.033 941.087 589.277 964.254 614.822C1001.47 655.859 1019.92 709.935 1015.74 765.389C1011.18 825.888 978.032 890.428 932.047 930.105C899.085 958.546 856.205 974.707 812.445 971.074C782.706 968.605 757.148 958.635 731.852 943.032C710.002 929.555 691.531 911.129 672.765 893.705L610.839 836.089L554.8 784.395C538.704 769.626 522.108 755.033 507.857 738.476C481.573 708.006 459.825 654.568 486.806 618.031C499.16 601.301 512.703 584.694 527.385 569.915C532.871 572.487 541.454 577.848 546.984 581.077C558.522 587.86 570.108 594.56 581.743 601.175C579.557 607.642 576.561 614.973 574.101 621.424C583.29 656.617 608.2 674.342 633.551 697.934L694.193 754.63L741.512 799.945C762.172 819.791 778.587 838.617 807.339 844.278C880.423 858.667 938.715 763.676 887.228 707.437C881.924 701.643 876.823 696.149 871.439 690.657L837.687 656.832C817.126 635.992 796.312 615.403 775.249 595.07C761.44 581.57 743.995 563.969 728.318 553.004C717.257 545.267 701.572 543.674 688.681 541.377L694.439 471.041C694.979 464.899 695.615 450.068 696.921 444.656C699.888 441.227 710.009 441.127 714.791 440.707ZM570.142 606.41C557.353 598.75 541.46 588.633 528.468 581.894C518.944 592.803 510.053 603.435 501.198 614.891C488.771 630.968 484.644 638.284 486.067 659.17C487.636 680.799 495.467 701.504 508.604 718.758C521.703 736.033 540.771 752.658 556.887 767.422L615.508 821.025L675.841 877.149C696.606 896.553 714.997 914.753 739.005 930.165C759.828 943.677 783.322 952.533 807.883 956.128C847.444 961.532 886.972 949.987 918.468 925.821C962.645 891.925 996.075 831.142 1003.27 776.163C1009.56 726.047 996.03 675.455 965.555 635.175C953.333 619.305 938.621 604.809 924.467 590.672C908.024 574.242 891.469 557.923 874.804 541.718L842.199 509.619C829.851 497.482 818.052 485.643 803.513 476.063C780.588 460.959 749.178 449.311 721.386 451.225C716.086 451.479 710.74 451.672 705.463 452.204C704.549 477.478 701.206 506.68 699.365 532.357C735.614 536.121 749.003 553.38 773.716 577.019C790.856 593.318 807.839 609.782 824.662 626.408C841.463 642.834 858.124 659.403 874.644 676.112C901.72 704.006 921.544 723.845 917.018 766.101C908.488 845.744 819.514 886.466 758.158 831.132C747.423 821.503 736.546 811.12 725.927 801.079L661.721 740.473L614.412 696.288C598.685 681.669 582.377 668.399 572.089 649.061C561.534 629.219 561.191 626.49 570.142 606.41Z"/><path d="M714.116 469.606C727.841 469.599 735.797 469.83 749.5 472.64C767.651 476.323 784.84 483.736 799.976 494.409C809.959 501.36 819.787 511.217 828.525 519.603L857.969 547.828L913.114 601.379C931.407 619.374 948.452 634.891 962.774 656.356C989.448 696.335 996.234 741.721 986.764 788.45C976.561 838.795 944.583 891.186 901.187 919.607C870.052 940.321 831.894 947.642 795.303 939.924C774.103 935.4 754.023 926.68 736.244 914.278C719.385 902.593 703.163 886.468 688.142 872.358L633.972 822.01L579.291 771.836C558.24 752.885 526.742 726.975 511.96 704.301C500.418 684.949 487.618 649.029 502.942 629.039C511.987 617.239 521.101 604.954 530.863 593.742C535.773 595.928 553.251 606.888 558.96 610.291C557.986 613.118 554.179 621.622 553.765 623.955C551.941 634.257 562.157 657.208 567.883 665.314C580.551 683.244 601.416 700.356 617.787 715.35L684.147 776.339L731.482 820.394C754.187 841.461 772.552 860.034 804.735 866.149C830.499 871.161 857.194 865.506 878.713 850.478C904.259 832.906 920.641 804.127 926.289 773.978C936.481 719.574 901.035 687.96 866.883 653.582C842.35 628.806 817.442 604.405 792.167 580.386L766.848 556.07C746.792 536.831 737.486 528.867 708.897 523.75C710.311 511.35 710.926 498.367 712.335 485.907C712.931 480.636 713.149 474.778 714.116 469.606Z"/><path d="M368.855 377.937C372.588 378.488 384.035 383.853 388.102 385.612L420.325 399.548C423.634 408.284 426.319 423.225 429.954 431.075C424.328 426.741 418.756 422.338 413.239 417.866L403.704 410.209C403.055 415.427 401.899 421.223 401.168 426.642C397.847 428.452 394.599 429.764 391.055 431.039C387.229 426.201 381.947 417.927 378.338 412.659L358.649 384.163L368.855 377.937Z"/><path d="M722.416 265.032L722.788 265.555C704.812 309.739 686.584 353.82 668.104 397.795L667.569 397.261C675.406 360.298 683.941 323.486 693.168 286.845C701.778 279.516 713.202 271.916 722.416 265.032Z"/><path d="M618.175 355.172C624.98 357.944 633.614 362.359 640.813 365.497C639.436 372.52 637.118 388.095 634.716 394.04C632.959 398.387 623.261 412.143 620.012 416.959L614.927 424.693C610.975 412.529 607.165 398.182 603.461 385.745C607.466 376.389 613.633 364.616 618.175 355.172Z"/><path d="M447.501 616.51L447.823 617.02C442.228 624.913 381.296 702.931 380.147 703.328L379.602 702.396C379.329 693.306 377.319 679.55 376.35 670.12L447.501 616.51Z"/><path d="M705.67 399.337C709.097 399.346 736.851 408.276 741.76 409.731C742.781 415.232 743.908 420.713 745.139 426.17C737.551 426.926 729.992 427.104 722.376 427.245C710.626 427.162 698.468 426.434 686.702 425.884L684.01 419.722C689.898 413.641 699.178 405.516 705.67 399.337Z"/><path d="M673.383 238.039C677.916 242.795 684.128 249.067 688.257 254.121C682.234 267.282 676.066 280.376 669.752 293.4C666.844 299.471 663.396 307.282 660.253 313.088C659.42 313.267 659.859 313.091 659.002 313.756L657.702 313.436C656.629 311.899 656.988 309.621 656.903 307.359C662.12 284.945 667.34 259.905 673.383 238.039Z"/><path d="M631.412 452.326C633.76 454.005 644.337 474.956 646.003 478.739C633.006 480.686 619.477 483.246 606.524 485.608C601.673 486.382 597.634 487.077 592.814 488.179C605.562 475.712 618.926 464.367 631.412 452.326Z"/><path d="M399.232 610.06L399.787 610.456C392.682 617.528 378.973 629.743 370.354 635.059C367.988 636.518 347.735 643.668 345.946 643.502C344.276 642.294 344.723 642.392 343.804 640.125C342.401 636.123 340.614 632.187 339.181 628.072C357.929 621.788 380.168 615.749 399.232 610.06Z"/><path d="M449.066 659.353C449.582 661.203 432.623 724.147 430.786 731.645C428.807 728.795 426.85 725.802 424.91 722.914L416.723 710.339C424.777 695.97 439.579 673.237 449.066 659.353Z"/><path d="M619.815 539.253L620.8 539.262C622.417 540.15 635.169 557.494 637.079 560.122C635.689 564.751 633.628 575.555 631.879 579.306C630.164 579.579 630.16 579.244 628.266 578.566C623.891 576.682 619.181 575.06 614.689 573.427C612.669 563.14 610.997 551.127 609.273 540.617C612.669 539.986 616.361 539.642 619.815 539.253Z"/><path d="M749.086 325.785C750.871 326.44 759.718 339.643 761.394 342.042C749.015 347.596 736.605 353.078 724.162 358.487C721.271 359.898 716.435 361.663 713.327 362.909C725.405 351.24 737.021 337.442 749.086 325.785Z"/><path d="M656.903 307.359C656.988 309.621 656.629 311.899 657.702 313.436L659.002 313.756C659.859 313.091 659.42 313.267 660.253 313.088C659.055 316.929 653.184 328.587 651.116 332.131C653.215 324.056 655.099 315.509 656.903 307.359Z"/></svg>